<?xml version="1.0" encoding="UTF-8" standalone="no"?>
<!DOCTYPE svg PUBLIC "-//W3C//DTD SVG 1.1//EN"
 "http://www.w3.org/Graphics/SVG/1.1/DTD/svg11.dtd">
<!-- Generated by graphviz version 2.36.0 (20140111.2315)
 -->
<!-- Title: okw.gui.frames.hc.hcLogin Pages: 1 -->
<svg width="142pt" height="216pt"
 viewBox="0.00 0.00 142.00 216.00" xmlns="http://www.w3.org/2000/svg" xmlns:xlink="http://www.w3.org/1999/xlink">
<g id="graph0" class="graph" transform="scale(1 1) rotate(0) translate(4 212)">
<title>okw.gui.frames.hc.hcLogin</title>
<polygon fill="white" stroke="none" points="-4,4 -4,-212 138,-212 138,4 -4,4"/>
<!-- Node0 -->
<g id="node1" class="node"><title>Node0</title>
<polygon fill="#bfbfbf" stroke="black" points="0,-1 0,-113 134,-113 134,-1 0,-1"/>
<text text-anchor="middle" x="67" y="-101" font-family="Helvetica,sans-Serif" font-size="10.00">okw.gui.frames.hc.hcLogin</text>
<polyline fill="none" stroke="black" points="0,-94 134,-94 "/>
<text text-anchor="start" x="8" y="-82" font-family="Helvetica,sans-Serif" font-size="10.00">+ User</text>
<text text-anchor="start" x="8" y="-71" font-family="Helvetica,sans-Serif" font-size="10.00">+ Password</text>
<text text-anchor="start" x="8" y="-60" font-family="Helvetica,sans-Serif" font-size="10.00">+ Login</text>
<text text-anchor="start" x="8" y="-49" font-family="Helvetica,sans-Serif" font-size="10.00">+ NochKeinKonto</text>
<text text-anchor="start" x="8" y="-38" font-family="Helvetica,sans-Serif" font-size="10.00">+ PasswortVergessen</text>
<polyline fill="none" stroke="black" points="0,-31 134,-31 "/>
<text text-anchor="start" x="8" y="-19" font-family="Helvetica,sans-Serif" font-size="10.00">+ hcLogin()</text>
<text text-anchor="start" x="8" y="-8" font-family="Helvetica,sans-Serif" font-size="10.00">+ Sequens_Login()</text>
</g>
<!-- Node1 -->
<g id="node2" class="node"><title>Node1</title>
<polygon fill="white" stroke="#bfbfbf" points="23.5,-150.5 23.5,-207.5 110.5,-207.5 110.5,-150.5 23.5,-150.5"/>
<text text-anchor="middle" x="67" y="-195.5" font-family="Helvetica,sans-Serif" font-size="10.00">SeBrowserChild</text>
<polyline fill="none" stroke="#bfbfbf" points="23.5,-188.5 110.5,-188.5 "/>
<text text-anchor="middle" x="67" y="-176.5" font-family="Helvetica,sans-Serif" font-size="10.00"> </text>
<polyline fill="none" stroke="#bfbfbf" points="23.5,-169.5 110.5,-169.5 "/>
<text text-anchor="middle" x="67" y="-157.5" font-family="Helvetica,sans-Serif" font-size="10.00"> </text>
</g>
<!-- Node1&#45;&gt;Node0 -->
<g id="edge1" class="edge"><title>Node1&#45;&gt;Node0</title>
<path fill="none" stroke="midnightblue" d="M67,-140.398C67,-131.802 67,-122.49 67,-113.324"/>
<polygon fill="none" stroke="midnightblue" points="63.5001,-140.47 67,-150.47 70.5001,-140.47 63.5001,-140.47"/>
</g>
</g>
</svg>
