<?xml version="1.0" encoding="UTF-8" standalone="no"?>
<!DOCTYPE svg PUBLIC "-//W3C//DTD SVG 1.1//EN"
 "http://www.w3.org/Graphics/SVG/1.1/DTD/svg11.dtd">
<!-- Generated by graphviz version 2.36.0 (20140111.2315)
 -->
<!-- Title: okw.gui.frames.hc.hcMainPage Pages: 1 -->
<svg width="274pt" height="354pt"
 viewBox="0.00 0.00 274.00 354.00" xmlns="http://www.w3.org/2000/svg" xmlns:xlink="http://www.w3.org/1999/xlink">
<g id="graph0" class="graph" transform="scale(1 1) rotate(0) translate(4 350)">
<title>okw.gui.frames.hc.hcMainPage</title>
<polygon fill="white" stroke="none" points="-4,4 -4,-350 270,-350 270,4 -4,4"/>
<!-- Node2 -->
<g id="node1" class="node"><title>Node2</title>
<polygon fill="#bfbfbf" stroke="black" points="7,-1 7,-69 161,-69 161,-1 7,-1"/>
<text text-anchor="middle" x="84" y="-57" font-family="Helvetica,sans-Serif" font-size="10.00">okw.gui.frames.hc.hcMainPage</text>
<polyline fill="none" stroke="black" points="7,-50 161,-50 "/>
<text text-anchor="middle" x="84" y="-38" font-family="Helvetica,sans-Serif" font-size="10.00"> </text>
<polyline fill="none" stroke="black" points="7,-31 161,-31 "/>
<text text-anchor="start" x="15" y="-19" font-family="Helvetica,sans-Serif" font-size="10.00">+ hcMainPage()</text>
<text text-anchor="start" x="15" y="-8" font-family="Helvetica,sans-Serif" font-size="10.00">+ Sequens_Smoke()</text>
</g>
<!-- Node3 -->
<g id="node2" class="node"><title>Node3</title>
<polygon fill="white" stroke="#bfbfbf" points="-0.5,-139.5 -0.5,-196.5 86.5,-196.5 86.5,-139.5 -0.5,-139.5"/>
<text text-anchor="middle" x="43" y="-184.5" font-family="Helvetica,sans-Serif" font-size="10.00">SeBrowserChild</text>
<polyline fill="none" stroke="#bfbfbf" points="-0.5,-177.5 86.5,-177.5 "/>
<text text-anchor="middle" x="43" y="-165.5" font-family="Helvetica,sans-Serif" font-size="10.00"> </text>
<polyline fill="none" stroke="#bfbfbf" points="-0.5,-158.5 86.5,-158.5 "/>
<text text-anchor="middle" x="43" y="-146.5" font-family="Helvetica,sans-Serif" font-size="10.00"> </text>
</g>
<!-- Node3&#45;&gt;Node2 -->
<g id="edge1" class="edge"><title>Node3&#45;&gt;Node2</title>
<path fill="none" stroke="midnightblue" d="M54.7639,-129.413C60.6997,-110.447 67.8375,-87.6411 73.5744,-69.3109"/>
<polygon fill="none" stroke="midnightblue" points="51.3418,-128.629 51.695,-139.218 58.0222,-130.72 51.3418,-128.629"/>
</g>
<!-- Node4 -->
<g id="node3" class="node"><title>Node4</title>
<g id="a_node3"><a xlink:href="classokw_1_1gui_1_1container_1_1hc_1_1hc_main_navigation.html" target="_top" xlink:title="main navigation GUI&#45;Container Klasse enthält alle GUI&#45;Objekte der Kopfzeile (Header). ">
<polygon fill="white" stroke="black" points="104.5,-128.5 104.5,-207.5 245.5,-207.5 245.5,-128.5 104.5,-128.5"/>
<text text-anchor="start" x="112.5" y="-195.5" font-family="Helvetica,sans-Serif" font-size="10.00">okw.gui.container.hc.hcMain</text>
<text text-anchor="middle" x="175" y="-184.5" font-family="Helvetica,sans-Serif" font-size="10.00">Navigation</text>
<polyline fill="none" stroke="black" points="104.5,-177.5 245.5,-177.5 "/>
<text text-anchor="start" x="112.5" y="-165.5" font-family="Helvetica,sans-Serif" font-size="10.00">+ navBarBrand</text>
<text text-anchor="start" x="112.5" y="-154.5" font-family="Helvetica,sans-Serif" font-size="10.00">+ navBarSearch</text>
<polyline fill="none" stroke="black" points="104.5,-147.5 245.5,-147.5 "/>
<text text-anchor="start" x="112.5" y="-135.5" font-family="Helvetica,sans-Serif" font-size="10.00">+ hcMainNavigation()</text>
</a>
</g>
</g>
<!-- Node4&#45;&gt;Node2 -->
<g id="edge2" class="edge"><title>Node4&#45;&gt;Node2</title>
<path fill="none" stroke="#404040" d="M148.189,-128.404C137.438,-112.927 125.001,-95.0229 113.954,-79.12"/>
<polygon fill="none" stroke="#404040" points="113.773,-78.8594 107.064,-76.2138 106.926,-69.004 113.635,-71.6496 113.773,-78.8594"/>
<text text-anchor="middle" x="166" y="-102" font-family="Helvetica,sans-Serif" font-size="10.00"> +myNewPost</text>
<text text-anchor="middle" x="166" y="-91" font-family="Helvetica,sans-Serif" font-size="10.00">+myHeader</text>
</g>
<!-- Node5 -->
<g id="node4" class="node"><title>Node5</title>
<polygon fill="white" stroke="#bfbfbf" points="122,-288.5 122,-345.5 226,-345.5 226,-288.5 122,-288.5"/>
<text text-anchor="middle" x="174" y="-333.5" font-family="Helvetica,sans-Serif" font-size="10.00">SeAnyChildWindow</text>
<polyline fill="none" stroke="#bfbfbf" points="122,-326.5 226,-326.5 "/>
<text text-anchor="middle" x="174" y="-314.5" font-family="Helvetica,sans-Serif" font-size="10.00"> </text>
<polyline fill="none" stroke="#bfbfbf" points="122,-307.5 226,-307.5 "/>
<text text-anchor="middle" x="174" y="-295.5" font-family="Helvetica,sans-Serif" font-size="10.00"> </text>
</g>
<!-- Node5&#45;&gt;Node4 -->
<g id="edge3" class="edge"><title>Node5&#45;&gt;Node4</title>
<path fill="none" stroke="midnightblue" d="M172.226,-278.232C172.136,-275.447 172.058,-272.68 172,-270 171.575,-250.449 171.486,-245.549 172,-226 172.156,-220.056 172.404,-213.768 172.692,-207.622"/>
<polygon fill="none" stroke="midnightblue" points="168.73,-278.413 172.6,-288.276 175.725,-278.153 168.73,-278.413"/>
</g>
<!-- Node5&#45;&gt;Node4 -->
<g id="edge4" class="edge"><title>Node5&#45;&gt;Node4</title>
<path fill="none" stroke="#404040" d="M174.188,-288.35C174.319,-269.034 174.499,-242.683 174.655,-219.654"/>
<polygon fill="none" stroke="#404040" points="174.656,-219.619 170.697,-213.592 174.737,-207.62 178.696,-213.647 174.656,-219.619"/>
<text text-anchor="middle" x="220" y="-262" font-family="Helvetica,sans-Serif" font-size="10.00"> +navBarLanguage</text>
<text text-anchor="middle" x="220" y="-251" font-family="Helvetica,sans-Serif" font-size="10.00">+navBarFilter</text>
<text text-anchor="middle" x="220" y="-240" font-family="Helvetica,sans-Serif" font-size="10.00">+navBarNotifications</text>
<text text-anchor="middle" x="220" y="-229" font-family="Helvetica,sans-Serif" font-size="10.00">+navbarUserMenu</text>
</g>
</g>
</svg>
