<?xml version="1.0" encoding="UTF-8" standalone="no"?>
<!DOCTYPE svg PUBLIC "-//W3C//DTD SVG 1.1//EN"
 "http://www.w3.org/Graphics/SVG/1.1/DTD/svg11.dtd">
<!-- Generated by graphviz version 2.36.0 (20140111.2315)
 -->
<!-- Title: okw.gui.frames.hc.hcLogin Pages: 1 -->
<svg width="267pt" height="368pt"
 viewBox="0.00 0.00 267.00 368.00" xmlns="http://www.w3.org/2000/svg" xmlns:xlink="http://www.w3.org/1999/xlink">
<g id="graph0" class="graph" transform="scale(1 1) rotate(0) translate(4 364)">
<title>okw.gui.frames.hc.hcLogin</title>
<polygon fill="white" stroke="none" points="-4,4 -4,-364 263,-364 263,4 -4,4"/>
<!-- Node2 -->
<g id="node1" class="node"><title>Node2</title>
<polygon fill="#bfbfbf" stroke="black" points="9,-0.5 9,-123.5 163,-123.5 163,-0.5 9,-0.5"/>
<text text-anchor="middle" x="86" y="-111.5" font-family="Helvetica,sans-Serif" font-size="10.00">okw.gui.frames.hc.hcLogin</text>
<polyline fill="none" stroke="black" points="9,-104.5 163,-104.5 "/>
<text text-anchor="start" x="17" y="-92.5" font-family="Helvetica,sans-Serif" font-size="10.00">+ myLanguage</text>
<text text-anchor="start" x="17" y="-81.5" font-family="Helvetica,sans-Serif" font-size="10.00">+ User</text>
<text text-anchor="start" x="17" y="-70.5" font-family="Helvetica,sans-Serif" font-size="10.00">+ Password</text>
<polyline fill="none" stroke="black" points="9,-63.5 163,-63.5 "/>
<text text-anchor="start" x="17" y="-51.5" font-family="Helvetica,sans-Serif" font-size="10.00">+ hcLogin()</text>
<text text-anchor="start" x="17" y="-40.5" font-family="Helvetica,sans-Serif" font-size="10.00">+ Sequens_Login()</text>
<text text-anchor="start" x="17" y="-29.5" font-family="Helvetica,sans-Serif" font-size="10.00">+ Sequens_SmokeTestExists()</text>
<text text-anchor="start" x="17" y="-18.5" font-family="Helvetica,sans-Serif" font-size="10.00">+ SequensSmokeTestTextDE()</text>
<text text-anchor="start" x="17" y="-7.5" font-family="Helvetica,sans-Serif" font-size="10.00">+ SequensSmokeTestTextEN()</text>
</g>
<!-- Node3 -->
<g id="node2" class="node"><title>Node3</title>
<polygon fill="white" stroke="#bfbfbf" points="-0.5,-189.5 -0.5,-246.5 86.5,-246.5 86.5,-189.5 -0.5,-189.5"/>
<text text-anchor="middle" x="43" y="-234.5" font-family="Helvetica,sans-Serif" font-size="10.00">SeBrowserChild</text>
<polyline fill="none" stroke="#bfbfbf" points="-0.5,-227.5 86.5,-227.5 "/>
<text text-anchor="middle" x="43" y="-215.5" font-family="Helvetica,sans-Serif" font-size="10.00"> </text>
<polyline fill="none" stroke="#bfbfbf" points="-0.5,-208.5 86.5,-208.5 "/>
<text text-anchor="middle" x="43" y="-196.5" font-family="Helvetica,sans-Serif" font-size="10.00"> </text>
</g>
<!-- Node3&#45;&gt;Node2 -->
<g id="edge1" class="edge"><title>Node3&#45;&gt;Node2</title>
<path fill="none" stroke="midnightblue" d="M53.463,-179.528C58.1379,-162.785 63.7681,-142.621 69.0212,-123.808"/>
<polygon fill="none" stroke="midnightblue" points="50.0059,-178.895 50.6875,-189.468 56.748,-180.778 50.0059,-178.895"/>
</g>
<!-- Node4 -->
<g id="node3" class="node"><title>Node4</title>
<g id="a_node3"><a xlink:href="classokw_1_1gui_1_1adapter_1_1selenium_1_1hc_1_1hc_button.html" target="_top" xlink:title="{okw.gui.adapter.selenium.hc.hc\lButton\n||+ hcButton()\l+ hcButton()\l+ getCaption()\l}">
<polygon fill="white" stroke="black" points="104.5,-173 104.5,-263 259.5,-263 259.5,-173 104.5,-173"/>
<text text-anchor="start" x="112.5" y="-251" font-family="Helvetica,sans-Serif" font-size="10.00">okw.gui.adapter.selenium.hc.hc</text>
<text text-anchor="middle" x="182" y="-240" font-family="Helvetica,sans-Serif" font-size="10.00">Button</text>
<polyline fill="none" stroke="black" points="104.5,-233 259.5,-233 "/>
<text text-anchor="middle" x="182" y="-221" font-family="Helvetica,sans-Serif" font-size="10.00"> </text>
<polyline fill="none" stroke="black" points="104.5,-214 259.5,-214 "/>
<text text-anchor="start" x="112.5" y="-202" font-family="Helvetica,sans-Serif" font-size="10.00">+ hcButton()</text>
<text text-anchor="start" x="112.5" y="-191" font-family="Helvetica,sans-Serif" font-size="10.00">+ hcButton()</text>
<text text-anchor="start" x="112.5" y="-180" font-family="Helvetica,sans-Serif" font-size="10.00">+ getCaption()</text>
</a>
</g>
</g>
<!-- Node4&#45;&gt;Node2 -->
<g id="edge2" class="edge"><title>Node4&#45;&gt;Node2</title>
<path fill="none" stroke="#404040" d="M154.49,-172.87C146.971,-160.807 138.625,-147.419 130.42,-134.257"/>
<polygon fill="none" stroke="#404040" points="130.236,-133.962 123.668,-130.986 123.888,-123.779 130.456,-126.754 130.236,-133.962"/>
<text text-anchor="middle" x="158.5" y="-145.5" font-family="Helvetica,sans-Serif" font-size="10.00"> +Login</text>
</g>
<!-- Node5 -->
<g id="node4" class="node"><title>Node5</title>
<polygon fill="white" stroke="#bfbfbf" points="153.5,-302.5 153.5,-359.5 210.5,-359.5 210.5,-302.5 153.5,-302.5"/>
<text text-anchor="middle" x="182" y="-347.5" font-family="Helvetica,sans-Serif" font-size="10.00">SeButton</text>
<polyline fill="none" stroke="#bfbfbf" points="153.5,-340.5 210.5,-340.5 "/>
<text text-anchor="middle" x="182" y="-328.5" font-family="Helvetica,sans-Serif" font-size="10.00"> </text>
<polyline fill="none" stroke="#bfbfbf" points="153.5,-321.5 210.5,-321.5 "/>
<text text-anchor="middle" x="182" y="-309.5" font-family="Helvetica,sans-Serif" font-size="10.00"> </text>
</g>
<!-- Node5&#45;&gt;Node4 -->
<g id="edge3" class="edge"><title>Node5&#45;&gt;Node4</title>
<path fill="none" stroke="midnightblue" d="M182,-292.141C182,-282.828 182,-272.776 182,-263.194"/>
<polygon fill="none" stroke="midnightblue" points="178.5,-292.276 182,-302.276 185.5,-292.276 178.5,-292.276"/>
</g>
</g>
</svg>
