<?xml version="1.0" encoding="UTF-8" standalone="no"?>
<!DOCTYPE svg PUBLIC "-//W3C//DTD SVG 1.1//EN"
 "http://www.w3.org/Graphics/SVG/1.1/DTD/svg11.dtd">
<!-- Generated by graphviz version 2.36.0 (20140111.2315)
 -->
<!-- Title: okw.gui.frames.hc.hcWelcome Pages: 1 -->
<svg width="253pt" height="334pt"
 viewBox="0.00 0.00 253.00 334.00" xmlns="http://www.w3.org/2000/svg" xmlns:xlink="http://www.w3.org/1999/xlink">
<g id="graph0" class="graph" transform="scale(1 1) rotate(0) translate(4 330)">
<title>okw.gui.frames.hc.hcWelcome</title>
<polygon fill="white" stroke="none" points="-4,4 -4,-330 249,-330 249,4 -4,4"/>
<!-- Node2 -->
<g id="node1" class="node"><title>Node2</title>
<polygon fill="#bfbfbf" stroke="black" points="8,-0.5 8,-57.5 160,-57.5 160,-0.5 8,-0.5"/>
<text text-anchor="middle" x="84" y="-45.5" font-family="Helvetica,sans-Serif" font-size="10.00">okw.gui.frames.hc.hcWelcome</text>
<polyline fill="none" stroke="black" points="8,-38.5 160,-38.5 "/>
<text text-anchor="middle" x="84" y="-26.5" font-family="Helvetica,sans-Serif" font-size="10.00"> </text>
<polyline fill="none" stroke="black" points="8,-19.5 160,-19.5 "/>
<text text-anchor="start" x="16" y="-7.5" font-family="Helvetica,sans-Serif" font-size="10.00">+ hcWelcome()</text>
</g>
<!-- Node3 -->
<g id="node2" class="node"><title>Node3</title>
<polygon fill="white" stroke="#bfbfbf" points="-0.5,-139.5 -0.5,-196.5 86.5,-196.5 86.5,-139.5 -0.5,-139.5"/>
<text text-anchor="middle" x="43" y="-184.5" font-family="Helvetica,sans-Serif" font-size="10.00">SeBrowserChild</text>
<polyline fill="none" stroke="#bfbfbf" points="-0.5,-177.5 86.5,-177.5 "/>
<text text-anchor="middle" x="43" y="-165.5" font-family="Helvetica,sans-Serif" font-size="10.00"> </text>
<polyline fill="none" stroke="#bfbfbf" points="-0.5,-158.5 86.5,-158.5 "/>
<text text-anchor="middle" x="43" y="-146.5" font-family="Helvetica,sans-Serif" font-size="10.00"> </text>
</g>
<!-- Node3&#45;&gt;Node2 -->
<g id="edge1" class="edge"><title>Node3&#45;&gt;Node2</title>
<path fill="none" stroke="midnightblue" d="M54.1882,-129.615C60.9875,-106.895 69.5221,-78.3773 75.7154,-57.6828"/>
<polygon fill="none" stroke="midnightblue" points="50.811,-128.692 51.297,-139.276 57.5172,-130.699 50.811,-128.692"/>
</g>
<!-- Node4 -->
<g id="node3" class="node"><title>Node4</title>
<g id="a_node3"><a xlink:href="classokw_1_1gui_1_1container_1_1hc_1_1hc_main_navigation.html" target="_top" xlink:title="main navigation GUI&#45;Container Klasse enthält alle GUI&#45;Objekte der Kopfzeile (Header). ">
<polygon fill="white" stroke="black" points="104.5,-106.5 104.5,-229.5 245.5,-229.5 245.5,-106.5 104.5,-106.5"/>
<text text-anchor="start" x="112.5" y="-217.5" font-family="Helvetica,sans-Serif" font-size="10.00">okw.gui.container.hc.hcMain</text>
<text text-anchor="middle" x="175" y="-206.5" font-family="Helvetica,sans-Serif" font-size="10.00">Navigation</text>
<polyline fill="none" stroke="black" points="104.5,-199.5 245.5,-199.5 "/>
<text text-anchor="start" x="112.5" y="-187.5" font-family="Helvetica,sans-Serif" font-size="10.00">+ navBarBrand</text>
<text text-anchor="start" x="112.5" y="-176.5" font-family="Helvetica,sans-Serif" font-size="10.00">+ navBarSearch</text>
<text text-anchor="start" x="112.5" y="-165.5" font-family="Helvetica,sans-Serif" font-size="10.00">+ navBarFilter</text>
<text text-anchor="start" x="112.5" y="-154.5" font-family="Helvetica,sans-Serif" font-size="10.00">+ navBarLanguage</text>
<text text-anchor="start" x="112.5" y="-143.5" font-family="Helvetica,sans-Serif" font-size="10.00">+ navBarNotifications</text>
<text text-anchor="start" x="112.5" y="-132.5" font-family="Helvetica,sans-Serif" font-size="10.00">+ navbarUserMenu</text>
<polyline fill="none" stroke="black" points="104.5,-125.5 245.5,-125.5 "/>
<text text-anchor="start" x="112.5" y="-113.5" font-family="Helvetica,sans-Serif" font-size="10.00">+ hcMainNavigation()</text>
</a>
</g>
</g>
<!-- Node4&#45;&gt;Node2 -->
<g id="edge2" class="edge"><title>Node4&#45;&gt;Node2</title>
<path fill="none" stroke="#404040" d="M134.556,-106.112C125.979,-93.1994 117.16,-79.9215 109.337,-68.1443"/>
<polygon fill="none" stroke="#404040" points="109.108,-67.7998 102.456,-65.0151 102.468,-57.8039 109.12,-60.5887 109.108,-67.7998"/>
<text text-anchor="middle" x="148.5" y="-79.5" font-family="Helvetica,sans-Serif" font-size="10.00"> +myHeader</text>
</g>
<!-- Node5 -->
<g id="node4" class="node"><title>Node5</title>
<polygon fill="white" stroke="#bfbfbf" points="123,-268.5 123,-325.5 227,-325.5 227,-268.5 123,-268.5"/>
<text text-anchor="middle" x="175" y="-313.5" font-family="Helvetica,sans-Serif" font-size="10.00">SeAnyChildWindow</text>
<polyline fill="none" stroke="#bfbfbf" points="123,-306.5 227,-306.5 "/>
<text text-anchor="middle" x="175" y="-294.5" font-family="Helvetica,sans-Serif" font-size="10.00"> </text>
<polyline fill="none" stroke="#bfbfbf" points="123,-287.5 227,-287.5 "/>
<text text-anchor="middle" x="175" y="-275.5" font-family="Helvetica,sans-Serif" font-size="10.00"> </text>
</g>
<!-- Node5&#45;&gt;Node4 -->
<g id="edge3" class="edge"><title>Node5&#45;&gt;Node4</title>
<path fill="none" stroke="midnightblue" d="M175,-258.283C175,-249.252 175,-239.384 175,-229.607"/>
<polygon fill="none" stroke="midnightblue" points="171.5,-258.443 175,-268.443 178.5,-258.443 171.5,-258.443"/>
</g>
</g>
</svg>
