<?xml version="1.0" encoding="UTF-8" standalone="no"?>
<!DOCTYPE svg PUBLIC "-//W3C//DTD SVG 1.1//EN"
 "http://www.w3.org/Graphics/SVG/1.1/DTD/svg11.dtd">
<!-- Generated by graphviz version 2.36.0 (20140111.2315)
 -->
<!-- Title: okw.gui.frames.hc.hcLogin Pages: 1 -->
<svg width="458pt" height="346pt"
 viewBox="0.00 0.00 458.00 346.00" xmlns="http://www.w3.org/2000/svg" xmlns:xlink="http://www.w3.org/1999/xlink">
<g id="graph0" class="graph" transform="scale(1 1) rotate(0) translate(4 342)">
<title>okw.gui.frames.hc.hcLogin</title>
<polygon fill="white" stroke="none" points="-4,4 -4,-342 454,-342 454,4 -4,4"/>
<!-- Node2 -->
<g id="node1" class="node"><title>Node2</title>
<polygon fill="#bfbfbf" stroke="black" points="115,-1 115,-91 249,-91 249,-1 115,-1"/>
<text text-anchor="middle" x="182" y="-79" font-family="Helvetica,sans-Serif" font-size="10.00">okw.gui.frames.hc.hcLogin</text>
<polyline fill="none" stroke="black" points="115,-72 249,-72 "/>
<text text-anchor="start" x="123" y="-60" font-family="Helvetica,sans-Serif" font-size="10.00">+ Close</text>
<text text-anchor="start" x="123" y="-49" font-family="Helvetica,sans-Serif" font-size="10.00">+ User</text>
<text text-anchor="start" x="123" y="-38" font-family="Helvetica,sans-Serif" font-size="10.00">+ Password</text>
<polyline fill="none" stroke="black" points="115,-31 249,-31 "/>
<text text-anchor="start" x="123" y="-19" font-family="Helvetica,sans-Serif" font-size="10.00">+ hcLogin()</text>
<text text-anchor="start" x="123" y="-8" font-family="Helvetica,sans-Serif" font-size="10.00">+ Sequens_Login()</text>
</g>
<!-- Node3 -->
<g id="node2" class="node"><title>Node3</title>
<polygon fill="white" stroke="#bfbfbf" points="-0.5,-167.5 -0.5,-224.5 86.5,-224.5 86.5,-167.5 -0.5,-167.5"/>
<text text-anchor="middle" x="43" y="-212.5" font-family="Helvetica,sans-Serif" font-size="10.00">SeBrowserChild</text>
<polyline fill="none" stroke="#bfbfbf" points="-0.5,-205.5 86.5,-205.5 "/>
<text text-anchor="middle" x="43" y="-193.5" font-family="Helvetica,sans-Serif" font-size="10.00"> </text>
<polyline fill="none" stroke="#bfbfbf" points="-0.5,-186.5 86.5,-186.5 "/>
<text text-anchor="middle" x="43" y="-174.5" font-family="Helvetica,sans-Serif" font-size="10.00"> </text>
</g>
<!-- Node3&#45;&gt;Node2 -->
<g id="edge1" class="edge"><title>Node3&#45;&gt;Node2</title>
<path fill="none" stroke="midnightblue" d="M76.0237,-159.838C95.3888,-139.219 120.026,-112.986 140.672,-91.0042"/>
<polygon fill="none" stroke="midnightblue" points="73.4396,-157.477 69.1448,-167.162 78.5421,-162.269 73.4396,-157.477"/>
</g>
<!-- Node4 -->
<g id="node3" class="node"><title>Node4</title>
<g id="a_node3"><a xlink:href="classokw_1_1gui_1_1adapter_1_1selenium_1_1hc_1_1hc_button.html" target="_top" xlink:title="{okw.gui.adapter.selenium.hc.hc\lButton\n||+ hcButton()\l+ hcButton()\l+ getCaption()\l}">
<polygon fill="white" stroke="black" points="104.5,-151 104.5,-241 259.5,-241 259.5,-151 104.5,-151"/>
<text text-anchor="start" x="112.5" y="-229" font-family="Helvetica,sans-Serif" font-size="10.00">okw.gui.adapter.selenium.hc.hc</text>
<text text-anchor="middle" x="182" y="-218" font-family="Helvetica,sans-Serif" font-size="10.00">Button</text>
<polyline fill="none" stroke="black" points="104.5,-211 259.5,-211 "/>
<text text-anchor="middle" x="182" y="-199" font-family="Helvetica,sans-Serif" font-size="10.00"> </text>
<polyline fill="none" stroke="black" points="104.5,-192 259.5,-192 "/>
<text text-anchor="start" x="112.5" y="-180" font-family="Helvetica,sans-Serif" font-size="10.00">+ hcButton()</text>
<text text-anchor="start" x="112.5" y="-169" font-family="Helvetica,sans-Serif" font-size="10.00">+ hcButton()</text>
<text text-anchor="start" x="112.5" y="-158" font-family="Helvetica,sans-Serif" font-size="10.00">+ getCaption()</text>
</a>
</g>
</g>
<!-- Node4&#45;&gt;Node2 -->
<g id="edge2" class="edge"><title>Node4&#45;&gt;Node2</title>
<path fill="none" stroke="#404040" d="M182,-150.996C182,-136.07 182,-119.184 182,-103.426"/>
<polygon fill="none" stroke="#404040" points="182,-103.09 178,-97.0902 182,-91.0902 186,-97.0901 182,-103.09"/>
<text text-anchor="middle" x="230.5" y="-124" font-family="Helvetica,sans-Serif" font-size="10.00"> +PasswortVergessen</text>
<text text-anchor="middle" x="230.5" y="-113" font-family="Helvetica,sans-Serif" font-size="10.00">+Login</text>
</g>
<!-- Node5 -->
<g id="node4" class="node"><title>Node5</title>
<polygon fill="white" stroke="#bfbfbf" points="263.5,-280.5 263.5,-337.5 320.5,-337.5 320.5,-280.5 263.5,-280.5"/>
<text text-anchor="middle" x="292" y="-325.5" font-family="Helvetica,sans-Serif" font-size="10.00">SeButton</text>
<polyline fill="none" stroke="#bfbfbf" points="263.5,-318.5 320.5,-318.5 "/>
<text text-anchor="middle" x="292" y="-306.5" font-family="Helvetica,sans-Serif" font-size="10.00"> </text>
<polyline fill="none" stroke="#bfbfbf" points="263.5,-299.5 320.5,-299.5 "/>
<text text-anchor="middle" x="292" y="-287.5" font-family="Helvetica,sans-Serif" font-size="10.00"> </text>
</g>
<!-- Node5&#45;&gt;Node4 -->
<g id="edge3" class="edge"><title>Node5&#45;&gt;Node4</title>
<path fill="none" stroke="midnightblue" d="M257.432,-273.118C247.401,-262.996 236.313,-251.807 225.796,-241.194"/>
<polygon fill="none" stroke="midnightblue" points="255.001,-275.637 264.526,-280.276 259.973,-270.71 255.001,-275.637"/>
</g>
<!-- Node6 -->
<g id="node5" class="node"><title>Node6</title>
<g id="a_node5"><a xlink:href="classokw_1_1gui_1_1adapter_1_1selenium_1_1hc_1_1hc_link.html" target="_top" xlink:title="{okw.gui.adapter.selenium.hc.hcLink\n||+ hcLink()\l+ hcLink()\l+ getCaption()\l}">
<polygon fill="white" stroke="black" points="277.5,-156.5 277.5,-235.5 450.5,-235.5 450.5,-156.5 277.5,-156.5"/>
<text text-anchor="middle" x="364" y="-223.5" font-family="Helvetica,sans-Serif" font-size="10.00">okw.gui.adapter.selenium.hc.hcLink</text>
<polyline fill="none" stroke="black" points="277.5,-216.5 450.5,-216.5 "/>
<text text-anchor="middle" x="364" y="-204.5" font-family="Helvetica,sans-Serif" font-size="10.00"> </text>
<polyline fill="none" stroke="black" points="277.5,-197.5 450.5,-197.5 "/>
<text text-anchor="start" x="285.5" y="-185.5" font-family="Helvetica,sans-Serif" font-size="10.00">+ hcLink()</text>
<text text-anchor="start" x="285.5" y="-174.5" font-family="Helvetica,sans-Serif" font-size="10.00">+ hcLink()</text>
<text text-anchor="start" x="285.5" y="-163.5" font-family="Helvetica,sans-Serif" font-size="10.00">+ getCaption()</text>
</a>
</g>
</g>
<!-- Node5&#45;&gt;Node6 -->
<g id="edge5" class="edge"><title>Node5&#45;&gt;Node6</title>
<path fill="none" stroke="midnightblue" d="M315.524,-271.733C323.014,-260.188 331.325,-247.374 338.92,-235.665"/>
<polygon fill="none" stroke="midnightblue" points="312.488,-269.982 309.983,-280.276 318.361,-273.791 312.488,-269.982"/>
</g>
<!-- Node6&#45;&gt;Node2 -->
<g id="edge4" class="edge"><title>Node6&#45;&gt;Node2</title>
<path fill="none" stroke="#404040" d="M330.808,-156.135C316.835,-140.885 299.91,-123.776 283,-110 275.539,-103.922 267.45,-97.9705 259.209,-92.3008"/>
<polygon fill="none" stroke="#404040" points="259.082,-92.2156 251.871,-92.1982 249.113,-85.5351 256.325,-85.5525 259.082,-92.2156"/>
<text text-anchor="middle" x="346" y="-118.5" font-family="Helvetica,sans-Serif" font-size="10.00"> +NochKeinKonto</text>
</g>
</g>
</svg>
