<?xml version="1.0" encoding="UTF-8" standalone="no"?>
<!DOCTYPE svg PUBLIC "-//W3C//DTD SVG 1.1//EN"
 "http://www.w3.org/Graphics/SVG/1.1/DTD/svg11.dtd">
<!-- Generated by graphviz version 2.36.0 (20140111.2315)
 -->
<!-- Title: okw.gui.frames.hc.HC_Introduction Pages: 1 -->
<svg width="440pt" height="498pt"
 viewBox="0.00 0.00 440.00 498.00" xmlns="http://www.w3.org/2000/svg" xmlns:xlink="http://www.w3.org/1999/xlink">
<g id="graph0" class="graph" transform="scale(1 1) rotate(0) translate(4 494)">
<title>okw.gui.frames.hc.HC_Introduction</title>
<polygon fill="white" stroke="none" points="-4,4 -4,-494 436,-494 436,4 -4,4"/>
<!-- Node2 -->
<g id="node1" class="node"><title>Node2</title>
<polygon fill="#bfbfbf" stroke="black" points="124.5,-1 124.5,-69 239.5,-69 239.5,-1 124.5,-1"/>
<text text-anchor="start" x="132.5" y="-57" font-family="Helvetica,sans-Serif" font-size="10.00">okw.gui.frames.hc.HC</text>
<text text-anchor="middle" x="182" y="-46" font-family="Helvetica,sans-Serif" font-size="10.00">_Introduction</text>
<polyline fill="none" stroke="black" points="124.5,-39 239.5,-39 "/>
<text text-anchor="middle" x="182" y="-27" font-family="Helvetica,sans-Serif" font-size="10.00"> </text>
<polyline fill="none" stroke="black" points="124.5,-20 239.5,-20 "/>
<text text-anchor="start" x="132.5" y="-8" font-family="Helvetica,sans-Serif" font-size="10.00">+ HC_Introduction()</text>
</g>
<!-- Node3 -->
<g id="node2" class="node"><title>Node3</title>
<polygon fill="white" stroke="#bfbfbf" points="-0.5,-184.5 -0.5,-241.5 86.5,-241.5 86.5,-184.5 -0.5,-184.5"/>
<text text-anchor="middle" x="43" y="-229.5" font-family="Helvetica,sans-Serif" font-size="10.00">SeBrowserChild</text>
<polyline fill="none" stroke="#bfbfbf" points="-0.5,-222.5 86.5,-222.5 "/>
<text text-anchor="middle" x="43" y="-210.5" font-family="Helvetica,sans-Serif" font-size="10.00"> </text>
<polyline fill="none" stroke="#bfbfbf" points="-0.5,-203.5 86.5,-203.5 "/>
<text text-anchor="middle" x="43" y="-191.5" font-family="Helvetica,sans-Serif" font-size="10.00"> </text>
</g>
<!-- Node3&#45;&gt;Node2 -->
<g id="edge1" class="edge"><title>Node3&#45;&gt;Node2</title>
<path fill="none" stroke="midnightblue" d="M71.3832,-176.062C96.1303,-144.727 131.737,-99.642 155.813,-69.1576"/>
<polygon fill="none" stroke="midnightblue" points="68.4762,-174.095 65.025,-184.112 73.9696,-178.434 68.4762,-174.095"/>
</g>
<!-- Node4 -->
<g id="node3" class="node"><title>Node4</title>
<g id="a_node3"><a xlink:href="classokw_1_1gui_1_1adapter_1_1selenium_1_1hc_1_1hc_emoji.html" target="_top" xlink:title="Diese Klasse representiert einen hc&#45;imoji Image. ">
<polygon fill="white" stroke="black" points="104.5,-168 104.5,-258 259.5,-258 259.5,-168 104.5,-168"/>
<text text-anchor="start" x="112.5" y="-246" font-family="Helvetica,sans-Serif" font-size="10.00">okw.gui.adapter.selenium.hc.hc</text>
<text text-anchor="middle" x="182" y="-235" font-family="Helvetica,sans-Serif" font-size="10.00">Emoji</text>
<polyline fill="none" stroke="black" points="104.5,-228 259.5,-228 "/>
<text text-anchor="middle" x="182" y="-216" font-family="Helvetica,sans-Serif" font-size="10.00"> </text>
<polyline fill="none" stroke="black" points="104.5,-209 259.5,-209 "/>
<text text-anchor="start" x="112.5" y="-197" font-family="Helvetica,sans-Serif" font-size="10.00">+ hcEmoji()</text>
<text text-anchor="start" x="112.5" y="-186" font-family="Helvetica,sans-Serif" font-size="10.00">+ hcEmoji()</text>
<text text-anchor="start" x="112.5" y="-175" font-family="Helvetica,sans-Serif" font-size="10.00">+ getValue()</text>
</a>
</g>
</g>
<!-- Node4&#45;&gt;Node2 -->
<g id="edge2" class="edge"><title>Node4&#45;&gt;Node2</title>
<path fill="none" stroke="#404040" d="M182,-167.588C182,-141.127 182,-107.631 182,-81.0569"/>
<polygon fill="none" stroke="#404040" points="182,-81.0074 178,-75.0075 182,-69.0074 186,-75.0074 182,-81.0074"/>
<text text-anchor="middle" x="228.5" y="-135.5" font-family="Helvetica,sans-Serif" font-size="10.00"> +HCEmojiSample_1</text>
<text text-anchor="middle" x="228.5" y="-124.5" font-family="Helvetica,sans-Serif" font-size="10.00">+HCEmojiSample_2</text>
<text text-anchor="middle" x="228.5" y="-113.5" font-family="Helvetica,sans-Serif" font-size="10.00">+HCEmojiSample_3</text>
<text text-anchor="middle" x="228.5" y="-102.5" font-family="Helvetica,sans-Serif" font-size="10.00">+HCEmojiSample_4</text>
<text text-anchor="middle" x="228.5" y="-91.5" font-family="Helvetica,sans-Serif" font-size="10.00">+HCEmojiSample_5</text>
</g>
<!-- Node5 -->
<g id="node4" class="node"><title>Node5</title>
<polygon fill="white" stroke="#bfbfbf" points="154,-319.5 154,-376.5 210,-376.5 210,-319.5 154,-319.5"/>
<text text-anchor="middle" x="182" y="-364.5" font-family="Helvetica,sans-Serif" font-size="10.00">SeImage</text>
<polyline fill="none" stroke="#bfbfbf" points="154,-357.5 210,-357.5 "/>
<text text-anchor="middle" x="182" y="-345.5" font-family="Helvetica,sans-Serif" font-size="10.00"> </text>
<polyline fill="none" stroke="#bfbfbf" points="154,-338.5 210,-338.5 "/>
<text text-anchor="middle" x="182" y="-326.5" font-family="Helvetica,sans-Serif" font-size="10.00"> </text>
</g>
<!-- Node5&#45;&gt;Node4 -->
<g id="edge3" class="edge"><title>Node5&#45;&gt;Node4</title>
<path fill="none" stroke="midnightblue" d="M182,-309.385C182,-293.396 182,-274.642 182,-258.014"/>
<polygon fill="none" stroke="midnightblue" points="178.5,-309.442 182,-319.442 185.5,-309.442 178.5,-309.442"/>
</g>
<!-- Node6 -->
<g id="node5" class="node"><title>Node6</title>
<g id="a_node5"><a xlink:href="classokw_1_1gui_1_1adapter_1_1selenium_1_1hc_1_1hc_button_with_count_label.html" target="_top" xlink:title="{okw.gui.adapter.selenium.hc.hc\lButtonWithCountLabel\n||+ hcButtonWithCountLabel()\l+ hcButtonWithCountLabel()\l+ getLabel()\l+ getCaption()\l}">
<polygon fill="white" stroke="black" points="277.5,-162.5 277.5,-263.5 432.5,-263.5 432.5,-162.5 277.5,-162.5"/>
<text text-anchor="start" x="285.5" y="-251.5" font-family="Helvetica,sans-Serif" font-size="10.00">okw.gui.adapter.selenium.hc.hc</text>
<text text-anchor="middle" x="355" y="-240.5" font-family="Helvetica,sans-Serif" font-size="10.00">ButtonWithCountLabel</text>
<polyline fill="none" stroke="black" points="277.5,-233.5 432.5,-233.5 "/>
<text text-anchor="middle" x="355" y="-221.5" font-family="Helvetica,sans-Serif" font-size="10.00"> </text>
<polyline fill="none" stroke="black" points="277.5,-214.5 432.5,-214.5 "/>
<text text-anchor="start" x="285.5" y="-202.5" font-family="Helvetica,sans-Serif" font-size="10.00">+ hcButtonWithCountLabel()</text>
<text text-anchor="start" x="285.5" y="-191.5" font-family="Helvetica,sans-Serif" font-size="10.00">+ hcButtonWithCountLabel()</text>
<text text-anchor="start" x="285.5" y="-180.5" font-family="Helvetica,sans-Serif" font-size="10.00">+ getLabel()</text>
<text text-anchor="start" x="285.5" y="-169.5" font-family="Helvetica,sans-Serif" font-size="10.00">+ getCaption()</text>
</a>
</g>
</g>
<!-- Node6&#45;&gt;Node2 -->
<g id="edge4" class="edge"><title>Node6&#45;&gt;Node2</title>
<path fill="none" stroke="#404040" d="M332.422,-162.414C319.412,-137.82 301.218,-108.971 279,-88 270.543,-80.0181 260.625,-72.8925 250.419,-66.6671"/>
<polygon fill="none" stroke="#404040" points="250.125,-66.4979 242.929,-66.9685 239.727,-60.5073 246.923,-60.0367 250.125,-66.4979"/>
<text text-anchor="middle" x="357" y="-113.5" font-family="Helvetica,sans-Serif" font-size="10.00"> +HCCountLabel</text>
</g>
<!-- Node7 -->
<g id="node6" class="node"><title>Node7</title>
<g id="a_node6"><a xlink:href="classokw_1_1gui_1_1adapter_1_1selenium_1_1hc_1_1hc_button.html" target="_top" xlink:title="{okw.gui.adapter.selenium.hc.hc\lButton\n||+ hcButton()\l+ hcButton()\l+ getCaption()\l}">
<polygon fill="white" stroke="black" points="277.5,-303 277.5,-393 432.5,-393 432.5,-303 277.5,-303"/>
<text text-anchor="start" x="285.5" y="-381" font-family="Helvetica,sans-Serif" font-size="10.00">okw.gui.adapter.selenium.hc.hc</text>
<text text-anchor="middle" x="355" y="-370" font-family="Helvetica,sans-Serif" font-size="10.00">Button</text>
<polyline fill="none" stroke="black" points="277.5,-363 432.5,-363 "/>
<text text-anchor="middle" x="355" y="-351" font-family="Helvetica,sans-Serif" font-size="10.00"> </text>
<polyline fill="none" stroke="black" points="277.5,-344 432.5,-344 "/>
<text text-anchor="start" x="285.5" y="-332" font-family="Helvetica,sans-Serif" font-size="10.00">+ hcButton()</text>
<text text-anchor="start" x="285.5" y="-321" font-family="Helvetica,sans-Serif" font-size="10.00">+ hcButton()</text>
<text text-anchor="start" x="285.5" y="-310" font-family="Helvetica,sans-Serif" font-size="10.00">+ getCaption()</text>
</a>
</g>
</g>
<!-- Node7&#45;&gt;Node6 -->
<g id="edge5" class="edge"><title>Node7&#45;&gt;Node6</title>
<path fill="none" stroke="midnightblue" d="M355,-292.504C355,-282.936 355,-273.024 355,-263.598"/>
<polygon fill="none" stroke="midnightblue" points="351.5,-292.713 355,-302.713 358.5,-292.713 351.5,-292.713"/>
</g>
<!-- Node8 -->
<g id="node7" class="node"><title>Node8</title>
<polygon fill="white" stroke="#bfbfbf" points="326.5,-432.5 326.5,-489.5 383.5,-489.5 383.5,-432.5 326.5,-432.5"/>
<text text-anchor="middle" x="355" y="-477.5" font-family="Helvetica,sans-Serif" font-size="10.00">SeButton</text>
<polyline fill="none" stroke="#bfbfbf" points="326.5,-470.5 383.5,-470.5 "/>
<text text-anchor="middle" x="355" y="-458.5" font-family="Helvetica,sans-Serif" font-size="10.00"> </text>
<polyline fill="none" stroke="#bfbfbf" points="326.5,-451.5 383.5,-451.5 "/>
<text text-anchor="middle" x="355" y="-439.5" font-family="Helvetica,sans-Serif" font-size="10.00"> </text>
</g>
<!-- Node8&#45;&gt;Node7 -->
<g id="edge6" class="edge"><title>Node8&#45;&gt;Node7</title>
<path fill="none" stroke="midnightblue" d="M355,-422.141C355,-412.828 355,-402.776 355,-393.194"/>
<polygon fill="none" stroke="midnightblue" points="351.5,-422.276 355,-432.276 358.5,-422.276 351.5,-422.276"/>
</g>
</g>
</svg>
