<?xml version="1.0" encoding="UTF-8" standalone="no"?>
<!DOCTYPE svg PUBLIC "-//W3C//DTD SVG 1.1//EN"
 "http://www.w3.org/Graphics/SVG/1.1/DTD/svg11.dtd">
<!-- Generated by graphviz version 2.36.0 (20140111.2315)
 -->
<!-- Title: okw.gui.adapter.selenium.hc.hcListBoxLanguage Pages: 1 -->
<svg width="185pt" height="194pt"
 viewBox="0.00 0.00 185.00 194.00" xmlns="http://www.w3.org/2000/svg" xmlns:xlink="http://www.w3.org/1999/xlink">
<g id="graph0" class="graph" transform="scale(1 1) rotate(0) translate(4 190)">
<title>okw.gui.adapter.selenium.hc.hcListBoxLanguage</title>
<polygon fill="white" stroke="none" points="-4,4 -4,-190 181,-190 181,4 -4,4"/>
<!-- Node2 -->
<g id="node1" class="node"><title>Node2</title>
<polygon fill="#bfbfbf" stroke="black" points="-0.5,-0.5 -0.5,-79.5 154.5,-79.5 154.5,-0.5 -0.5,-0.5"/>
<text text-anchor="start" x="7.5" y="-67.5" font-family="Helvetica,sans-Serif" font-size="10.00">okw.gui.adapter.selenium.hc.hc</text>
<text text-anchor="middle" x="77" y="-56.5" font-family="Helvetica,sans-Serif" font-size="10.00">ListBoxLanguage</text>
<polyline fill="none" stroke="black" points="-0.5,-49.5 154.5,-49.5 "/>
<text text-anchor="middle" x="77" y="-37.5" font-family="Helvetica,sans-Serif" font-size="10.00"> </text>
<polyline fill="none" stroke="black" points="-0.5,-30.5 154.5,-30.5 "/>
<text text-anchor="start" x="7.5" y="-18.5" font-family="Helvetica,sans-Serif" font-size="10.00">+ Select()</text>
<text text-anchor="start" x="7.5" y="-7.5" font-family="Helvetica,sans-Serif" font-size="10.00">+ hcListBoxLanguage()</text>
</g>
<!-- Node3 -->
<g id="node2" class="node"><title>Node3</title>
<polygon fill="white" stroke="#bfbfbf" points="14,-128.5 14,-185.5 70,-185.5 70,-128.5 14,-128.5"/>
<text text-anchor="middle" x="42" y="-173.5" font-family="Helvetica,sans-Serif" font-size="10.00">SeSelect</text>
<polyline fill="none" stroke="#bfbfbf" points="14,-166.5 70,-166.5 "/>
<text text-anchor="middle" x="42" y="-154.5" font-family="Helvetica,sans-Serif" font-size="10.00"> </text>
<polyline fill="none" stroke="#bfbfbf" points="14,-147.5 70,-147.5 "/>
<text text-anchor="middle" x="42" y="-135.5" font-family="Helvetica,sans-Serif" font-size="10.00"> </text>
</g>
<!-- Node3&#45;&gt;Node2 -->
<g id="edge1" class="edge"><title>Node3&#45;&gt;Node2</title>
<path fill="none" stroke="midnightblue" d="M53.328,-118.78C57.14,-106.254 61.4001,-92.2567 65.2443,-79.6258"/>
<polygon fill="none" stroke="midnightblue" points="49.9467,-117.869 50.3834,-128.455 56.6434,-119.907 49.9467,-117.869"/>
</g>
<!-- Node4 -->
<g id="node3" class="node"><title>Node4</title>
<polygon fill="white" stroke="#bfbfbf" points="88.5,-128.5 88.5,-185.5 135.5,-185.5 135.5,-128.5 88.5,-128.5"/>
<text text-anchor="middle" x="112" y="-173.5" font-family="Helvetica,sans-Serif" font-size="10.00">SeLink</text>
<polyline fill="none" stroke="#bfbfbf" points="88.5,-166.5 135.5,-166.5 "/>
<text text-anchor="middle" x="112" y="-154.5" font-family="Helvetica,sans-Serif" font-size="10.00"> </text>
<polyline fill="none" stroke="#bfbfbf" points="88.5,-147.5 135.5,-147.5 "/>
<text text-anchor="middle" x="112" y="-135.5" font-family="Helvetica,sans-Serif" font-size="10.00"> </text>
</g>
<!-- Node4&#45;&gt;Node2 -->
<g id="edge2" class="edge"><title>Node4&#45;&gt;Node2</title>
<path fill="none" stroke="#404040" d="M103.617,-128.455C100.21,-117.262 96.1645,-103.969 92.2686,-91.1684"/>
<polygon fill="none" stroke="#404040" points="92.2497,-91.1059 86.676,-86.5305 88.7557,-79.6258 94.3294,-84.2011 92.2497,-91.1059"/>
<text text-anchor="middle" x="137.5" y="-101.5" font-family="Helvetica,sans-Serif" font-size="10.00"> ~SelectLanguage</text>
</g>
</g>
</svg>
