<?xml version="1.0" encoding="UTF-8" standalone="no"?>
<!DOCTYPE svg PUBLIC "-//W3C//DTD SVG 1.1//EN"
 "http://www.w3.org/Graphics/SVG/1.1/DTD/svg11.dtd">
<!-- Generated by graphviz version 2.36.0 (20140111.2315)
 -->
<!-- Title: okw.gui.container.hc.hcMainNavigation Pages: 1 -->
<svg width="148pt" height="238pt"
 viewBox="0.00 0.00 148.00 238.00" xmlns="http://www.w3.org/2000/svg" xmlns:xlink="http://www.w3.org/1999/xlink">
<g id="graph0" class="graph" transform="scale(1 1) rotate(0) translate(4 234)">
<title>okw.gui.container.hc.hcMainNavigation</title>
<polygon fill="white" stroke="none" points="-4,4 -4,-234 144,-234 144,4 -4,4"/>
<!-- Node2 -->
<g id="node1" class="node"><title>Node2</title>
<polygon fill="#bfbfbf" stroke="black" points="-0.5,-1 -0.5,-135 140.5,-135 140.5,-1 -0.5,-1"/>
<text text-anchor="start" x="7.5" y="-123" font-family="Helvetica,sans-Serif" font-size="10.00">okw.gui.container.hc.hcMain</text>
<text text-anchor="middle" x="70" y="-112" font-family="Helvetica,sans-Serif" font-size="10.00">Navigation</text>
<polyline fill="none" stroke="black" points="-0.5,-105 140.5,-105 "/>
<text text-anchor="start" x="7.5" y="-93" font-family="Helvetica,sans-Serif" font-size="10.00">+ navBarBrand</text>
<text text-anchor="start" x="7.5" y="-82" font-family="Helvetica,sans-Serif" font-size="10.00">+ navBarSearch</text>
<text text-anchor="start" x="7.5" y="-71" font-family="Helvetica,sans-Serif" font-size="10.00">+ navBarFilter</text>
<text text-anchor="start" x="7.5" y="-60" font-family="Helvetica,sans-Serif" font-size="10.00">+ navBarLanguage</text>
<text text-anchor="start" x="7.5" y="-49" font-family="Helvetica,sans-Serif" font-size="10.00">+ navBarNotifications</text>
<text text-anchor="start" x="7.5" y="-38" font-family="Helvetica,sans-Serif" font-size="10.00">+ navbarUserMenu</text>
<text text-anchor="start" x="7.5" y="-27" font-family="Helvetica,sans-Serif" font-size="10.00">+ Login</text>
<polyline fill="none" stroke="black" points="-0.5,-20 140.5,-20 "/>
<text text-anchor="start" x="7.5" y="-8" font-family="Helvetica,sans-Serif" font-size="10.00">+ hcMainNavigation()</text>
</g>
<!-- Node3 -->
<g id="node2" class="node"><title>Node3</title>
<polygon fill="white" stroke="#bfbfbf" points="18,-172.5 18,-229.5 122,-229.5 122,-172.5 18,-172.5"/>
<text text-anchor="middle" x="70" y="-217.5" font-family="Helvetica,sans-Serif" font-size="10.00">SeAnyChildWindow</text>
<polyline fill="none" stroke="#bfbfbf" points="18,-210.5 122,-210.5 "/>
<text text-anchor="middle" x="70" y="-198.5" font-family="Helvetica,sans-Serif" font-size="10.00"> </text>
<polyline fill="none" stroke="#bfbfbf" points="18,-191.5 122,-191.5 "/>
<text text-anchor="middle" x="70" y="-179.5" font-family="Helvetica,sans-Serif" font-size="10.00"> </text>
</g>
<!-- Node3&#45;&gt;Node2 -->
<g id="edge1" class="edge"><title>Node3&#45;&gt;Node2</title>
<path fill="none" stroke="midnightblue" d="M70,-161.942C70,-153.47 70,-144.249 70,-135.016"/>
<polygon fill="none" stroke="midnightblue" points="66.5001,-162.218 70,-172.218 73.5001,-162.218 66.5001,-162.218"/>
</g>
</g>
</svg>
