<?xml version="1.0" encoding="UTF-8" standalone="no"?>
<!DOCTYPE svg PUBLIC "-//W3C//DTD SVG 1.1//EN"
 "http://www.w3.org/Graphics/SVG/1.1/DTD/svg11.dtd">
<!-- Generated by graphviz version 2.36.0 (20140111.2315)
 -->
<!-- Title: okw.gui.frames.hc.HC_Introduction Pages: 1 -->
<svg width="122pt" height="226pt"
 viewBox="0.00 0.00 122.00 226.00" xmlns="http://www.w3.org/2000/svg" xmlns:xlink="http://www.w3.org/1999/xlink">
<g id="graph0" class="graph" transform="scale(1 1) rotate(0) translate(4 222)">
<title>okw.gui.frames.hc.HC_Introduction</title>
<polygon fill="white" stroke="none" points="-4,4 -4,-222 118,-222 118,4 -4,4"/>
<!-- Node0 -->
<g id="node1" class="node"><title>Node0</title>
<polygon fill="#bfbfbf" stroke="black" points="-0.5,-0.5 -0.5,-123.5 114.5,-123.5 114.5,-0.5 -0.5,-0.5"/>
<text text-anchor="start" x="7.5" y="-111.5" font-family="Helvetica,sans-Serif" font-size="10.00">okw.gui.frames.hc.HC</text>
<text text-anchor="middle" x="57" y="-100.5" font-family="Helvetica,sans-Serif" font-size="10.00">_Introduction</text>
<polyline fill="none" stroke="black" points="-0.5,-93.5 114.5,-93.5 "/>
<text text-anchor="start" x="7.5" y="-81.5" font-family="Helvetica,sans-Serif" font-size="10.00">+ HCEmojiSample_1</text>
<text text-anchor="start" x="7.5" y="-70.5" font-family="Helvetica,sans-Serif" font-size="10.00">+ HCEmojiSample_2</text>
<text text-anchor="start" x="7.5" y="-59.5" font-family="Helvetica,sans-Serif" font-size="10.00">+ HCEmojiSample_3</text>
<text text-anchor="start" x="7.5" y="-48.5" font-family="Helvetica,sans-Serif" font-size="10.00">+ HCEmojiSample_4</text>
<text text-anchor="start" x="7.5" y="-37.5" font-family="Helvetica,sans-Serif" font-size="10.00">+ HCEmojiSample_5</text>
<text text-anchor="start" x="7.5" y="-26.5" font-family="Helvetica,sans-Serif" font-size="10.00">+ HCCountLabel</text>
<polyline fill="none" stroke="black" points="-0.5,-19.5 114.5,-19.5 "/>
<text text-anchor="start" x="7.5" y="-7.5" font-family="Helvetica,sans-Serif" font-size="10.00">+ HC_Introduction()</text>
</g>
<!-- Node1 -->
<g id="node2" class="node"><title>Node1</title>
<polygon fill="white" stroke="#bfbfbf" points="13.5,-160.5 13.5,-217.5 100.5,-217.5 100.5,-160.5 13.5,-160.5"/>
<text text-anchor="middle" x="57" y="-205.5" font-family="Helvetica,sans-Serif" font-size="10.00">SeBrowserChild</text>
<polyline fill="none" stroke="#bfbfbf" points="13.5,-198.5 100.5,-198.5 "/>
<text text-anchor="middle" x="57" y="-186.5" font-family="Helvetica,sans-Serif" font-size="10.00"> </text>
<polyline fill="none" stroke="#bfbfbf" points="13.5,-179.5 100.5,-179.5 "/>
<text text-anchor="middle" x="57" y="-167.5" font-family="Helvetica,sans-Serif" font-size="10.00"> </text>
</g>
<!-- Node1&#45;&gt;Node0 -->
<g id="edge1" class="edge"><title>Node1&#45;&gt;Node0</title>
<path fill="none" stroke="midnightblue" d="M57,-150.099C57,-141.739 57,-132.68 57,-123.672"/>
<polygon fill="none" stroke="midnightblue" points="53.5001,-150.258 57,-160.258 60.5001,-150.258 53.5001,-150.258"/>
</g>
</g>
</svg>
