<?xml version="1.0" encoding="UTF-8" standalone="no"?>
<!DOCTYPE svg PUBLIC "-//W3C//DTD SVG 1.1//EN"
 "http://www.w3.org/Graphics/SVG/1.1/DTD/svg11.dtd">
<!-- Generated by graphviz version 2.36.0 (20140111.2315)
 -->
<!-- Title: okw.gui.adapter.selenium.hc.hcButton Pages: 1 -->
<svg width="162pt" height="194pt"
 viewBox="0.00 0.00 162.00 194.00" xmlns="http://www.w3.org/2000/svg" xmlns:xlink="http://www.w3.org/1999/xlink">
<g id="graph0" class="graph" transform="scale(1 1) rotate(0) translate(4 190)">
<title>okw.gui.adapter.selenium.hc.hcButton</title>
<polygon fill="white" stroke="none" points="-4,4 -4,-190 158,-190 158,4 -4,4"/>
<!-- Node3 -->
<g id="node1" class="node"><title>Node3</title>
<polygon fill="#bfbfbf" stroke="black" points="-0.5,-1 -0.5,-91 154.5,-91 154.5,-1 -0.5,-1"/>
<text text-anchor="start" x="7.5" y="-79" font-family="Helvetica,sans-Serif" font-size="10.00">okw.gui.adapter.selenium.hc.hc</text>
<text text-anchor="middle" x="77" y="-68" font-family="Helvetica,sans-Serif" font-size="10.00">Button</text>
<polyline fill="none" stroke="black" points="-0.5,-61 154.5,-61 "/>
<text text-anchor="middle" x="77" y="-49" font-family="Helvetica,sans-Serif" font-size="10.00"> </text>
<polyline fill="none" stroke="black" points="-0.5,-42 154.5,-42 "/>
<text text-anchor="start" x="7.5" y="-30" font-family="Helvetica,sans-Serif" font-size="10.00">+ hcButton()</text>
<text text-anchor="start" x="7.5" y="-19" font-family="Helvetica,sans-Serif" font-size="10.00">+ hcButton()</text>
<text text-anchor="start" x="7.5" y="-8" font-family="Helvetica,sans-Serif" font-size="10.00">+ getCaption()</text>
</g>
<!-- Node4 -->
<g id="node2" class="node"><title>Node4</title>
<polygon fill="white" stroke="#bfbfbf" points="48.5,-128.5 48.5,-185.5 105.5,-185.5 105.5,-128.5 48.5,-128.5"/>
<text text-anchor="middle" x="77" y="-173.5" font-family="Helvetica,sans-Serif" font-size="10.00">SeButton</text>
<polyline fill="none" stroke="#bfbfbf" points="48.5,-166.5 105.5,-166.5 "/>
<text text-anchor="middle" x="77" y="-154.5" font-family="Helvetica,sans-Serif" font-size="10.00"> </text>
<polyline fill="none" stroke="#bfbfbf" points="48.5,-147.5 105.5,-147.5 "/>
<text text-anchor="middle" x="77" y="-135.5" font-family="Helvetica,sans-Serif" font-size="10.00"> </text>
</g>
<!-- Node4&#45;&gt;Node3 -->
<g id="edge1" class="edge"><title>Node4&#45;&gt;Node3</title>
<path fill="none" stroke="midnightblue" d="M77,-118.484C77,-109.643 77,-100.139 77,-91.0399"/>
<polygon fill="none" stroke="midnightblue" points="73.5001,-118.495 77,-128.495 80.5001,-118.495 73.5001,-118.495"/>
</g>
</g>
</svg>
