<?xml version="1.0" encoding="UTF-8" standalone="no"?>
<!DOCTYPE svg PUBLIC "-//W3C//DTD SVG 1.1//EN"
 "http://www.w3.org/Graphics/SVG/1.1/DTD/svg11.dtd">
<!-- Generated by graphviz version 2.36.0 (20140111.2315)
 -->
<!-- Title: okw.gui.container.hc.hcHead Pages: 1 -->
<svg width="150pt" height="172pt"
 viewBox="0.00 0.00 150.00 172.00" xmlns="http://www.w3.org/2000/svg" xmlns:xlink="http://www.w3.org/1999/xlink">
<g id="graph0" class="graph" transform="scale(1 1) rotate(0) translate(4 168)">
<title>okw.gui.container.hc.hcHead</title>
<polygon fill="white" stroke="none" points="-4,4 -4,-168 146,-168 146,4 -4,4"/>
<!-- Node2 -->
<g id="node1" class="node"><title>Node2</title>
<polygon fill="#bfbfbf" stroke="black" points="-0.5,-1 -0.5,-69 142.5,-69 142.5,-1 -0.5,-1"/>
<text text-anchor="middle" x="71" y="-57" font-family="Helvetica,sans-Serif" font-size="10.00">okw.gui.container.hc.hcHead</text>
<polyline fill="none" stroke="black" points="-0.5,-50 142.5,-50 "/>
<text text-anchor="start" x="7.5" y="-38" font-family="Helvetica,sans-Serif" font-size="10.00">+ Search</text>
<text text-anchor="start" x="7.5" y="-27" font-family="Helvetica,sans-Serif" font-size="10.00">+ Login</text>
<polyline fill="none" stroke="black" points="-0.5,-20 142.5,-20 "/>
<text text-anchor="start" x="7.5" y="-8" font-family="Helvetica,sans-Serif" font-size="10.00">+ hcHead()</text>
</g>
<!-- Node3 -->
<g id="node2" class="node"><title>Node3</title>
<polygon fill="white" stroke="#bfbfbf" points="19,-106.5 19,-163.5 123,-163.5 123,-106.5 19,-106.5"/>
<text text-anchor="middle" x="71" y="-151.5" font-family="Helvetica,sans-Serif" font-size="10.00">SeAnyChildWindow</text>
<polyline fill="none" stroke="#bfbfbf" points="19,-144.5 123,-144.5 "/>
<text text-anchor="middle" x="71" y="-132.5" font-family="Helvetica,sans-Serif" font-size="10.00"> </text>
<polyline fill="none" stroke="#bfbfbf" points="19,-125.5 123,-125.5 "/>
<text text-anchor="middle" x="71" y="-113.5" font-family="Helvetica,sans-Serif" font-size="10.00"> </text>
</g>
<!-- Node3&#45;&gt;Node2 -->
<g id="edge1" class="edge"><title>Node3&#45;&gt;Node2</title>
<path fill="none" stroke="midnightblue" d="M71,-96.3023C71,-87.3951 71,-77.9608 71,-69.2659"/>
<polygon fill="none" stroke="midnightblue" points="67.5001,-96.4407 71,-106.441 74.5001,-96.4408 67.5001,-96.4407"/>
</g>
</g>
</svg>
