<?xml version="1.0" encoding="UTF-8" standalone="no"?>
<!DOCTYPE svg PUBLIC "-//W3C//DTD SVG 1.1//EN"
 "http://www.w3.org/Graphics/SVG/1.1/DTD/svg11.dtd">
<!-- Generated by graphviz version 2.36.0 (20140111.2315)
 -->
<!-- Title: okw.gui.frames.hc.hcLogin Pages: 1 -->
<svg width="621pt" height="378pt"
 viewBox="0.00 0.00 621.00 378.00" xmlns="http://www.w3.org/2000/svg" xmlns:xlink="http://www.w3.org/1999/xlink">
<g id="graph0" class="graph" transform="scale(1 1) rotate(0) translate(4 374)">
<title>okw.gui.frames.hc.hcLogin</title>
<polygon fill="white" stroke="none" points="-4,4 -4,-374 617,-374 617,4 -4,4"/>
<!-- Node2 -->
<g id="node1" class="node"><title>Node2</title>
<polygon fill="#bfbfbf" stroke="black" points="191,-1 191,-91 345,-91 345,-1 191,-1"/>
<text text-anchor="middle" x="268" y="-79" font-family="Helvetica,sans-Serif" font-size="10.00">okw.gui.frames.hc.hcLogin</text>
<polyline fill="none" stroke="black" points="191,-72 345,-72 "/>
<text text-anchor="start" x="199" y="-60" font-family="Helvetica,sans-Serif" font-size="10.00">+ User</text>
<text text-anchor="start" x="199" y="-49" font-family="Helvetica,sans-Serif" font-size="10.00">+ Password</text>
<polyline fill="none" stroke="black" points="191,-42 345,-42 "/>
<text text-anchor="start" x="199" y="-30" font-family="Helvetica,sans-Serif" font-size="10.00">+ hcLogin()</text>
<text text-anchor="start" x="199" y="-19" font-family="Helvetica,sans-Serif" font-size="10.00">+ Sequens_Login()</text>
<text text-anchor="start" x="199" y="-8" font-family="Helvetica,sans-Serif" font-size="10.00">+ SequensSmokeTestTextEN()</text>
</g>
<!-- Node3 -->
<g id="node2" class="node"><title>Node3</title>
<polygon fill="white" stroke="#bfbfbf" points="-0.5,-168.5 -0.5,-225.5 86.5,-225.5 86.5,-168.5 -0.5,-168.5"/>
<text text-anchor="middle" x="43" y="-213.5" font-family="Helvetica,sans-Serif" font-size="10.00">SeBrowserChild</text>
<polyline fill="none" stroke="#bfbfbf" points="-0.5,-206.5 86.5,-206.5 "/>
<text text-anchor="middle" x="43" y="-194.5" font-family="Helvetica,sans-Serif" font-size="10.00"> </text>
<polyline fill="none" stroke="#bfbfbf" points="-0.5,-187.5 86.5,-187.5 "/>
<text text-anchor="middle" x="43" y="-175.5" font-family="Helvetica,sans-Serif" font-size="10.00"> </text>
</g>
<!-- Node3&#45;&gt;Node2 -->
<g id="edge1" class="edge"><title>Node3&#45;&gt;Node2</title>
<path fill="none" stroke="midnightblue" d="M72.6487,-160.485C79.573,-153.248 87.2129,-146.017 95,-140 124.142,-117.484 159.486,-97.4133 190.612,-81.7328"/>
<polygon fill="none" stroke="midnightblue" points="69.6592,-158.563 65.4429,-168.282 74.8003,-163.313 69.6592,-158.563"/>
</g>
<!-- Node4 -->
<g id="node3" class="node"><title>Node4</title>
<g id="a_node3"><a xlink:href="classokw_1_1gui_1_1adapter_1_1selenium_1_1hc_1_1hc_button.html" target="_top" xlink:title="{okw.gui.adapter.selenium.hc.hc\lButton\n||+ hcButton()\l+ hcButton()\l+ getCaption()\l}">
<polygon fill="white" stroke="black" points="104.5,-152 104.5,-242 259.5,-242 259.5,-152 104.5,-152"/>
<text text-anchor="start" x="112.5" y="-230" font-family="Helvetica,sans-Serif" font-size="10.00">okw.gui.adapter.selenium.hc.hc</text>
<text text-anchor="middle" x="182" y="-219" font-family="Helvetica,sans-Serif" font-size="10.00">Button</text>
<polyline fill="none" stroke="black" points="104.5,-212 259.5,-212 "/>
<text text-anchor="middle" x="182" y="-200" font-family="Helvetica,sans-Serif" font-size="10.00"> </text>
<polyline fill="none" stroke="black" points="104.5,-193 259.5,-193 "/>
<text text-anchor="start" x="112.5" y="-181" font-family="Helvetica,sans-Serif" font-size="10.00">+ hcButton()</text>
<text text-anchor="start" x="112.5" y="-170" font-family="Helvetica,sans-Serif" font-size="10.00">+ hcButton()</text>
<text text-anchor="start" x="112.5" y="-159" font-family="Helvetica,sans-Serif" font-size="10.00">+ getCaption()</text>
</a>
</g>
</g>
<!-- Node4&#45;&gt;Node2 -->
<g id="edge2" class="edge"><title>Node4&#45;&gt;Node2</title>
<path fill="none" stroke="#404040" d="M207.57,-151.699C216.627,-136.006 226.927,-118.162 236.424,-101.707"/>
<polygon fill="none" stroke="#404040" points="236.53,-101.524 236.065,-94.3278 242.529,-91.1308 242.994,-98.3269 236.53,-101.524"/>
<text text-anchor="middle" x="247.5" y="-113.5" font-family="Helvetica,sans-Serif" font-size="10.00"> +Login</text>
</g>
<!-- Node5 -->
<g id="node4" class="node"><title>Node5</title>
<polygon fill="white" stroke="#bfbfbf" points="153.5,-312.5 153.5,-369.5 210.5,-369.5 210.5,-312.5 153.5,-312.5"/>
<text text-anchor="middle" x="182" y="-357.5" font-family="Helvetica,sans-Serif" font-size="10.00">SeButton</text>
<polyline fill="none" stroke="#bfbfbf" points="153.5,-350.5 210.5,-350.5 "/>
<text text-anchor="middle" x="182" y="-338.5" font-family="Helvetica,sans-Serif" font-size="10.00"> </text>
<polyline fill="none" stroke="#bfbfbf" points="153.5,-331.5 210.5,-331.5 "/>
<text text-anchor="middle" x="182" y="-319.5" font-family="Helvetica,sans-Serif" font-size="10.00"> </text>
</g>
<!-- Node5&#45;&gt;Node4 -->
<g id="edge3" class="edge"><title>Node5&#45;&gt;Node4</title>
<path fill="none" stroke="midnightblue" d="M182,-302.187C182,-283.716 182,-261.379 182,-242.132"/>
<polygon fill="none" stroke="midnightblue" points="178.5,-302.284 182,-312.284 185.5,-302.284 178.5,-302.284"/>
</g>
<!-- Node6 -->
<g id="node5" class="node"><title>Node6</title>
<g id="a_node5"><a xlink:href="classokw_1_1gui_1_1adapter_1_1selenium_1_1hc_1_1hc_language_switch.html" target="_top" xlink:title="Ermittelt den textuellen Inhalt der Caption/Überschrift des. ">
<polygon fill="white" stroke="black" points="277.5,-141 277.5,-253 432.5,-253 432.5,-141 277.5,-141"/>
<text text-anchor="start" x="285.5" y="-241" font-family="Helvetica,sans-Serif" font-size="10.00">okw.gui.adapter.selenium.hc.hc</text>
<text text-anchor="middle" x="355" y="-230" font-family="Helvetica,sans-Serif" font-size="10.00">LanguageSwitch</text>
<polyline fill="none" stroke="black" points="277.5,-223 432.5,-223 "/>
<text text-anchor="middle" x="355" y="-211" font-family="Helvetica,sans-Serif" font-size="10.00"> </text>
<polyline fill="none" stroke="black" points="277.5,-204 432.5,-204 "/>
<text text-anchor="start" x="285.5" y="-192" font-family="Helvetica,sans-Serif" font-size="10.00">+ hcLanguageSwitch()</text>
<text text-anchor="start" x="285.5" y="-181" font-family="Helvetica,sans-Serif" font-size="10.00">+ hcLanguageSwitch()</text>
<text text-anchor="start" x="285.5" y="-170" font-family="Helvetica,sans-Serif" font-size="10.00">+ Select()</text>
<text text-anchor="start" x="285.5" y="-159" font-family="Helvetica,sans-Serif" font-size="10.00">+ getTooltip()</text>
<text text-anchor="start" x="285.5" y="-148" font-family="Helvetica,sans-Serif" font-size="10.00">+ getValue()</text>
</a>
</g>
</g>
<!-- Node6&#45;&gt;Node2 -->
<g id="edge4" class="edge"><title>Node6&#45;&gt;Node2</title>
<path fill="none" stroke="#404040" d="M322.852,-140.941C315.364,-128.118 307.394,-114.468 299.917,-101.662"/>
<polygon fill="none" stroke="#404040" points="299.824,-101.502 293.344,-98.3378 293.773,-91.1394 300.252,-94.3039 299.824,-101.502"/>
<text text-anchor="middle" x="344.5" y="-113.5" font-family="Helvetica,sans-Serif" font-size="10.00"> +myLanguage</text>
</g>
<!-- Node7 -->
<g id="node6" class="node"><title>Node7</title>
<polygon fill="white" stroke="#bfbfbf" points="256.5,-312.5 256.5,-369.5 303.5,-369.5 303.5,-312.5 256.5,-312.5"/>
<text text-anchor="middle" x="280" y="-357.5" font-family="Helvetica,sans-Serif" font-size="10.00">SeLink</text>
<polyline fill="none" stroke="#bfbfbf" points="256.5,-350.5 303.5,-350.5 "/>
<text text-anchor="middle" x="280" y="-338.5" font-family="Helvetica,sans-Serif" font-size="10.00"> </text>
<polyline fill="none" stroke="#bfbfbf" points="256.5,-331.5 303.5,-331.5 "/>
<text text-anchor="middle" x="280" y="-319.5" font-family="Helvetica,sans-Serif" font-size="10.00"> </text>
</g>
<!-- Node7&#45;&gt;Node6 -->
<g id="edge5" class="edge"><title>Node7&#45;&gt;Node6</title>
<path fill="none" stroke="midnightblue" d="M299.436,-303.2C307.474,-287.983 316.966,-270.012 325.808,-253.269"/>
<polygon fill="none" stroke="midnightblue" points="296.214,-301.807 294.639,-312.284 302.404,-305.076 296.214,-301.807"/>
</g>
<!-- Node8 -->
<g id="node7" class="node"><title>Node8</title>
<polygon fill="white" stroke="#bfbfbf" points="322,-312.5 322,-369.5 378,-369.5 378,-312.5 322,-312.5"/>
<text text-anchor="middle" x="350" y="-357.5" font-family="Helvetica,sans-Serif" font-size="10.00">SeImage</text>
<polyline fill="none" stroke="#bfbfbf" points="322,-350.5 378,-350.5 "/>
<text text-anchor="middle" x="350" y="-338.5" font-family="Helvetica,sans-Serif" font-size="10.00"> </text>
<polyline fill="none" stroke="#bfbfbf" points="322,-331.5 378,-331.5 "/>
<text text-anchor="middle" x="350" y="-319.5" font-family="Helvetica,sans-Serif" font-size="10.00"> </text>
</g>
<!-- Node8&#45;&gt;Node6 -->
<g id="edge6" class="edge"><title>Node8&#45;&gt;Node6</title>
<path fill="none" stroke="#404040" d="M350.976,-312.284C351.452,-298.775 352.046,-281.885 352.631,-265.268"/>
<polygon fill="none" stroke="#404040" points="352.632,-265.262 348.845,-259.125 353.054,-253.269 356.84,-259.406 352.632,-265.262"/>
<text text-anchor="middle" x="375" y="-286" font-family="Helvetica,sans-Serif" font-size="10.00"> ~Flag</text>
<text text-anchor="middle" x="375" y="-275" font-family="Helvetica,sans-Serif" font-size="10.00">~FlagTitle</text>
</g>
<!-- Node9 -->
<g id="node8" class="node"><title>Node9</title>
<polygon fill="white" stroke="#bfbfbf" points="396.5,-312.5 396.5,-369.5 469.5,-369.5 469.5,-312.5 396.5,-312.5"/>
<text text-anchor="middle" x="433" y="-357.5" font-family="Helvetica,sans-Serif" font-size="10.00">OKWLocator</text>
<polyline fill="none" stroke="#bfbfbf" points="396.5,-350.5 469.5,-350.5 "/>
<text text-anchor="middle" x="433" y="-338.5" font-family="Helvetica,sans-Serif" font-size="10.00"> </text>
<polyline fill="none" stroke="#bfbfbf" points="396.5,-331.5 469.5,-331.5 "/>
<text text-anchor="middle" x="433" y="-319.5" font-family="Helvetica,sans-Serif" font-size="10.00"> </text>
</g>
<!-- Node9&#45;&gt;Node6 -->
<g id="edge7" class="edge"><title>Node9&#45;&gt;Node6</title>
<path fill="none" stroke="#404040" d="M420.793,-312.176C415.103,-299.72 408.043,-284.953 401,-272 399.546,-269.325 398.036,-266.614 396.488,-263.888"/>
<polygon fill="none" stroke="#404040" points="396.394,-263.727 389.922,-260.547 390.368,-253.35 396.84,-256.529 396.394,-263.727"/>
<text text-anchor="middle" x="436.5" y="-280.5" font-family="Helvetica,sans-Serif" font-size="10.00"> &#45;Language</text>
</g>
<!-- Node10 -->
<g id="node9" class="node"><title>Node10</title>
<g id="a_node9"><a xlink:href="classokw_1_1gui_1_1adapter_1_1selenium_1_1hc_1_1hc_notices_toast_danger.html" target="_top" xlink:title="{okw.gui.adapter.selenium.hc.hc\lNoticesToastDanger\n||+ hcNoticesToastDanger()\l}">
<polygon fill="white" stroke="black" points="458.5,-163 458.5,-231 613.5,-231 613.5,-163 458.5,-163"/>
<text text-anchor="start" x="466.5" y="-219" font-family="Helvetica,sans-Serif" font-size="10.00">okw.gui.adapter.selenium.hc.hc</text>
<text text-anchor="middle" x="536" y="-208" font-family="Helvetica,sans-Serif" font-size="10.00">NoticesToastDanger</text>
<polyline fill="none" stroke="black" points="458.5,-201 613.5,-201 "/>
<text text-anchor="middle" x="536" y="-189" font-family="Helvetica,sans-Serif" font-size="10.00"> </text>
<polyline fill="none" stroke="black" points="458.5,-182 613.5,-182 "/>
<text text-anchor="start" x="466.5" y="-170" font-family="Helvetica,sans-Serif" font-size="10.00">+ hcNoticesToastDanger()</text>
</a>
</g>
</g>
<!-- Node10&#45;&gt;Node2 -->
<g id="edge8" class="edge"><title>Node10&#45;&gt;Node2</title>
<path fill="none" stroke="#404040" d="M480.704,-162.91C467.735,-155.287 453.928,-147.282 441,-140 413.459,-124.488 383.181,-108.016 355.759,-93.3138"/>
<polygon fill="none" stroke="#404040" points="355.583,-93.2199 348.406,-93.9162 345.002,-87.5587 352.18,-86.8624 355.583,-93.2199"/>
<text text-anchor="middle" x="465.5" y="-113.5" font-family="Helvetica,sans-Serif" font-size="10.00"> +myNoticesToastDanger</text>
</g>
<!-- Node11 -->
<g id="node10" class="node"><title>Node11</title>
<polygon fill="white" stroke="#bfbfbf" points="488,-312.5 488,-369.5 592,-369.5 592,-312.5 488,-312.5"/>
<text text-anchor="middle" x="540" y="-357.5" font-family="Helvetica,sans-Serif" font-size="10.00">SeAnyChildWindow</text>
<polyline fill="none" stroke="#bfbfbf" points="488,-350.5 592,-350.5 "/>
<text text-anchor="middle" x="540" y="-338.5" font-family="Helvetica,sans-Serif" font-size="10.00"> </text>
<polyline fill="none" stroke="#bfbfbf" points="488,-331.5 592,-331.5 "/>
<text text-anchor="middle" x="540" y="-319.5" font-family="Helvetica,sans-Serif" font-size="10.00"> </text>
</g>
<!-- Node11&#45;&gt;Node10 -->
<g id="edge9" class="edge"><title>Node11&#45;&gt;Node10</title>
<path fill="none" stroke="midnightblue" d="M538.936,-302.236C538.313,-280.107 537.533,-252.414 536.933,-231.136"/>
<polygon fill="none" stroke="midnightblue" points="535.439,-302.386 539.219,-312.284 542.436,-302.189 535.439,-302.386"/>
</g>
</g>
</svg>
