<?xml version="1.0" encoding="UTF-8" standalone="no"?>
<!DOCTYPE svg PUBLIC "-//W3C//DTD SVG 1.1//EN"
 "http://www.w3.org/Graphics/SVG/1.1/DTD/svg11.dtd">
<!-- Generated by graphviz version 2.36.0 (20140111.2315)
 -->
<!-- Title: okw.gui.frames.hc.hcWelcome Pages: 1 -->
<svg width="253pt" height="346pt"
 viewBox="0.00 0.00 253.00 346.00" xmlns="http://www.w3.org/2000/svg" xmlns:xlink="http://www.w3.org/1999/xlink">
<g id="graph0" class="graph" transform="scale(1 1) rotate(0) translate(4 342)">
<title>okw.gui.frames.hc.hcWelcome</title>
<polygon fill="white" stroke="none" points="-4,4 -4,-342 249,-342 249,4 -4,4"/>
<!-- Node2 -->
<g id="node1" class="node"><title>Node2</title>
<polygon fill="#bfbfbf" stroke="black" points="8,-0.5 8,-57.5 160,-57.5 160,-0.5 8,-0.5"/>
<text text-anchor="middle" x="84" y="-45.5" font-family="Helvetica,sans-Serif" font-size="10.00">okw.gui.frames.hc.hcWelcome</text>
<polyline fill="none" stroke="black" points="8,-38.5 160,-38.5 "/>
<text text-anchor="middle" x="84" y="-26.5" font-family="Helvetica,sans-Serif" font-size="10.00"> </text>
<polyline fill="none" stroke="black" points="8,-19.5 160,-19.5 "/>
<text text-anchor="start" x="16" y="-7.5" font-family="Helvetica,sans-Serif" font-size="10.00">+ hcWelcome()</text>
</g>
<!-- Node3 -->
<g id="node2" class="node"><title>Node3</title>
<polygon fill="white" stroke="#bfbfbf" points="-0.5,-145.5 -0.5,-202.5 86.5,-202.5 86.5,-145.5 -0.5,-145.5"/>
<text text-anchor="middle" x="43" y="-190.5" font-family="Helvetica,sans-Serif" font-size="10.00">SeBrowserChild</text>
<polyline fill="none" stroke="#bfbfbf" points="-0.5,-183.5 86.5,-183.5 "/>
<text text-anchor="middle" x="43" y="-171.5" font-family="Helvetica,sans-Serif" font-size="10.00"> </text>
<polyline fill="none" stroke="#bfbfbf" points="-0.5,-164.5 86.5,-164.5 "/>
<text text-anchor="middle" x="43" y="-152.5" font-family="Helvetica,sans-Serif" font-size="10.00"> </text>
</g>
<!-- Node3&#45;&gt;Node2 -->
<g id="edge1" class="edge"><title>Node3&#45;&gt;Node2</title>
<path fill="none" stroke="midnightblue" d="M53.6632,-135.809C60.6393,-111.477 69.6074,-80.1986 75.9792,-57.9751"/>
<polygon fill="none" stroke="midnightblue" points="50.2969,-134.851 50.9052,-145.428 57.0258,-136.78 50.2969,-134.851"/>
</g>
<!-- Node4 -->
<g id="node3" class="node"><title>Node4</title>
<g id="a_node3"><a xlink:href="classokw_1_1gui_1_1container_1_1hc_1_1hc_main_navigation.html" target="_top" xlink:title="main navigation GUI&#45;Container Klasse enthält alle GUI&#45;Objekte der Kopfzeile (Header). ">
<polygon fill="white" stroke="black" points="104.5,-107 104.5,-241 245.5,-241 245.5,-107 104.5,-107"/>
<text text-anchor="start" x="112.5" y="-229" font-family="Helvetica,sans-Serif" font-size="10.00">okw.gui.container.hc.hcMain</text>
<text text-anchor="middle" x="175" y="-218" font-family="Helvetica,sans-Serif" font-size="10.00">Navigation</text>
<polyline fill="none" stroke="black" points="104.5,-211 245.5,-211 "/>
<text text-anchor="start" x="112.5" y="-199" font-family="Helvetica,sans-Serif" font-size="10.00">+ navbarBrand</text>
<text text-anchor="start" x="112.5" y="-188" font-family="Helvetica,sans-Serif" font-size="10.00">+ navBarSearch</text>
<text text-anchor="start" x="112.5" y="-177" font-family="Helvetica,sans-Serif" font-size="10.00">+ navBarFilter</text>
<text text-anchor="start" x="112.5" y="-166" font-family="Helvetica,sans-Serif" font-size="10.00">+ navBarLanguage</text>
<text text-anchor="start" x="112.5" y="-155" font-family="Helvetica,sans-Serif" font-size="10.00">+ navBarNotifications</text>
<text text-anchor="start" x="112.5" y="-144" font-family="Helvetica,sans-Serif" font-size="10.00">+ navbarUserMenu</text>
<text text-anchor="start" x="112.5" y="-133" font-family="Helvetica,sans-Serif" font-size="10.00">+ Login</text>
<polyline fill="none" stroke="black" points="104.5,-126 245.5,-126 "/>
<text text-anchor="start" x="112.5" y="-114" font-family="Helvetica,sans-Serif" font-size="10.00">+ hcMainNavigation()</text>
</a>
</g>
</g>
<!-- Node4&#45;&gt;Node2 -->
<g id="edge2" class="edge"><title>Node4&#45;&gt;Node2</title>
<path fill="none" stroke="#404040" d="M132.963,-106.942C124.477,-93.6067 115.83,-80.0179 108.21,-68.0449"/>
<polygon fill="none" stroke="#404040" points="107.979,-67.6812 101.383,-64.7668 101.536,-57.5573 108.132,-60.4717 107.979,-67.6812"/>
<text text-anchor="middle" x="145.5" y="-79.5" font-family="Helvetica,sans-Serif" font-size="10.00"> +myHeader</text>
</g>
<!-- Node5 -->
<g id="node4" class="node"><title>Node5</title>
<polygon fill="white" stroke="#bfbfbf" points="123,-280.5 123,-337.5 227,-337.5 227,-280.5 123,-280.5"/>
<text text-anchor="middle" x="175" y="-325.5" font-family="Helvetica,sans-Serif" font-size="10.00">SeAnyChildWindow</text>
<polyline fill="none" stroke="#bfbfbf" points="123,-318.5 227,-318.5 "/>
<text text-anchor="middle" x="175" y="-306.5" font-family="Helvetica,sans-Serif" font-size="10.00"> </text>
<polyline fill="none" stroke="#bfbfbf" points="123,-299.5 227,-299.5 "/>
<text text-anchor="middle" x="175" y="-287.5" font-family="Helvetica,sans-Serif" font-size="10.00"> </text>
</g>
<!-- Node5&#45;&gt;Node4 -->
<g id="edge3" class="edge"><title>Node5&#45;&gt;Node4</title>
<path fill="none" stroke="midnightblue" d="M175,-270.234C175,-261.145 175,-251.17 175,-241.203"/>
<polygon fill="none" stroke="midnightblue" points="171.5,-270.442 175,-280.442 178.5,-270.442 171.5,-270.442"/>
</g>
</g>
</svg>
