<?xml version="1.0" encoding="UTF-8" standalone="no"?>
<!DOCTYPE svg PUBLIC "-//W3C//DTD SVG 1.1//EN"
 "http://www.w3.org/Graphics/SVG/1.1/DTD/svg11.dtd">
<!-- Generated by graphviz version 2.36.0 (20140111.2315)
 -->
<!-- Title: okw.gui.frames.hc.hcLogin Pages: 1 -->
<svg width="458pt" height="334pt"
 viewBox="0.00 0.00 458.00 334.00" xmlns="http://www.w3.org/2000/svg" xmlns:xlink="http://www.w3.org/1999/xlink">
<g id="graph0" class="graph" transform="scale(1 1) rotate(0) translate(4 330)">
<title>okw.gui.frames.hc.hcLogin</title>
<polygon fill="white" stroke="none" points="-4,4 -4,-330 454,-330 454,4 -4,4"/>
<!-- Node2 -->
<g id="node1" class="node"><title>Node2</title>
<polygon fill="#bfbfbf" stroke="black" points="115,-0.5 115,-79.5 249,-79.5 249,-0.5 115,-0.5"/>
<text text-anchor="middle" x="182" y="-67.5" font-family="Helvetica,sans-Serif" font-size="10.00">okw.gui.frames.hc.hcLogin</text>
<polyline fill="none" stroke="black" points="115,-60.5 249,-60.5 "/>
<text text-anchor="start" x="123" y="-48.5" font-family="Helvetica,sans-Serif" font-size="10.00">+ User</text>
<text text-anchor="start" x="123" y="-37.5" font-family="Helvetica,sans-Serif" font-size="10.00">+ Password</text>
<polyline fill="none" stroke="black" points="115,-30.5 249,-30.5 "/>
<text text-anchor="start" x="123" y="-18.5" font-family="Helvetica,sans-Serif" font-size="10.00">+ hcLogin()</text>
<text text-anchor="start" x="123" y="-7.5" font-family="Helvetica,sans-Serif" font-size="10.00">+ Sequens_Login()</text>
</g>
<!-- Node3 -->
<g id="node2" class="node"><title>Node3</title>
<polygon fill="white" stroke="#bfbfbf" points="-0.5,-155.5 -0.5,-212.5 86.5,-212.5 86.5,-155.5 -0.5,-155.5"/>
<text text-anchor="middle" x="43" y="-200.5" font-family="Helvetica,sans-Serif" font-size="10.00">SeBrowserChild</text>
<polyline fill="none" stroke="#bfbfbf" points="-0.5,-193.5 86.5,-193.5 "/>
<text text-anchor="middle" x="43" y="-181.5" font-family="Helvetica,sans-Serif" font-size="10.00"> </text>
<polyline fill="none" stroke="#bfbfbf" points="-0.5,-174.5 86.5,-174.5 "/>
<text text-anchor="middle" x="43" y="-162.5" font-family="Helvetica,sans-Serif" font-size="10.00"> </text>
</g>
<!-- Node3&#45;&gt;Node2 -->
<g id="edge1" class="edge"><title>Node3&#45;&gt;Node2</title>
<path fill="none" stroke="midnightblue" d="M77.3355,-147.923C97.6091,-127.212 123.303,-100.964 144.159,-79.6578"/>
<polygon fill="none" stroke="midnightblue" points="74.6246,-145.689 70.1306,-155.284 79.6269,-150.586 74.6246,-145.689"/>
</g>
<!-- Node4 -->
<g id="node3" class="node"><title>Node4</title>
<g id="a_node3"><a xlink:href="classokw_1_1gui_1_1adapter_1_1selenium_1_1hc_1_1hc_button.html" target="_top" xlink:title="{okw.gui.adapter.selenium.hc.hc\lButton\n||+ hcButton()\l+ hcButton()\l+ getCaption()\l}">
<polygon fill="white" stroke="black" points="104.5,-139 104.5,-229 259.5,-229 259.5,-139 104.5,-139"/>
<text text-anchor="start" x="112.5" y="-217" font-family="Helvetica,sans-Serif" font-size="10.00">okw.gui.adapter.selenium.hc.hc</text>
<text text-anchor="middle" x="182" y="-206" font-family="Helvetica,sans-Serif" font-size="10.00">Button</text>
<polyline fill="none" stroke="black" points="104.5,-199 259.5,-199 "/>
<text text-anchor="middle" x="182" y="-187" font-family="Helvetica,sans-Serif" font-size="10.00"> </text>
<polyline fill="none" stroke="black" points="104.5,-180 259.5,-180 "/>
<text text-anchor="start" x="112.5" y="-168" font-family="Helvetica,sans-Serif" font-size="10.00">+ hcButton()</text>
<text text-anchor="start" x="112.5" y="-157" font-family="Helvetica,sans-Serif" font-size="10.00">+ hcButton()</text>
<text text-anchor="start" x="112.5" y="-146" font-family="Helvetica,sans-Serif" font-size="10.00">+ getCaption()</text>
</a>
</g>
</g>
<!-- Node4&#45;&gt;Node2 -->
<g id="edge2" class="edge"><title>Node4&#45;&gt;Node2</title>
<path fill="none" stroke="#404040" d="M182,-138.849C182,-124.092 182,-107.521 182,-92.2696"/>
<polygon fill="none" stroke="#404040" points="182,-91.8373 178,-85.8374 182,-79.8373 186,-85.8373 182,-91.8373"/>
<text text-anchor="middle" x="230.5" y="-112" font-family="Helvetica,sans-Serif" font-size="10.00"> +PasswortVergessen</text>
<text text-anchor="middle" x="230.5" y="-101" font-family="Helvetica,sans-Serif" font-size="10.00">+Login</text>
</g>
<!-- Node5 -->
<g id="node4" class="node"><title>Node5</title>
<polygon fill="white" stroke="#bfbfbf" points="263.5,-268.5 263.5,-325.5 320.5,-325.5 320.5,-268.5 263.5,-268.5"/>
<text text-anchor="middle" x="292" y="-313.5" font-family="Helvetica,sans-Serif" font-size="10.00">SeButton</text>
<polyline fill="none" stroke="#bfbfbf" points="263.5,-306.5 320.5,-306.5 "/>
<text text-anchor="middle" x="292" y="-294.5" font-family="Helvetica,sans-Serif" font-size="10.00"> </text>
<polyline fill="none" stroke="#bfbfbf" points="263.5,-287.5 320.5,-287.5 "/>
<text text-anchor="middle" x="292" y="-275.5" font-family="Helvetica,sans-Serif" font-size="10.00"> </text>
</g>
<!-- Node5&#45;&gt;Node4 -->
<g id="edge3" class="edge"><title>Node5&#45;&gt;Node4</title>
<path fill="none" stroke="midnightblue" d="M257.432,-261.118C247.401,-250.996 236.313,-239.807 225.796,-229.194"/>
<polygon fill="none" stroke="midnightblue" points="255.001,-263.637 264.526,-268.276 259.973,-258.71 255.001,-263.637"/>
</g>
<!-- Node6 -->
<g id="node5" class="node"><title>Node6</title>
<g id="a_node5"><a xlink:href="classokw_1_1gui_1_1adapter_1_1selenium_1_1hc_1_1hc_link.html" target="_top" xlink:title="{okw.gui.adapter.selenium.hc.hcLink\n||+ hcLink()\l+ hcLink()\l+ getCaption()\l}">
<polygon fill="white" stroke="black" points="277.5,-144.5 277.5,-223.5 450.5,-223.5 450.5,-144.5 277.5,-144.5"/>
<text text-anchor="middle" x="364" y="-211.5" font-family="Helvetica,sans-Serif" font-size="10.00">okw.gui.adapter.selenium.hc.hcLink</text>
<polyline fill="none" stroke="black" points="277.5,-204.5 450.5,-204.5 "/>
<text text-anchor="middle" x="364" y="-192.5" font-family="Helvetica,sans-Serif" font-size="10.00"> </text>
<polyline fill="none" stroke="black" points="277.5,-185.5 450.5,-185.5 "/>
<text text-anchor="start" x="285.5" y="-173.5" font-family="Helvetica,sans-Serif" font-size="10.00">+ hcLink()</text>
<text text-anchor="start" x="285.5" y="-162.5" font-family="Helvetica,sans-Serif" font-size="10.00">+ hcLink()</text>
<text text-anchor="start" x="285.5" y="-151.5" font-family="Helvetica,sans-Serif" font-size="10.00">+ getCaption()</text>
</a>
</g>
</g>
<!-- Node5&#45;&gt;Node6 -->
<g id="edge5" class="edge"><title>Node5&#45;&gt;Node6</title>
<path fill="none" stroke="midnightblue" d="M315.524,-259.733C323.014,-248.188 331.325,-235.374 338.92,-223.665"/>
<polygon fill="none" stroke="midnightblue" points="312.488,-257.982 309.983,-268.276 318.361,-261.791 312.488,-257.982"/>
</g>
<!-- Node6&#45;&gt;Node2 -->
<g id="edge4" class="edge"><title>Node6&#45;&gt;Node2</title>
<path fill="none" stroke="#404040" d="M331.501,-144.183C317.5,-128.768 300.37,-111.526 283,-98 275.684,-92.3026 267.731,-86.8104 259.608,-81.6339"/>
<polygon fill="none" stroke="#404040" points="259.477,-81.5529 252.27,-81.8083 249.262,-75.2542 256.469,-74.9988 259.477,-81.5529"/>
<text text-anchor="middle" x="347" y="-106.5" font-family="Helvetica,sans-Serif" font-size="10.00"> +NochKeinKonto</text>
</g>
</g>
</svg>
