<?xml version="1.0" encoding="UTF-8" standalone="no"?>
<!DOCTYPE svg PUBLIC "-//W3C//DTD SVG 1.1//EN"
 "http://www.w3.org/Graphics/SVG/1.1/DTD/svg11.dtd">
<!-- Generated by graphviz version 2.36.0 (20140111.2315)
 -->
<!-- Title: okw.gui.frames.hc.hcWelcome Pages: 1 -->
<svg width="255pt" height="280pt"
 viewBox="0.00 0.00 255.00 280.00" xmlns="http://www.w3.org/2000/svg" xmlns:xlink="http://www.w3.org/1999/xlink">
<g id="graph0" class="graph" transform="scale(1 1) rotate(0) translate(4 276)">
<title>okw.gui.frames.hc.hcWelcome</title>
<polygon fill="white" stroke="none" points="-4,4 -4,-276 251,-276 251,4 -4,4"/>
<!-- Node2 -->
<g id="node1" class="node"><title>Node2</title>
<polygon fill="#bfbfbf" stroke="black" points="8,-0.5 8,-57.5 160,-57.5 160,-0.5 8,-0.5"/>
<text text-anchor="middle" x="84" y="-45.5" font-family="Helvetica,sans-Serif" font-size="10.00">okw.gui.frames.hc.hcWelcome</text>
<polyline fill="none" stroke="black" points="8,-38.5 160,-38.5 "/>
<text text-anchor="middle" x="84" y="-26.5" font-family="Helvetica,sans-Serif" font-size="10.00"> </text>
<polyline fill="none" stroke="black" points="8,-19.5 160,-19.5 "/>
<text text-anchor="start" x="16" y="-7.5" font-family="Helvetica,sans-Serif" font-size="10.00">+ hcWelcome()</text>
</g>
<!-- Node3 -->
<g id="node2" class="node"><title>Node3</title>
<polygon fill="white" stroke="#bfbfbf" points="-0.5,-112.5 -0.5,-169.5 86.5,-169.5 86.5,-112.5 -0.5,-112.5"/>
<text text-anchor="middle" x="43" y="-157.5" font-family="Helvetica,sans-Serif" font-size="10.00">SeBrowserChild</text>
<polyline fill="none" stroke="#bfbfbf" points="-0.5,-150.5 86.5,-150.5 "/>
<text text-anchor="middle" x="43" y="-138.5" font-family="Helvetica,sans-Serif" font-size="10.00"> </text>
<polyline fill="none" stroke="#bfbfbf" points="-0.5,-131.5 86.5,-131.5 "/>
<text text-anchor="middle" x="43" y="-119.5" font-family="Helvetica,sans-Serif" font-size="10.00"> </text>
</g>
<!-- Node3&#45;&gt;Node2 -->
<g id="edge1" class="edge"><title>Node3&#45;&gt;Node2</title>
<path fill="none" stroke="midnightblue" d="M56.9959,-102.45C62.4582,-87.7951 68.6078,-71.2961 73.6573,-57.7488"/>
<polygon fill="none" stroke="midnightblue" points="53.5591,-101.65 53.346,-112.242 60.1182,-104.094 53.5591,-101.65"/>
</g>
<!-- Node4 -->
<g id="node3" class="node"><title>Node4</title>
<g id="a_node3"><a xlink:href="classokw_1_1gui_1_1container_1_1hc_1_1hc_head.html" target="_top" xlink:title="GUI&#45;Klasse enthält alle GUI&#45;Objekte der Kopfzeile (Header). ">
<polygon fill="white" stroke="black" points="104.5,-107 104.5,-175 247.5,-175 247.5,-107 104.5,-107"/>
<text text-anchor="middle" x="176" y="-163" font-family="Helvetica,sans-Serif" font-size="10.00">okw.gui.container.hc.hcHead</text>
<polyline fill="none" stroke="black" points="104.5,-156 247.5,-156 "/>
<text text-anchor="start" x="112.5" y="-144" font-family="Helvetica,sans-Serif" font-size="10.00">+ Search</text>
<text text-anchor="start" x="112.5" y="-133" font-family="Helvetica,sans-Serif" font-size="10.00">+ Login</text>
<polyline fill="none" stroke="black" points="104.5,-126 247.5,-126 "/>
<text text-anchor="start" x="112.5" y="-114" font-family="Helvetica,sans-Serif" font-size="10.00">+ hcHead()</text>
</a>
</g>
</g>
<!-- Node4&#45;&gt;Node2 -->
<g id="edge2" class="edge"><title>Node4&#45;&gt;Node2</title>
<path fill="none" stroke="#404040" d="M148.397,-106.996C137.937,-94.49 125.958,-80.1668 115.19,-67.2927"/>
<polygon fill="none" stroke="#404040" points="114.936,-66.9892 108.019,-64.953 107.238,-57.7843 114.155,-59.8205 114.936,-66.9892"/>
<text text-anchor="middle" x="157.5" y="-79.5" font-family="Helvetica,sans-Serif" font-size="10.00"> +myHeader</text>
</g>
<!-- Node5 -->
<g id="node4" class="node"><title>Node5</title>
<polygon fill="white" stroke="#bfbfbf" points="124,-214.5 124,-271.5 228,-271.5 228,-214.5 124,-214.5"/>
<text text-anchor="middle" x="176" y="-259.5" font-family="Helvetica,sans-Serif" font-size="10.00">SeAnyChildWindow</text>
<polyline fill="none" stroke="#bfbfbf" points="124,-252.5 228,-252.5 "/>
<text text-anchor="middle" x="176" y="-240.5" font-family="Helvetica,sans-Serif" font-size="10.00"> </text>
<polyline fill="none" stroke="#bfbfbf" points="124,-233.5 228,-233.5 "/>
<text text-anchor="middle" x="176" y="-221.5" font-family="Helvetica,sans-Serif" font-size="10.00"> </text>
</g>
<!-- Node5&#45;&gt;Node4 -->
<g id="edge3" class="edge"><title>Node5&#45;&gt;Node4</title>
<path fill="none" stroke="midnightblue" d="M176,-204.337C176,-194.755 176,-184.528 176,-175.187"/>
<polygon fill="none" stroke="midnightblue" points="172.5,-204.41 176,-214.41 179.5,-204.41 172.5,-204.41"/>
</g>
</g>
</svg>
