<?xml version="1.0" encoding="UTF-8" standalone="no"?>
<!DOCTYPE svg PUBLIC "-//W3C//DTD SVG 1.1//EN"
 "http://www.w3.org/Graphics/SVG/1.1/DTD/svg11.dtd">
<!-- Generated by graphviz version 2.36.0 (20140111.2315)
 -->
<!-- Title: okw.gui.frames.hc.hcWelcome Pages: 1 -->
<svg width="253pt" height="324pt"
 viewBox="0.00 0.00 253.00 324.00" xmlns="http://www.w3.org/2000/svg" xmlns:xlink="http://www.w3.org/1999/xlink">
<g id="graph0" class="graph" transform="scale(1 1) rotate(0) translate(4 320)">
<title>okw.gui.frames.hc.hcWelcome</title>
<polygon fill="white" stroke="none" points="-4,4 -4,-320 249,-320 249,4 -4,4"/>
<!-- Node2 -->
<g id="node1" class="node"><title>Node2</title>
<polygon fill="#bfbfbf" stroke="black" points="8,-0.5 8,-57.5 160,-57.5 160,-0.5 8,-0.5"/>
<text text-anchor="middle" x="84" y="-45.5" font-family="Helvetica,sans-Serif" font-size="10.00">okw.gui.frames.hc.hcWelcome</text>
<polyline fill="none" stroke="black" points="8,-38.5 160,-38.5 "/>
<text text-anchor="middle" x="84" y="-26.5" font-family="Helvetica,sans-Serif" font-size="10.00"> </text>
<polyline fill="none" stroke="black" points="8,-19.5 160,-19.5 "/>
<text text-anchor="start" x="16" y="-7.5" font-family="Helvetica,sans-Serif" font-size="10.00">+ hcWelcome()</text>
</g>
<!-- Node3 -->
<g id="node2" class="node"><title>Node3</title>
<polygon fill="white" stroke="#bfbfbf" points="-0.5,-134.5 -0.5,-191.5 86.5,-191.5 86.5,-134.5 -0.5,-134.5"/>
<text text-anchor="middle" x="43" y="-179.5" font-family="Helvetica,sans-Serif" font-size="10.00">SeBrowserChild</text>
<polyline fill="none" stroke="#bfbfbf" points="-0.5,-172.5 86.5,-172.5 "/>
<text text-anchor="middle" x="43" y="-160.5" font-family="Helvetica,sans-Serif" font-size="10.00"> </text>
<polyline fill="none" stroke="#bfbfbf" points="-0.5,-153.5 86.5,-153.5 "/>
<text text-anchor="middle" x="43" y="-141.5" font-family="Helvetica,sans-Serif" font-size="10.00"> </text>
</g>
<!-- Node3&#45;&gt;Node2 -->
<g id="edge1" class="edge"><title>Node3&#45;&gt;Node2</title>
<path fill="none" stroke="midnightblue" d="M54.6093,-124.624C61.2272,-103.317 69.3782,-77.075 75.4164,-57.6351"/>
<polygon fill="none" stroke="midnightblue" points="51.2188,-123.74 51.5949,-134.328 57.9038,-125.817 51.2188,-123.74"/>
</g>
<!-- Node4 -->
<g id="node3" class="node"><title>Node4</title>
<g id="a_node3"><a xlink:href="classokw_1_1gui_1_1container_1_1hc_1_1hc_main_navigation.html" target="_top" xlink:title="main navigation GUI&#45;Container Klasse enthält alle GUI&#45;Objekte der Kopfzeile (Header). ">
<polygon fill="white" stroke="black" points="104.5,-107 104.5,-219 245.5,-219 245.5,-107 104.5,-107"/>
<text text-anchor="start" x="112.5" y="-207" font-family="Helvetica,sans-Serif" font-size="10.00">okw.gui.container.hc.hcMain</text>
<text text-anchor="middle" x="175" y="-196" font-family="Helvetica,sans-Serif" font-size="10.00">Navigation</text>
<polyline fill="none" stroke="black" points="104.5,-189 245.5,-189 "/>
<text text-anchor="start" x="112.5" y="-177" font-family="Helvetica,sans-Serif" font-size="10.00">+ Search</text>
<text text-anchor="start" x="112.5" y="-166" font-family="Helvetica,sans-Serif" font-size="10.00">+ navBarFilter</text>
<text text-anchor="start" x="112.5" y="-155" font-family="Helvetica,sans-Serif" font-size="10.00">+ navBarLanguage</text>
<text text-anchor="start" x="112.5" y="-144" font-family="Helvetica,sans-Serif" font-size="10.00">+ navBarNotification</text>
<text text-anchor="start" x="112.5" y="-133" font-family="Helvetica,sans-Serif" font-size="10.00">+ Login</text>
<polyline fill="none" stroke="black" points="104.5,-126 245.5,-126 "/>
<text text-anchor="start" x="112.5" y="-114" font-family="Helvetica,sans-Serif" font-size="10.00">+ hcMainNavigation()</text>
</a>
</g>
</g>
<!-- Node4&#45;&gt;Node2 -->
<g id="edge2" class="edge"><title>Node4&#45;&gt;Node2</title>
<path fill="none" stroke="#404040" d="M136.935,-106.785C127.894,-93.671 118.451,-79.9733 110.086,-67.8387"/>
<polygon fill="none" stroke="#404040" points="109.86,-67.5111 103.161,-64.8416 103.049,-57.6313 109.748,-60.3009 109.86,-67.5111"/>
<text text-anchor="middle" x="148.5" y="-79.5" font-family="Helvetica,sans-Serif" font-size="10.00"> +myHeader</text>
</g>
<!-- Node5 -->
<g id="node4" class="node"><title>Node5</title>
<polygon fill="white" stroke="#bfbfbf" points="123,-258.5 123,-315.5 227,-315.5 227,-258.5 123,-258.5"/>
<text text-anchor="middle" x="175" y="-303.5" font-family="Helvetica,sans-Serif" font-size="10.00">SeAnyChildWindow</text>
<polyline fill="none" stroke="#bfbfbf" points="123,-296.5 227,-296.5 "/>
<text text-anchor="middle" x="175" y="-284.5" font-family="Helvetica,sans-Serif" font-size="10.00"> </text>
<polyline fill="none" stroke="#bfbfbf" points="123,-277.5 227,-277.5 "/>
<text text-anchor="middle" x="175" y="-265.5" font-family="Helvetica,sans-Serif" font-size="10.00"> </text>
</g>
<!-- Node5&#45;&gt;Node4 -->
<g id="edge3" class="edge"><title>Node5&#45;&gt;Node4</title>
<path fill="none" stroke="midnightblue" d="M175,-248.273C175,-239.01 175,-228.906 175,-219.013"/>
<polygon fill="none" stroke="midnightblue" points="171.5,-248.316 175,-258.316 178.5,-248.316 171.5,-248.316"/>
</g>
</g>
</svg>
