<?xml version="1.0" encoding="UTF-8" standalone="no"?>
<!DOCTYPE svg PUBLIC "-//W3C//DTD SVG 1.1//EN"
 "http://www.w3.org/Graphics/SVG/1.1/DTD/svg11.dtd">
<!-- Generated by graphviz version 2.36.0 (20140111.2315)
 -->
<!-- Title: okw.gui.adapter.selenium.hc.hcLanguageSwitch Pages: 1 -->
<svg width="220pt" height="238pt"
 viewBox="0.00 0.00 220.00 238.00" xmlns="http://www.w3.org/2000/svg" xmlns:xlink="http://www.w3.org/1999/xlink">
<g id="graph0" class="graph" transform="scale(1 1) rotate(0) translate(4 234)">
<title>okw.gui.adapter.selenium.hc.hcLanguageSwitch</title>
<polygon fill="white" stroke="none" points="-4,4 -4,-234 216,-234 216,4 -4,4"/>
<!-- Node2 -->
<g id="node1" class="node"><title>Node2</title>
<polygon fill="#bfbfbf" stroke="black" points="15.5,-1 15.5,-113 170.5,-113 170.5,-1 15.5,-1"/>
<text text-anchor="start" x="23.5" y="-101" font-family="Helvetica,sans-Serif" font-size="10.00">okw.gui.adapter.selenium.hc.hc</text>
<text text-anchor="middle" x="93" y="-90" font-family="Helvetica,sans-Serif" font-size="10.00">LanguageSwitch</text>
<polyline fill="none" stroke="black" points="15.5,-83 170.5,-83 "/>
<text text-anchor="middle" x="93" y="-71" font-family="Helvetica,sans-Serif" font-size="10.00"> </text>
<polyline fill="none" stroke="black" points="15.5,-64 170.5,-64 "/>
<text text-anchor="start" x="23.5" y="-52" font-family="Helvetica,sans-Serif" font-size="10.00">+ hcLanguageSwitch()</text>
<text text-anchor="start" x="23.5" y="-41" font-family="Helvetica,sans-Serif" font-size="10.00">+ hcLanguageSwitch()</text>
<text text-anchor="start" x="23.5" y="-30" font-family="Helvetica,sans-Serif" font-size="10.00">+ Select()</text>
<text text-anchor="start" x="23.5" y="-19" font-family="Helvetica,sans-Serif" font-size="10.00">+ getTooltip()</text>
<text text-anchor="start" x="23.5" y="-8" font-family="Helvetica,sans-Serif" font-size="10.00">+ getValue()</text>
</g>
<!-- Node3 -->
<g id="node2" class="node"><title>Node3</title>
<polygon fill="white" stroke="#bfbfbf" points="-0.5,-172.5 -0.5,-229.5 46.5,-229.5 46.5,-172.5 -0.5,-172.5"/>
<text text-anchor="middle" x="23" y="-217.5" font-family="Helvetica,sans-Serif" font-size="10.00">SeLink</text>
<polyline fill="none" stroke="#bfbfbf" points="-0.5,-210.5 46.5,-210.5 "/>
<text text-anchor="middle" x="23" y="-198.5" font-family="Helvetica,sans-Serif" font-size="10.00"> </text>
<polyline fill="none" stroke="#bfbfbf" points="-0.5,-191.5 46.5,-191.5 "/>
<text text-anchor="middle" x="23" y="-179.5" font-family="Helvetica,sans-Serif" font-size="10.00"> </text>
</g>
<!-- Node3&#45;&gt;Node2 -->
<g id="edge1" class="edge"><title>Node3&#45;&gt;Node2</title>
<path fill="none" stroke="midnightblue" d="M41.1406,-163.2C48.6421,-147.983 57.5012,-130.012 65.7545,-113.269"/>
<polygon fill="none" stroke="midnightblue" points="37.9452,-161.767 36.6629,-172.284 44.2238,-164.862 37.9452,-161.767"/>
</g>
<!-- Node4 -->
<g id="node3" class="node"><title>Node4</title>
<polygon fill="white" stroke="#bfbfbf" points="65,-172.5 65,-229.5 121,-229.5 121,-172.5 65,-172.5"/>
<text text-anchor="middle" x="93" y="-217.5" font-family="Helvetica,sans-Serif" font-size="10.00">SeImage</text>
<polyline fill="none" stroke="#bfbfbf" points="65,-210.5 121,-210.5 "/>
<text text-anchor="middle" x="93" y="-198.5" font-family="Helvetica,sans-Serif" font-size="10.00"> </text>
<polyline fill="none" stroke="#bfbfbf" points="65,-191.5 121,-191.5 "/>
<text text-anchor="middle" x="93" y="-179.5" font-family="Helvetica,sans-Serif" font-size="10.00"> </text>
</g>
<!-- Node4&#45;&gt;Node2 -->
<g id="edge2" class="edge"><title>Node4&#45;&gt;Node2</title>
<path fill="none" stroke="#404040" d="M93,-172.284C93,-158.906 93,-142.212 93,-125.752"/>
<polygon fill="none" stroke="#404040" points="93.0001,-125.269 89,-119.269 93,-113.269 97,-119.269 93.0001,-125.269"/>
<text text-anchor="middle" x="115" y="-146" font-family="Helvetica,sans-Serif" font-size="10.00"> ~Flag</text>
<text text-anchor="middle" x="115" y="-135" font-family="Helvetica,sans-Serif" font-size="10.00">~FlagTitle</text>
</g>
<!-- Node5 -->
<g id="node4" class="node"><title>Node5</title>
<polygon fill="white" stroke="#bfbfbf" points="139.5,-172.5 139.5,-229.5 212.5,-229.5 212.5,-172.5 139.5,-172.5"/>
<text text-anchor="middle" x="176" y="-217.5" font-family="Helvetica,sans-Serif" font-size="10.00">OKWLocator</text>
<polyline fill="none" stroke="#bfbfbf" points="139.5,-210.5 212.5,-210.5 "/>
<text text-anchor="middle" x="176" y="-198.5" font-family="Helvetica,sans-Serif" font-size="10.00"> </text>
<polyline fill="none" stroke="#bfbfbf" points="139.5,-191.5 212.5,-191.5 "/>
<text text-anchor="middle" x="176" y="-179.5" font-family="Helvetica,sans-Serif" font-size="10.00"> </text>
</g>
<!-- Node5&#45;&gt;Node2 -->
<g id="edge3" class="edge"><title>Node5&#45;&gt;Node2</title>
<path fill="none" stroke="#404040" d="M162.482,-172.201C156.226,-159.75 148.525,-144.98 141,-132 139.454,-129.334 137.855,-126.63 136.22,-123.91"/>
<polygon fill="none" stroke="#404040" points="136.044,-123.621 129.499,-120.594 129.775,-113.388 136.321,-116.416 136.044,-123.621"/>
<text text-anchor="middle" x="177.5" y="-140.5" font-family="Helvetica,sans-Serif" font-size="10.00"> &#45;Language</text>
</g>
</g>
</svg>
