<?xml version="1.0" encoding="UTF-8" standalone="no"?>
<!DOCTYPE svg PUBLIC "-//W3C//DTD SVG 1.1//EN"
 "http://www.w3.org/Graphics/SVG/1.1/DTD/svg11.dtd">
<!-- Generated by graphviz version 2.36.0 (20140111.2315)
 -->
<!-- Title: okw.gui.adapter.selenium.hc.hcLink Pages: 1 -->
<svg width="180pt" height="182pt"
 viewBox="0.00 0.00 180.00 182.00" xmlns="http://www.w3.org/2000/svg" xmlns:xlink="http://www.w3.org/1999/xlink">
<g id="graph0" class="graph" transform="scale(1 1) rotate(0) translate(4 178)">
<title>okw.gui.adapter.selenium.hc.hcLink</title>
<polygon fill="white" stroke="none" points="-4,4 -4,-178 176,-178 176,4 -4,4"/>
<!-- Node2 -->
<g id="node1" class="node"><title>Node2</title>
<polygon fill="#bfbfbf" stroke="black" points="-0.5,-0.5 -0.5,-79.5 172.5,-79.5 172.5,-0.5 -0.5,-0.5"/>
<text text-anchor="middle" x="86" y="-67.5" font-family="Helvetica,sans-Serif" font-size="10.00">okw.gui.adapter.selenium.hc.hcLink</text>
<polyline fill="none" stroke="black" points="-0.5,-60.5 172.5,-60.5 "/>
<text text-anchor="middle" x="86" y="-48.5" font-family="Helvetica,sans-Serif" font-size="10.00"> </text>
<polyline fill="none" stroke="black" points="-0.5,-41.5 172.5,-41.5 "/>
<text text-anchor="start" x="7.5" y="-29.5" font-family="Helvetica,sans-Serif" font-size="10.00">+ hcLink()</text>
<text text-anchor="start" x="7.5" y="-18.5" font-family="Helvetica,sans-Serif" font-size="10.00">+ hcLink()</text>
<text text-anchor="start" x="7.5" y="-7.5" font-family="Helvetica,sans-Serif" font-size="10.00">+ getCaption()</text>
</g>
<!-- Node3 -->
<g id="node2" class="node"><title>Node3</title>
<polygon fill="white" stroke="#bfbfbf" points="57.5,-116.5 57.5,-173.5 114.5,-173.5 114.5,-116.5 57.5,-116.5"/>
<text text-anchor="middle" x="86" y="-161.5" font-family="Helvetica,sans-Serif" font-size="10.00">SeButton</text>
<polyline fill="none" stroke="#bfbfbf" points="57.5,-154.5 114.5,-154.5 "/>
<text text-anchor="middle" x="86" y="-142.5" font-family="Helvetica,sans-Serif" font-size="10.00"> </text>
<polyline fill="none" stroke="#bfbfbf" points="57.5,-135.5 114.5,-135.5 "/>
<text text-anchor="middle" x="86" y="-123.5" font-family="Helvetica,sans-Serif" font-size="10.00"> </text>
</g>
<!-- Node3&#45;&gt;Node2 -->
<g id="edge1" class="edge"><title>Node3&#45;&gt;Node2</title>
<path fill="none" stroke="midnightblue" d="M86,-106.156C86,-97.4733 86,-88.2318 86,-79.5205"/>
<polygon fill="none" stroke="midnightblue" points="82.5001,-106.398 86,-116.398 89.5001,-106.398 82.5001,-106.398"/>
</g>
</g>
</svg>
