<?xml version="1.0" encoding="UTF-8" standalone="no"?>
<!DOCTYPE svg PUBLIC "-//W3C//DTD SVG 1.1//EN"
 "http://www.w3.org/Graphics/SVG/1.1/DTD/svg11.dtd">
<!-- Generated by graphviz version 2.36.0 (20140111.2315)
 -->
<!-- Title: hc.testcases.hcguicomponent.hcButtonWithCountLabel.hcButtonWithCountLabel_HTMLUnitDriver_Test Pages: 1 -->
<svg width="288pt" height="356pt"
 viewBox="0.00 0.00 288.00 356.00" xmlns="http://www.w3.org/2000/svg" xmlns:xlink="http://www.w3.org/1999/xlink">
<g id="graph0" class="graph" transform="scale(1 1) rotate(0) translate(4 352)">
<title>hc.testcases.hcguicomponent.hcButtonWithCountLabel.hcButtonWithCountLabel_HTMLUnitDriver_Test</title>
<polygon fill="white" stroke="none" points="-4,4 -4,-352 284,-352 284,4 -4,4"/>
<!-- Node2 -->
<g id="node1" class="node"><title>Node2</title>
<polygon fill="#bfbfbf" stroke="black" points="103.5,-1 103.5,-91 280.5,-91 280.5,-1 103.5,-1"/>
<text text-anchor="start" x="111.5" y="-79" font-family="Helvetica,sans-Serif" font-size="10.00">hc.testcases.hcguicomponent.hc</text>
<text text-anchor="start" x="111.5" y="-68" font-family="Helvetica,sans-Serif" font-size="10.00">ButtonWithCountLabel.hcButtonWith</text>
<text text-anchor="middle" x="192" y="-57" font-family="Helvetica,sans-Serif" font-size="10.00">CountLabel_HTMLUnitDriver_Test</text>
<polyline fill="none" stroke="black" points="103.5,-50 280.5,-50 "/>
<text text-anchor="middle" x="192" y="-38" font-family="Helvetica,sans-Serif" font-size="10.00"> </text>
<polyline fill="none" stroke="black" points="103.5,-31 280.5,-31 "/>
<text text-anchor="start" x="111.5" y="-19" font-family="Helvetica,sans-Serif" font-size="10.00">+ setUpBeforeClass()</text>
<text text-anchor="start" x="111.5" y="-8" font-family="Helvetica,sans-Serif" font-size="10.00">+ tearDownAfterClass()</text>
</g>
<!-- Node3 -->
<g id="node2" class="node"><title>Node3</title>
<g id="a_node2"><a xlink:href="classhc_1_1testcases_1_1hcguicomponent_1_1hc_button_with_count_label_1_1hc_button_with_count_label___test.html" target="_top" xlink:title="{hc.testcases.hcguicomponent.hc\lButtonWithCountLabel.hcButtonWith\lCountLabel_Test\n|# ApplicationName\l|+ tcVerifyExists()\l+ tcVerifyLabel()\l+ tcVerifyCaption()\l}">
<polygon fill="white" stroke="black" points="-0.5,-140.5 -0.5,-241.5 176.5,-241.5 176.5,-140.5 -0.5,-140.5"/>
<text text-anchor="start" x="7.5" y="-229.5" font-family="Helvetica,sans-Serif" font-size="10.00">hc.testcases.hcguicomponent.hc</text>
<text text-anchor="start" x="7.5" y="-218.5" font-family="Helvetica,sans-Serif" font-size="10.00">ButtonWithCountLabel.hcButtonWith</text>
<text text-anchor="middle" x="88" y="-207.5" font-family="Helvetica,sans-Serif" font-size="10.00">CountLabel_Test</text>
<polyline fill="none" stroke="black" points="-0.5,-200.5 176.5,-200.5 "/>
<text text-anchor="start" x="7.5" y="-188.5" font-family="Helvetica,sans-Serif" font-size="10.00"># ApplicationName</text>
<polyline fill="none" stroke="black" points="-0.5,-181.5 176.5,-181.5 "/>
<text text-anchor="start" x="7.5" y="-169.5" font-family="Helvetica,sans-Serif" font-size="10.00">+ tcVerifyExists()</text>
<text text-anchor="start" x="7.5" y="-158.5" font-family="Helvetica,sans-Serif" font-size="10.00">+ tcVerifyLabel()</text>
<text text-anchor="start" x="7.5" y="-147.5" font-family="Helvetica,sans-Serif" font-size="10.00">+ tcVerifyCaption()</text>
</a>
</g>
</g>
<!-- Node3&#45;&gt;Node2 -->
<g id="edge1" class="edge"><title>Node3&#45;&gt;Node2</title>
<path fill="none" stroke="midnightblue" d="M130.162,-132.027C140.051,-118.43 150.433,-104.155 159.805,-91.2683"/>
<polygon fill="none" stroke="midnightblue" points="127.133,-130.241 124.082,-140.387 132.795,-134.358 127.133,-130.241"/>
</g>
<!-- Node4 -->
<g id="node3" class="node"><title>Node4</title>
<polygon fill="white" stroke="#bfbfbf" points="2,-290.5 2,-347.5 64,-347.5 64,-290.5 2,-290.5"/>
<text text-anchor="middle" x="33" y="-335.5" font-family="Helvetica,sans-Serif" font-size="10.00">TestName</text>
<polyline fill="none" stroke="#bfbfbf" points="2,-328.5 64,-328.5 "/>
<text text-anchor="middle" x="33" y="-316.5" font-family="Helvetica,sans-Serif" font-size="10.00"> </text>
<polyline fill="none" stroke="#bfbfbf" points="2,-309.5 64,-309.5 "/>
<text text-anchor="middle" x="33" y="-297.5" font-family="Helvetica,sans-Serif" font-size="10.00"> </text>
</g>
<!-- Node4&#45;&gt;Node3 -->
<g id="edge2" class="edge"><title>Node4&#45;&gt;Node3</title>
<path fill="none" stroke="#404040" d="M45.07,-290.349C49.9367,-279.2 55.7567,-265.866 61.5171,-252.67"/>
<polygon fill="none" stroke="#404040" points="61.5189,-252.666 60.2533,-245.567 66.3196,-241.668 67.5852,-248.767 61.5189,-252.666"/>
<text text-anchor="middle" x="75" y="-263.5" font-family="Helvetica,sans-Serif" font-size="10.00"> +name</text>
</g>
<!-- Node5 -->
<g id="node4" class="node"><title>Node5</title>
<polygon fill="white" stroke="#bfbfbf" points="82,-290.5 82,-347.5 204,-347.5 204,-290.5 82,-290.5"/>
<text text-anchor="middle" x="143" y="-335.5" font-family="Helvetica,sans-Serif" font-size="10.00">OKW_Memorize_Sngltn</text>
<polyline fill="none" stroke="#bfbfbf" points="82,-328.5 204,-328.5 "/>
<text text-anchor="middle" x="143" y="-316.5" font-family="Helvetica,sans-Serif" font-size="10.00"> </text>
<polyline fill="none" stroke="#bfbfbf" points="82,-309.5 204,-309.5 "/>
<text text-anchor="middle" x="143" y="-297.5" font-family="Helvetica,sans-Serif" font-size="10.00"> </text>
</g>
<!-- Node5&#45;&gt;Node3 -->
<g id="edge3" class="edge"><title>Node5&#45;&gt;Node3</title>
<path fill="none" stroke="#404040" d="M130.93,-290.349C126.063,-279.2 120.243,-265.866 114.483,-252.67"/>
<polygon fill="none" stroke="#404040" points="114.481,-252.666 108.415,-248.767 109.68,-241.668 115.747,-245.567 114.481,-252.666"/>
<text text-anchor="middle" x="145.5" y="-263.5" font-family="Helvetica,sans-Serif" font-size="10.00"> ~myMem</text>
</g>
<!-- Node6 -->
<g id="node5" class="node"><title>Node6</title>
<polygon fill="white" stroke="#bfbfbf" points="194.5,-162.5 194.5,-219.5 259.5,-219.5 259.5,-162.5 194.5,-162.5"/>
<text text-anchor="middle" x="227" y="-207.5" font-family="Helvetica,sans-Serif" font-size="10.00">Log2HTML</text>
<polyline fill="none" stroke="#bfbfbf" points="194.5,-200.5 259.5,-200.5 "/>
<text text-anchor="middle" x="227" y="-188.5" font-family="Helvetica,sans-Serif" font-size="10.00"> </text>
<polyline fill="none" stroke="#bfbfbf" points="194.5,-181.5 259.5,-181.5 "/>
<text text-anchor="middle" x="227" y="-169.5" font-family="Helvetica,sans-Serif" font-size="10.00"> </text>
</g>
<!-- Node6&#45;&gt;Node2 -->
<g id="edge4" class="edge"><title>Node6&#45;&gt;Node2</title>
<path fill="none" stroke="#404040" d="M220.252,-162.428C216.117,-145.535 210.675,-123.3 205.672,-102.858"/>
<polygon fill="none" stroke="#404040" points="205.643,-102.74 200.331,-97.8627 202.79,-91.0837 208.102,-95.9607 205.643,-102.74"/>
<text text-anchor="middle" x="244.5" y="-113.5" font-family="Helvetica,sans-Serif" font-size="10.00"> ~myLog2HTML</text>
</g>
</g>
</svg>
