<?xml version="1.0" encoding="UTF-8" standalone="no"?>
<!DOCTYPE svg PUBLIC "-//W3C//DTD SVG 1.1//EN"
 "http://www.w3.org/Graphics/SVG/1.1/DTD/svg11.dtd">
<!-- Generated by graphviz version 2.36.0 (20140111.2315)
 -->
<!-- Title: okw.gui.adapter.selenium.hc.hcButton Pages: 1 -->
<svg width="162pt" height="332pt"
 viewBox="0.00 0.00 162.00 332.00" xmlns="http://www.w3.org/2000/svg" xmlns:xlink="http://www.w3.org/1999/xlink">
<g id="graph0" class="graph" transform="scale(1 1) rotate(0) translate(4 328)">
<title>okw.gui.adapter.selenium.hc.hcButton</title>
<polygon fill="white" stroke="none" points="-4,4 -4,-328 158,-328 158,4 -4,4"/>
<!-- Node0 -->
<g id="node1" class="node"><title>Node0</title>
<polygon fill="#bfbfbf" stroke="black" points="-0.5,-139 -0.5,-229 154.5,-229 154.5,-139 -0.5,-139"/>
<text text-anchor="start" x="7.5" y="-217" font-family="Helvetica,sans-Serif" font-size="10.00">okw.gui.adapter.selenium.hc.hc</text>
<text text-anchor="middle" x="77" y="-206" font-family="Helvetica,sans-Serif" font-size="10.00">Button</text>
<polyline fill="none" stroke="black" points="-0.5,-199 154.5,-199 "/>
<text text-anchor="middle" x="77" y="-187" font-family="Helvetica,sans-Serif" font-size="10.00"> </text>
<polyline fill="none" stroke="black" points="-0.5,-180 154.5,-180 "/>
<text text-anchor="start" x="7.5" y="-168" font-family="Helvetica,sans-Serif" font-size="10.00">+ hcButton()</text>
<text text-anchor="start" x="7.5" y="-157" font-family="Helvetica,sans-Serif" font-size="10.00">+ hcButton()</text>
<text text-anchor="start" x="7.5" y="-146" font-family="Helvetica,sans-Serif" font-size="10.00">+ getCaption()</text>
</g>
<!-- Node2 -->
<g id="node3" class="node"><title>Node2</title>
<g id="a_node3"><a xlink:href="classokw_1_1gui_1_1adapter_1_1selenium_1_1hc_1_1hc_button_with_count_label.html" target="_top" xlink:title="{okw.gui.adapter.selenium.hc.hc\lButtonWithCountLabel\n||+ hcButtonWithCountLabel()\l+ hcButtonWithCountLabel()\l+ getLabel()\l+ getCaption()\l}">
<polygon fill="white" stroke="black" points="-0.5,-0.5 -0.5,-101.5 154.5,-101.5 154.5,-0.5 -0.5,-0.5"/>
<text text-anchor="start" x="7.5" y="-89.5" font-family="Helvetica,sans-Serif" font-size="10.00">okw.gui.adapter.selenium.hc.hc</text>
<text text-anchor="middle" x="77" y="-78.5" font-family="Helvetica,sans-Serif" font-size="10.00">ButtonWithCountLabel</text>
<polyline fill="none" stroke="black" points="-0.5,-71.5 154.5,-71.5 "/>
<text text-anchor="middle" x="77" y="-59.5" font-family="Helvetica,sans-Serif" font-size="10.00"> </text>
<polyline fill="none" stroke="black" points="-0.5,-52.5 154.5,-52.5 "/>
<text text-anchor="start" x="7.5" y="-40.5" font-family="Helvetica,sans-Serif" font-size="10.00">+ hcButtonWithCountLabel()</text>
<text text-anchor="start" x="7.5" y="-29.5" font-family="Helvetica,sans-Serif" font-size="10.00">+ hcButtonWithCountLabel()</text>
<text text-anchor="start" x="7.5" y="-18.5" font-family="Helvetica,sans-Serif" font-size="10.00">+ getLabel()</text>
<text text-anchor="start" x="7.5" y="-7.5" font-family="Helvetica,sans-Serif" font-size="10.00">+ getCaption()</text>
</a>
</g>
</g>
<!-- Node0&#45;&gt;Node2 -->
<g id="edge2" class="edge"><title>Node0&#45;&gt;Node2</title>
<path fill="none" stroke="midnightblue" d="M77,-128.422C77,-119.569 77,-110.442 77,-101.712"/>
<polygon fill="none" stroke="midnightblue" points="73.5001,-128.649 77,-138.649 80.5001,-128.649 73.5001,-128.649"/>
</g>
<!-- Node1 -->
<g id="node2" class="node"><title>Node1</title>
<polygon fill="white" stroke="#bfbfbf" points="48.5,-266.5 48.5,-323.5 105.5,-323.5 105.5,-266.5 48.5,-266.5"/>
<text text-anchor="middle" x="77" y="-311.5" font-family="Helvetica,sans-Serif" font-size="10.00">SeButton</text>
<polyline fill="none" stroke="#bfbfbf" points="48.5,-304.5 105.5,-304.5 "/>
<text text-anchor="middle" x="77" y="-292.5" font-family="Helvetica,sans-Serif" font-size="10.00"> </text>
<polyline fill="none" stroke="#bfbfbf" points="48.5,-285.5 105.5,-285.5 "/>
<text text-anchor="middle" x="77" y="-273.5" font-family="Helvetica,sans-Serif" font-size="10.00"> </text>
</g>
<!-- Node1&#45;&gt;Node0 -->
<g id="edge1" class="edge"><title>Node1&#45;&gt;Node0</title>
<path fill="none" stroke="midnightblue" d="M77,-256.484C77,-247.643 77,-238.139 77,-229.04"/>
<polygon fill="none" stroke="midnightblue" points="73.5001,-256.495 77,-266.495 80.5001,-256.495 73.5001,-256.495"/>
</g>
</g>
</svg>
