<?xml version="1.0" encoding="UTF-8" standalone="no"?>
<!DOCTYPE svg PUBLIC "-//W3C//DTD SVG 1.1//EN"
 "http://www.w3.org/Graphics/SVG/1.1/DTD/svg11.dtd">
<!-- Generated by graphviz version 2.36.0 (20140111.2315)
 -->
<!-- Title: okw.gui.frames.hc.hcMainPage Pages: 1 -->
<svg width="253pt" height="356pt"
 viewBox="0.00 0.00 253.00 356.00" xmlns="http://www.w3.org/2000/svg" xmlns:xlink="http://www.w3.org/1999/xlink">
<g id="graph0" class="graph" transform="scale(1 1) rotate(0) translate(4 352)">
<title>okw.gui.frames.hc.hcMainPage</title>
<polygon fill="white" stroke="none" points="-4,4 -4,-352 249,-352 249,4 -4,4"/>
<!-- Node2 -->
<g id="node1" class="node"><title>Node2</title>
<polygon fill="#bfbfbf" stroke="black" points="7,-1 7,-69 161,-69 161,-1 7,-1"/>
<text text-anchor="middle" x="84" y="-57" font-family="Helvetica,sans-Serif" font-size="10.00">okw.gui.frames.hc.hcMainPage</text>
<polyline fill="none" stroke="black" points="7,-50 161,-50 "/>
<text text-anchor="middle" x="84" y="-38" font-family="Helvetica,sans-Serif" font-size="10.00"> </text>
<polyline fill="none" stroke="black" points="7,-31 161,-31 "/>
<text text-anchor="start" x="15" y="-19" font-family="Helvetica,sans-Serif" font-size="10.00">+ hcMainPage()</text>
<text text-anchor="start" x="15" y="-8" font-family="Helvetica,sans-Serif" font-size="10.00">+ Sequens_Smoke()</text>
</g>
<!-- Node3 -->
<g id="node2" class="node"><title>Node3</title>
<polygon fill="white" stroke="#bfbfbf" points="-0.5,-161.5 -0.5,-218.5 86.5,-218.5 86.5,-161.5 -0.5,-161.5"/>
<text text-anchor="middle" x="43" y="-206.5" font-family="Helvetica,sans-Serif" font-size="10.00">SeBrowserChild</text>
<polyline fill="none" stroke="#bfbfbf" points="-0.5,-199.5 86.5,-199.5 "/>
<text text-anchor="middle" x="43" y="-187.5" font-family="Helvetica,sans-Serif" font-size="10.00"> </text>
<polyline fill="none" stroke="#bfbfbf" points="-0.5,-180.5 86.5,-180.5 "/>
<text text-anchor="middle" x="43" y="-168.5" font-family="Helvetica,sans-Serif" font-size="10.00"> </text>
</g>
<!-- Node3&#45;&gt;Node2 -->
<g id="edge1" class="edge"><title>Node3&#45;&gt;Node2</title>
<path fill="none" stroke="midnightblue" d="M53.0879,-151.355C59.8414,-126.153 68.6474,-93.2915 75.1322,-69.092"/>
<polygon fill="none" stroke="midnightblue" points="49.6326,-150.728 50.4248,-161.293 56.394,-152.54 49.6326,-150.728"/>
</g>
<!-- Node4 -->
<g id="node3" class="node"><title>Node4</title>
<g id="a_node3"><a xlink:href="classokw_1_1gui_1_1container_1_1hc_1_1hc_main_navigation.html" target="_top" xlink:title="main navigation GUI&#45;Container Klasse enthält alle GUI&#45;Objekte der Kopfzeile (Header). ">
<polygon fill="white" stroke="black" points="104.5,-128.5 104.5,-251.5 245.5,-251.5 245.5,-128.5 104.5,-128.5"/>
<text text-anchor="start" x="112.5" y="-239.5" font-family="Helvetica,sans-Serif" font-size="10.00">okw.gui.container.hc.hcMain</text>
<text text-anchor="middle" x="175" y="-228.5" font-family="Helvetica,sans-Serif" font-size="10.00">Navigation</text>
<polyline fill="none" stroke="black" points="104.5,-221.5 245.5,-221.5 "/>
<text text-anchor="start" x="112.5" y="-209.5" font-family="Helvetica,sans-Serif" font-size="10.00">+ navBarBrand</text>
<text text-anchor="start" x="112.5" y="-198.5" font-family="Helvetica,sans-Serif" font-size="10.00">+ navBarSearch</text>
<text text-anchor="start" x="112.5" y="-187.5" font-family="Helvetica,sans-Serif" font-size="10.00">+ navBarFilter</text>
<text text-anchor="start" x="112.5" y="-176.5" font-family="Helvetica,sans-Serif" font-size="10.00">+ navBarLanguage</text>
<text text-anchor="start" x="112.5" y="-165.5" font-family="Helvetica,sans-Serif" font-size="10.00">+ navBarNotifications</text>
<text text-anchor="start" x="112.5" y="-154.5" font-family="Helvetica,sans-Serif" font-size="10.00">+ navbarUserMenu</text>
<polyline fill="none" stroke="black" points="104.5,-147.5 245.5,-147.5 "/>
<text text-anchor="start" x="112.5" y="-135.5" font-family="Helvetica,sans-Serif" font-size="10.00">+ hcMainNavigation()</text>
</a>
</g>
</g>
<!-- Node4&#45;&gt;Node2 -->
<g id="edge2" class="edge"><title>Node4&#45;&gt;Node2</title>
<path fill="none" stroke="#404040" d="M138.773,-128.091C129.201,-111.997 119.057,-94.9418 110.134,-79.9402"/>
<polygon fill="none" stroke="#404040" points="110.013,-79.7365 103.508,-76.6244 103.879,-69.4229 110.384,-72.5349 110.013,-79.7365"/>
<text text-anchor="middle" x="158" y="-102" font-family="Helvetica,sans-Serif" font-size="10.00"> +myNewPost</text>
<text text-anchor="middle" x="158" y="-91" font-family="Helvetica,sans-Serif" font-size="10.00">+myHeader</text>
</g>
<!-- Node5 -->
<g id="node4" class="node"><title>Node5</title>
<polygon fill="white" stroke="#bfbfbf" points="123,-290.5 123,-347.5 227,-347.5 227,-290.5 123,-290.5"/>
<text text-anchor="middle" x="175" y="-335.5" font-family="Helvetica,sans-Serif" font-size="10.00">SeAnyChildWindow</text>
<polyline fill="none" stroke="#bfbfbf" points="123,-328.5 227,-328.5 "/>
<text text-anchor="middle" x="175" y="-316.5" font-family="Helvetica,sans-Serif" font-size="10.00"> </text>
<polyline fill="none" stroke="#bfbfbf" points="123,-309.5 227,-309.5 "/>
<text text-anchor="middle" x="175" y="-297.5" font-family="Helvetica,sans-Serif" font-size="10.00"> </text>
</g>
<!-- Node5&#45;&gt;Node4 -->
<g id="edge3" class="edge"><title>Node5&#45;&gt;Node4</title>
<path fill="none" stroke="midnightblue" d="M175,-280.283C175,-271.252 175,-261.384 175,-251.607"/>
<polygon fill="none" stroke="midnightblue" points="171.5,-280.443 175,-290.443 178.5,-280.443 171.5,-280.443"/>
</g>
</g>
</svg>
