<?xml version="1.0" encoding="UTF-8" standalone="no"?>
<!DOCTYPE svg PUBLIC "-//W3C//DTD SVG 1.1//EN"
 "http://www.w3.org/Graphics/SVG/1.1/DTD/svg11.dtd">
<!-- Generated by graphviz version 2.36.0 (20140111.2315)
 -->
<!-- Title: okw.gui.container.hc.hcMainNavigation Pages: 1 -->
<svg width="170pt" height="226pt"
 viewBox="0.00 0.00 170.00 226.00" xmlns="http://www.w3.org/2000/svg" xmlns:xlink="http://www.w3.org/1999/xlink">
<g id="graph0" class="graph" transform="scale(1 1) rotate(0) translate(4 222)">
<title>okw.gui.container.hc.hcMainNavigation</title>
<polygon fill="white" stroke="none" points="-4,4 -4,-222 166,-222 166,4 -4,4"/>
<!-- Node2 -->
<g id="node1" class="node"><title>Node2</title>
<polygon fill="#bfbfbf" stroke="black" points="-0.5,-0.5 -0.5,-79.5 140.5,-79.5 140.5,-0.5 -0.5,-0.5"/>
<text text-anchor="start" x="7.5" y="-67.5" font-family="Helvetica,sans-Serif" font-size="10.00">okw.gui.container.hc.hcMain</text>
<text text-anchor="middle" x="70" y="-56.5" font-family="Helvetica,sans-Serif" font-size="10.00">Navigation</text>
<polyline fill="none" stroke="black" points="-0.5,-49.5 140.5,-49.5 "/>
<text text-anchor="start" x="7.5" y="-37.5" font-family="Helvetica,sans-Serif" font-size="10.00">+ navBarBrand</text>
<text text-anchor="start" x="7.5" y="-26.5" font-family="Helvetica,sans-Serif" font-size="10.00">+ navBarSearch</text>
<polyline fill="none" stroke="black" points="-0.5,-19.5 140.5,-19.5 "/>
<text text-anchor="start" x="7.5" y="-7.5" font-family="Helvetica,sans-Serif" font-size="10.00">+ hcMainNavigation()</text>
</g>
<!-- Node3 -->
<g id="node2" class="node"><title>Node3</title>
<polygon fill="white" stroke="#bfbfbf" points="18,-160.5 18,-217.5 122,-217.5 122,-160.5 18,-160.5"/>
<text text-anchor="middle" x="70" y="-205.5" font-family="Helvetica,sans-Serif" font-size="10.00">SeAnyChildWindow</text>
<polyline fill="none" stroke="#bfbfbf" points="18,-198.5 122,-198.5 "/>
<text text-anchor="middle" x="70" y="-186.5" font-family="Helvetica,sans-Serif" font-size="10.00"> </text>
<polyline fill="none" stroke="#bfbfbf" points="18,-179.5 122,-179.5 "/>
<text text-anchor="middle" x="70" y="-167.5" font-family="Helvetica,sans-Serif" font-size="10.00"> </text>
</g>
<!-- Node3&#45;&gt;Node2 -->
<g id="edge1" class="edge"><title>Node3&#45;&gt;Node2</title>
<path fill="none" stroke="midnightblue" d="M68.2259,-150.232C68.1355,-147.447 68.0582,-144.68 68,-142 67.5752,-122.449 67.6571,-117.553 68,-98 68.1042,-92.0598 68.2694,-85.7729 68.4613,-79.6282"/>
<polygon fill="none" stroke="midnightblue" points="64.7301,-150.413 68.5996,-160.276 71.7252,-150.153 64.7301,-150.413"/>
</g>
<!-- Node3&#45;&gt;Node2 -->
<g id="edge2" class="edge"><title>Node3&#45;&gt;Node2</title>
<path fill="none" stroke="#404040" d="M70,-160.35C70,-141.034 70,-114.683 70,-91.6539"/>
<polygon fill="none" stroke="#404040" points="70.0001,-91.6195 66,-85.6196 70,-79.6195 74,-85.6195 70.0001,-91.6195"/>
<text text-anchor="middle" x="116" y="-134" font-family="Helvetica,sans-Serif" font-size="10.00"> +navBarLanguage</text>
<text text-anchor="middle" x="116" y="-123" font-family="Helvetica,sans-Serif" font-size="10.00">+navBarFilter</text>
<text text-anchor="middle" x="116" y="-112" font-family="Helvetica,sans-Serif" font-size="10.00">+navBarNotifications</text>
<text text-anchor="middle" x="116" y="-101" font-family="Helvetica,sans-Serif" font-size="10.00">+navbarUserMenu</text>
</g>
</g>
</svg>
