<?xml version="1.0" encoding="UTF-8" standalone="no"?>
<!DOCTYPE svg PUBLIC "-//W3C//DTD SVG 1.1//EN"
 "http://www.w3.org/Graphics/SVG/1.1/DTD/svg11.dtd">
<!-- Generated by graphviz version 2.36.0 (20140111.2315)
 -->
<!-- Title: okw.gui.adapter.selenium.hc.hcButtonWithCountLabel.getLabel Pages: 1 -->
<svg width="366pt" height="38pt"
 viewBox="0.00 0.00 366.00 38.00" xmlns="http://www.w3.org/2000/svg" xmlns:xlink="http://www.w3.org/1999/xlink">
<g id="graph0" class="graph" transform="scale(1 1) rotate(0) translate(4 34)">
<title>okw.gui.adapter.selenium.hc.hcButtonWithCountLabel.getLabel</title>
<polygon fill="white" stroke="none" points="-4,4 -4,-34 362,-34 362,4 -4,4"/>
<!-- Node4 -->
<g id="node1" class="node"><title>Node4</title>
<polygon fill="#bfbfbf" stroke="black" points="0.5,-0 0.5,-30 155.5,-30 155.5,-0 0.5,-0"/>
<text text-anchor="start" x="8.5" y="-18" font-family="Helvetica,sans-Serif" font-size="10.00">okw.gui.adapter.selenium.hc.hc</text>
<text text-anchor="middle" x="78" y="-7" font-family="Helvetica,sans-Serif" font-size="10.00">ButtonWithCountLabel.getLabel</text>
</g>
<!-- Node5 -->
<g id="node2" class="node"><title>Node5</title>
<g id="a_node2"><a xlink:href="classokw_1_1gui_1_1adapter_1_1selenium_1_1hc_1_1hc_button_with_count_label.html#abacbd35ef20e0b79666007b8cc7ebcee" target="_top" xlink:title="Ermittelt den textuellen Inhalt der Caption/Überschrift des Objektes ohne Zähler! ...">
<polygon fill="white" stroke="black" points="192.5,-0 192.5,-30 357.5,-30 357.5,-0 192.5,-0"/>
<text text-anchor="start" x="200.5" y="-18" font-family="Helvetica,sans-Serif" font-size="10.00">okw.gui.adapter.selenium.hc.hc</text>
<text text-anchor="middle" x="275" y="-7" font-family="Helvetica,sans-Serif" font-size="10.00">ButtonWithCountLabel.getCaption</text>
</a>
</g>
</g>
<!-- Node4&#45;&gt;Node5 -->
<g id="edge1" class="edge"><title>Node4&#45;&gt;Node5</title>
<path fill="none" stroke="midnightblue" d="M165.772,-15C174.575,-15 183.496,-15 192.244,-15"/>
<polygon fill="midnightblue" stroke="midnightblue" points="165.51,-11.5001 155.509,-15 165.509,-18.5001 165.51,-11.5001"/>
</g>
</g>
</svg>
