<?xml version="1.0" encoding="UTF-8" standalone="no"?>
<!DOCTYPE svg PUBLIC "-//W3C//DTD SVG 1.1//EN"
 "http://www.w3.org/Graphics/SVG/1.1/DTD/svg11.dtd">
<!-- Generated by graphviz version 2.36.0 (20140111.2315)
 -->
<!-- Title: hc.testcases.hcguicomponent.hcButtonWithCountLabel.hcButtonWithCountLabel_HTMLUnitDriver_Test Pages: 1 -->
<svg width="184pt" height="260pt"
 viewBox="0.00 0.00 184.00 260.00" xmlns="http://www.w3.org/2000/svg" xmlns:xlink="http://www.w3.org/1999/xlink">
<g id="graph0" class="graph" transform="scale(1 1) rotate(0) translate(4 256)">
<title>hc.testcases.hcguicomponent.hcButtonWithCountLabel.hcButtonWithCountLabel_HTMLUnitDriver_Test</title>
<polygon fill="white" stroke="none" points="-4,4 -4,-256 180,-256 180,4 -4,4"/>
<!-- Node0 -->
<g id="node1" class="node"><title>Node0</title>
<polygon fill="#bfbfbf" stroke="black" points="-0.5,-1 -0.5,-91 176.5,-91 176.5,-1 -0.5,-1"/>
<text text-anchor="start" x="7.5" y="-79" font-family="Helvetica,sans-Serif" font-size="10.00">hc.testcases.hcguicomponent.hc</text>
<text text-anchor="start" x="7.5" y="-68" font-family="Helvetica,sans-Serif" font-size="10.00">ButtonWithCountLabel.hcButtonWith</text>
<text text-anchor="middle" x="88" y="-57" font-family="Helvetica,sans-Serif" font-size="10.00">CountLabel_HTMLUnitDriver_Test</text>
<polyline fill="none" stroke="black" points="-0.5,-50 176.5,-50 "/>
<text text-anchor="start" x="7.5" y="-38" font-family="Helvetica,sans-Serif" font-size="10.00">~ myLog2HTML</text>
<polyline fill="none" stroke="black" points="-0.5,-31 176.5,-31 "/>
<text text-anchor="start" x="7.5" y="-19" font-family="Helvetica,sans-Serif" font-size="10.00">+ setUpBeforeClass()</text>
<text text-anchor="start" x="7.5" y="-8" font-family="Helvetica,sans-Serif" font-size="10.00">+ tearDownAfterClass()</text>
</g>
<!-- Node1 -->
<g id="node2" class="node"><title>Node1</title>
<g id="a_node2"><a xlink:href="classhc_1_1testcases_1_1hcguicomponent_1_1hc_button_with_count_label_1_1hc_button_with_count_label___test.html" target="_top" xlink:title="{hc.testcases.hcguicomponent.hc\lButtonWithCountLabel.hcButtonWith\lCountLabel_Test\n|+ name\l~ myMem\l# ApplicationName\l|+ tcVerifyExists()\l+ tcVerifyLabel()\l+ tcVerifyCaption()\l}">
<polygon fill="white" stroke="black" points="-0.5,-128.5 -0.5,-251.5 176.5,-251.5 176.5,-128.5 -0.5,-128.5"/>
<text text-anchor="start" x="7.5" y="-239.5" font-family="Helvetica,sans-Serif" font-size="10.00">hc.testcases.hcguicomponent.hc</text>
<text text-anchor="start" x="7.5" y="-228.5" font-family="Helvetica,sans-Serif" font-size="10.00">ButtonWithCountLabel.hcButtonWith</text>
<text text-anchor="middle" x="88" y="-217.5" font-family="Helvetica,sans-Serif" font-size="10.00">CountLabel_Test</text>
<polyline fill="none" stroke="black" points="-0.5,-210.5 176.5,-210.5 "/>
<text text-anchor="start" x="7.5" y="-198.5" font-family="Helvetica,sans-Serif" font-size="10.00">+ name</text>
<text text-anchor="start" x="7.5" y="-187.5" font-family="Helvetica,sans-Serif" font-size="10.00">~ myMem</text>
<text text-anchor="start" x="7.5" y="-176.5" font-family="Helvetica,sans-Serif" font-size="10.00"># ApplicationName</text>
<polyline fill="none" stroke="black" points="-0.5,-169.5 176.5,-169.5 "/>
<text text-anchor="start" x="7.5" y="-157.5" font-family="Helvetica,sans-Serif" font-size="10.00">+ tcVerifyExists()</text>
<text text-anchor="start" x="7.5" y="-146.5" font-family="Helvetica,sans-Serif" font-size="10.00">+ tcVerifyLabel()</text>
<text text-anchor="start" x="7.5" y="-135.5" font-family="Helvetica,sans-Serif" font-size="10.00">+ tcVerifyCaption()</text>
</a>
</g>
</g>
<!-- Node1&#45;&gt;Node0 -->
<g id="edge1" class="edge"><title>Node1&#45;&gt;Node0</title>
<path fill="none" stroke="midnightblue" d="M88,-118.333C88,-109.055 88,-99.7696 88,-91.1103"/>
<polygon fill="none" stroke="midnightblue" points="84.5001,-118.367 88,-128.367 91.5001,-118.367 84.5001,-118.367"/>
</g>
</g>
</svg>
