<?xml version="1.0" encoding="UTF-8" standalone="no"?>
<!DOCTYPE svg PUBLIC "-//W3C//DTD SVG 1.1//EN"
 "http://www.w3.org/Graphics/SVG/1.1/DTD/svg11.dtd">
<!-- Generated by graphviz version 2.36.0 (20140111.2315)
 -->
<!-- Title: okw.gui.container.hc.hcMainNavigation Pages: 1 -->
<svg width="148pt" height="226pt"
 viewBox="0.00 0.00 148.00 226.00" xmlns="http://www.w3.org/2000/svg" xmlns:xlink="http://www.w3.org/1999/xlink">
<g id="graph0" class="graph" transform="scale(1 1) rotate(0) translate(4 222)">
<title>okw.gui.container.hc.hcMainNavigation</title>
<polygon fill="white" stroke="none" points="-4,4 -4,-222 144,-222 144,4 -4,4"/>
<!-- Node2 -->
<g id="node1" class="node"><title>Node2</title>
<polygon fill="#bfbfbf" stroke="black" points="-0.5,-0.5 -0.5,-123.5 140.5,-123.5 140.5,-0.5 -0.5,-0.5"/>
<text text-anchor="start" x="7.5" y="-111.5" font-family="Helvetica,sans-Serif" font-size="10.00">okw.gui.container.hc.hcMain</text>
<text text-anchor="middle" x="70" y="-100.5" font-family="Helvetica,sans-Serif" font-size="10.00">Navigation</text>
<polyline fill="none" stroke="black" points="-0.5,-93.5 140.5,-93.5 "/>
<text text-anchor="start" x="7.5" y="-81.5" font-family="Helvetica,sans-Serif" font-size="10.00">+ navBarBrand</text>
<text text-anchor="start" x="7.5" y="-70.5" font-family="Helvetica,sans-Serif" font-size="10.00">+ navBarSearch</text>
<text text-anchor="start" x="7.5" y="-59.5" font-family="Helvetica,sans-Serif" font-size="10.00">+ navBarFilter</text>
<text text-anchor="start" x="7.5" y="-48.5" font-family="Helvetica,sans-Serif" font-size="10.00">+ navBarLanguage</text>
<text text-anchor="start" x="7.5" y="-37.5" font-family="Helvetica,sans-Serif" font-size="10.00">+ navBarNotifications</text>
<text text-anchor="start" x="7.5" y="-26.5" font-family="Helvetica,sans-Serif" font-size="10.00">+ navbarUserMenu</text>
<polyline fill="none" stroke="black" points="-0.5,-19.5 140.5,-19.5 "/>
<text text-anchor="start" x="7.5" y="-7.5" font-family="Helvetica,sans-Serif" font-size="10.00">+ hcMainNavigation()</text>
</g>
<!-- Node3 -->
<g id="node2" class="node"><title>Node3</title>
<polygon fill="white" stroke="#bfbfbf" points="18,-160.5 18,-217.5 122,-217.5 122,-160.5 18,-160.5"/>
<text text-anchor="middle" x="70" y="-205.5" font-family="Helvetica,sans-Serif" font-size="10.00">SeAnyChildWindow</text>
<polyline fill="none" stroke="#bfbfbf" points="18,-198.5 122,-198.5 "/>
<text text-anchor="middle" x="70" y="-186.5" font-family="Helvetica,sans-Serif" font-size="10.00"> </text>
<polyline fill="none" stroke="#bfbfbf" points="18,-179.5 122,-179.5 "/>
<text text-anchor="middle" x="70" y="-167.5" font-family="Helvetica,sans-Serif" font-size="10.00"> </text>
</g>
<!-- Node3&#45;&gt;Node2 -->
<g id="edge1" class="edge"><title>Node3&#45;&gt;Node2</title>
<path fill="none" stroke="midnightblue" d="M70,-150.099C70,-141.739 70,-132.68 70,-123.672"/>
<polygon fill="none" stroke="midnightblue" points="66.5001,-150.258 70,-160.258 73.5001,-150.258 66.5001,-150.258"/>
</g>
</g>
</svg>
