<?xml version="1.0" encoding="UTF-8" standalone="no"?>
<!DOCTYPE svg PUBLIC "-//W3C//DTD SVG 1.1//EN"
 "http://www.w3.org/Graphics/SVG/1.1/DTD/svg11.dtd">
<!-- Generated by graphviz version 2.36.0 (20140111.2315)
 -->
<!-- Title: hc.testcases.hcguicomponent.hcButtonWithCountLabel.hcButtonWithCountLabel_Firefox_Test Pages: 1 -->
<svg width="289pt" height="366pt"
 viewBox="0.00 0.00 289.00 366.00" xmlns="http://www.w3.org/2000/svg" xmlns:xlink="http://www.w3.org/1999/xlink">
<g id="graph0" class="graph" transform="scale(1 1) rotate(0) translate(4 362)">
<title>hc.testcases.hcguicomponent.hcButtonWithCountLabel.hcButtonWithCountLabel_Firefox_Test</title>
<polygon fill="white" stroke="none" points="-4,4 -4,-362 285,-362 285,4 -4,4"/>
<!-- Node2 -->
<g id="node1" class="node"><title>Node2</title>
<polygon fill="#bfbfbf" stroke="black" points="103.5,-0.5 103.5,-101.5 280.5,-101.5 280.5,-0.5 103.5,-0.5"/>
<text text-anchor="start" x="111.5" y="-89.5" font-family="Helvetica,sans-Serif" font-size="10.00">hc.testcases.hcguicomponent.hc</text>
<text text-anchor="start" x="111.5" y="-78.5" font-family="Helvetica,sans-Serif" font-size="10.00">ButtonWithCountLabel.hcButtonWith</text>
<text text-anchor="middle" x="192" y="-67.5" font-family="Helvetica,sans-Serif" font-size="10.00">CountLabel_Firefox_Test</text>
<polyline fill="none" stroke="black" points="103.5,-60.5 280.5,-60.5 "/>
<text text-anchor="middle" x="192" y="-48.5" font-family="Helvetica,sans-Serif" font-size="10.00"> </text>
<polyline fill="none" stroke="black" points="103.5,-41.5 280.5,-41.5 "/>
<text text-anchor="start" x="111.5" y="-29.5" font-family="Helvetica,sans-Serif" font-size="10.00">+ FirefoxAfter()</text>
<text text-anchor="start" x="111.5" y="-18.5" font-family="Helvetica,sans-Serif" font-size="10.00">+ setUpBeforeClass()</text>
<text text-anchor="start" x="111.5" y="-7.5" font-family="Helvetica,sans-Serif" font-size="10.00">+ tearDownAfterClass()</text>
</g>
<!-- Node3 -->
<g id="node2" class="node"><title>Node3</title>
<g id="a_node2"><a xlink:href="classhc_1_1testcases_1_1hcguicomponent_1_1hc_button_with_count_label_1_1hc_button_with_count_label___test.html" target="_top" xlink:title="{hc.testcases.hcguicomponent.hc\lButtonWithCountLabel.hcButtonWith\lCountLabel_Test\n|# ApplicationName\l|+ tcVerifyExists()\l+ tcVerifyLabel()\l+ tcVerifyCaption()\l}">
<polygon fill="white" stroke="black" points="-0.5,-150.5 -0.5,-251.5 176.5,-251.5 176.5,-150.5 -0.5,-150.5"/>
<text text-anchor="start" x="7.5" y="-239.5" font-family="Helvetica,sans-Serif" font-size="10.00">hc.testcases.hcguicomponent.hc</text>
<text text-anchor="start" x="7.5" y="-228.5" font-family="Helvetica,sans-Serif" font-size="10.00">ButtonWithCountLabel.hcButtonWith</text>
<text text-anchor="middle" x="88" y="-217.5" font-family="Helvetica,sans-Serif" font-size="10.00">CountLabel_Test</text>
<polyline fill="none" stroke="black" points="-0.5,-210.5 176.5,-210.5 "/>
<text text-anchor="start" x="7.5" y="-198.5" font-family="Helvetica,sans-Serif" font-size="10.00"># ApplicationName</text>
<polyline fill="none" stroke="black" points="-0.5,-191.5 176.5,-191.5 "/>
<text text-anchor="start" x="7.5" y="-179.5" font-family="Helvetica,sans-Serif" font-size="10.00">+ tcVerifyExists()</text>
<text text-anchor="start" x="7.5" y="-168.5" font-family="Helvetica,sans-Serif" font-size="10.00">+ tcVerifyLabel()</text>
<text text-anchor="start" x="7.5" y="-157.5" font-family="Helvetica,sans-Serif" font-size="10.00">+ tcVerifyCaption()</text>
</a>
</g>
</g>
<!-- Node3&#45;&gt;Node2 -->
<g id="edge1" class="edge"><title>Node3&#45;&gt;Node2</title>
<path fill="none" stroke="midnightblue" d="M128.7,-142.08C138.11,-128.689 148.039,-114.559 157.172,-101.562"/>
<polygon fill="none" stroke="midnightblue" points="125.806,-140.112 122.92,-150.306 131.533,-144.137 125.806,-140.112"/>
</g>
<!-- Node4 -->
<g id="node3" class="node"><title>Node4</title>
<polygon fill="white" stroke="#bfbfbf" points="2,-300.5 2,-357.5 64,-357.5 64,-300.5 2,-300.5"/>
<text text-anchor="middle" x="33" y="-345.5" font-family="Helvetica,sans-Serif" font-size="10.00">TestName</text>
<polyline fill="none" stroke="#bfbfbf" points="2,-338.5 64,-338.5 "/>
<text text-anchor="middle" x="33" y="-326.5" font-family="Helvetica,sans-Serif" font-size="10.00"> </text>
<polyline fill="none" stroke="#bfbfbf" points="2,-319.5 64,-319.5 "/>
<text text-anchor="middle" x="33" y="-307.5" font-family="Helvetica,sans-Serif" font-size="10.00"> </text>
</g>
<!-- Node4&#45;&gt;Node3 -->
<g id="edge2" class="edge"><title>Node4&#45;&gt;Node3</title>
<path fill="none" stroke="#404040" d="M45.07,-300.349C49.9367,-289.2 55.7567,-275.866 61.5171,-262.67"/>
<polygon fill="none" stroke="#404040" points="61.5189,-262.666 60.2533,-255.567 66.3196,-251.668 67.5852,-258.767 61.5189,-262.666"/>
<text text-anchor="middle" x="75" y="-273.5" font-family="Helvetica,sans-Serif" font-size="10.00"> +name</text>
</g>
<!-- Node5 -->
<g id="node4" class="node"><title>Node5</title>
<polygon fill="white" stroke="#bfbfbf" points="82,-300.5 82,-357.5 204,-357.5 204,-300.5 82,-300.5"/>
<text text-anchor="middle" x="143" y="-345.5" font-family="Helvetica,sans-Serif" font-size="10.00">OKW_Memorize_Sngltn</text>
<polyline fill="none" stroke="#bfbfbf" points="82,-338.5 204,-338.5 "/>
<text text-anchor="middle" x="143" y="-326.5" font-family="Helvetica,sans-Serif" font-size="10.00"> </text>
<polyline fill="none" stroke="#bfbfbf" points="82,-319.5 204,-319.5 "/>
<text text-anchor="middle" x="143" y="-307.5" font-family="Helvetica,sans-Serif" font-size="10.00"> </text>
</g>
<!-- Node5&#45;&gt;Node3 -->
<g id="edge3" class="edge"><title>Node5&#45;&gt;Node3</title>
<path fill="none" stroke="#404040" d="M130.93,-300.349C126.063,-289.2 120.243,-275.866 114.483,-262.67"/>
<polygon fill="none" stroke="#404040" points="114.481,-262.666 108.415,-258.767 109.68,-251.668 115.747,-255.567 114.481,-262.666"/>
<text text-anchor="middle" x="145.5" y="-273.5" font-family="Helvetica,sans-Serif" font-size="10.00"> ~myMem</text>
</g>
<!-- Node6 -->
<g id="node5" class="node"><title>Node6</title>
<polygon fill="white" stroke="#bfbfbf" points="194.5,-172.5 194.5,-229.5 259.5,-229.5 259.5,-172.5 194.5,-172.5"/>
<text text-anchor="middle" x="227" y="-217.5" font-family="Helvetica,sans-Serif" font-size="10.00">Log2HTML</text>
<polyline fill="none" stroke="#bfbfbf" points="194.5,-210.5 259.5,-210.5 "/>
<text text-anchor="middle" x="227" y="-198.5" font-family="Helvetica,sans-Serif" font-size="10.00"> </text>
<polyline fill="none" stroke="#bfbfbf" points="194.5,-191.5 259.5,-191.5 "/>
<text text-anchor="middle" x="227" y="-179.5" font-family="Helvetica,sans-Serif" font-size="10.00"> </text>
</g>
<!-- Node6&#45;&gt;Node2 -->
<g id="edge4" class="edge"><title>Node6&#45;&gt;Node2</title>
<path fill="none" stroke="#404040" d="M220.417,-172.162C216.494,-155.573 211.352,-133.83 206.522,-113.407"/>
<polygon fill="none" stroke="#404040" points="206.487,-113.26 201.214,-108.342 203.726,-101.583 208.999,-106.501 206.487,-113.26"/>
<text text-anchor="middle" x="245.5" y="-123.5" font-family="Helvetica,sans-Serif" font-size="10.00"> ~myLog2HTML</text>
</g>
</g>
</svg>
