<?xml version="1.0" encoding="UTF-8" standalone="no"?>
<!DOCTYPE svg PUBLIC "-//W3C//DTD SVG 1.1//EN"
 "http://www.w3.org/Graphics/SVG/1.1/DTD/svg11.dtd">
<!-- Generated by graphviz version 2.36.0 (20140111.2315)
 -->
<!-- Title: okw.gui.adapter.selenium.hc.hcEmoji Pages: 1 -->
<svg width="162pt" height="194pt"
 viewBox="0.00 0.00 162.00 194.00" xmlns="http://www.w3.org/2000/svg" xmlns:xlink="http://www.w3.org/1999/xlink">
<g id="graph0" class="graph" transform="scale(1 1) rotate(0) translate(4 190)">
<title>okw.gui.adapter.selenium.hc.hcEmoji</title>
<polygon fill="white" stroke="none" points="-4,4 -4,-190 158,-190 158,4 -4,4"/>
<!-- Node0 -->
<g id="node1" class="node"><title>Node0</title>
<polygon fill="#bfbfbf" stroke="black" points="-0.5,-1 -0.5,-91 154.5,-91 154.5,-1 -0.5,-1"/>
<text text-anchor="start" x="7.5" y="-79" font-family="Helvetica,sans-Serif" font-size="10.00">okw.gui.adapter.selenium.hc.hc</text>
<text text-anchor="middle" x="77" y="-68" font-family="Helvetica,sans-Serif" font-size="10.00">Emoji</text>
<polyline fill="none" stroke="black" points="-0.5,-61 154.5,-61 "/>
<text text-anchor="middle" x="77" y="-49" font-family="Helvetica,sans-Serif" font-size="10.00"> </text>
<polyline fill="none" stroke="black" points="-0.5,-42 154.5,-42 "/>
<text text-anchor="start" x="7.5" y="-30" font-family="Helvetica,sans-Serif" font-size="10.00">+ hcEmoji()</text>
<text text-anchor="start" x="7.5" y="-19" font-family="Helvetica,sans-Serif" font-size="10.00">+ hcEmoji()</text>
<text text-anchor="start" x="7.5" y="-8" font-family="Helvetica,sans-Serif" font-size="10.00">+ getValue()</text>
</g>
<!-- Node1 -->
<g id="node2" class="node"><title>Node1</title>
<polygon fill="white" stroke="#bfbfbf" points="49,-128.5 49,-185.5 105,-185.5 105,-128.5 49,-128.5"/>
<text text-anchor="middle" x="77" y="-173.5" font-family="Helvetica,sans-Serif" font-size="10.00">SeImage</text>
<polyline fill="none" stroke="#bfbfbf" points="49,-166.5 105,-166.5 "/>
<text text-anchor="middle" x="77" y="-154.5" font-family="Helvetica,sans-Serif" font-size="10.00"> </text>
<polyline fill="none" stroke="#bfbfbf" points="49,-147.5 105,-147.5 "/>
<text text-anchor="middle" x="77" y="-135.5" font-family="Helvetica,sans-Serif" font-size="10.00"> </text>
</g>
<!-- Node1&#45;&gt;Node0 -->
<g id="edge1" class="edge"><title>Node1&#45;&gt;Node0</title>
<path fill="none" stroke="midnightblue" d="M77,-118.484C77,-109.643 77,-100.139 77,-91.0399"/>
<polygon fill="none" stroke="midnightblue" points="73.5001,-118.495 77,-128.495 80.5001,-118.495 73.5001,-118.495"/>
</g>
</g>
</svg>
