<?xml version="1.0" encoding="UTF-8" standalone="no"?>
<!DOCTYPE svg PUBLIC "-//W3C//DTD SVG 1.1//EN"
 "http://www.w3.org/Graphics/SVG/1.1/DTD/svg11.dtd">
<!-- Generated by graphviz version 2.36.0 (20140111.2315)
 -->
<!-- Title: Grafische Darstellung der Klassenhierarchie Pages: 1 -->
<svg width="284pt" height="115pt"
 viewBox="0.00 0.00 284.00 115.00" xmlns="http://www.w3.org/2000/svg" xmlns:xlink="http://www.w3.org/1999/xlink">
<g id="graph0" class="graph" transform="scale(1 1) rotate(0) translate(4 111)">
<title>Grafische Darstellung der Klassenhierarchie</title>
<polygon fill="white" stroke="none" points="-4,4 -4,-111 280,-111 280,4 -4,4"/>
<!-- Node29 -->
<g id="node1" class="node"><title>Node29</title>
<polygon fill="white" stroke="#bfbfbf" points="0.5,-38.5 0.5,-57.5 87.5,-57.5 87.5,-38.5 0.5,-38.5"/>
<text text-anchor="middle" x="44" y="-45.5" font-family="Helvetica,sans-Serif" font-size="10.00">SeBrowserChild</text>
</g>
<!-- Node0 -->
<g id="node2" class="node"><title>Node0</title>
<g id="a_node2"><a xlink:href="classokw_1_1gui_1_1frames_1_1hc_1_1_h_c___introduction.html" target="_top" xlink:title="okw.gui.frames.hc.HC\l_Introduction">
<polygon fill="white" stroke="black" points="142.5,-77 142.5,-107 257.5,-107 257.5,-77 142.5,-77"/>
<text text-anchor="start" x="150.5" y="-95" font-family="Helvetica,sans-Serif" font-size="10.00">okw.gui.frames.hc.HC</text>
<text text-anchor="middle" x="200" y="-84" font-family="Helvetica,sans-Serif" font-size="10.00">_Introduction</text>
</a>
</g>
</g>
<!-- Node29&#45;&gt;Node0 -->
<g id="edge1" class="edge"><title>Node29&#45;&gt;Node0</title>
<path fill="none" stroke="midnightblue" d="M88.0912,-60.3118C106.143,-65.4694 127.302,-71.5148 146.271,-76.9346"/>
<polygon fill="midnightblue" stroke="midnightblue" points="88.9925,-56.9293 78.4157,-57.5473 87.0694,-63.66 88.9925,-56.9293"/>
</g>
<!-- Node31 -->
<g id="node3" class="node"><title>Node31</title>
<g id="a_node3"><a xlink:href="classokw_1_1gui_1_1frames_1_1hc_1_1hc_login.html" target="_top" xlink:title="Klasse representiert den Login&#45;Dialog von Human Connection ">
<polygon fill="white" stroke="black" points="133,-38.5 133,-57.5 267,-57.5 267,-38.5 133,-38.5"/>
<text text-anchor="middle" x="200" y="-45.5" font-family="Helvetica,sans-Serif" font-size="10.00">okw.gui.frames.hc.hcLogin</text>
</a>
</g>
</g>
<!-- Node29&#45;&gt;Node31 -->
<g id="edge2" class="edge"><title>Node29&#45;&gt;Node31</title>
<path fill="none" stroke="midnightblue" d="M97.9999,-48C109.268,-48 121.298,-48 132.983,-48"/>
<polygon fill="midnightblue" stroke="midnightblue" points="97.8976,-44.5001 87.8976,-48 97.8976,-51.5001 97.8976,-44.5001"/>
</g>
<!-- Node32 -->
<g id="node4" class="node"><title>Node32</title>
<g id="a_node4"><a xlink:href="classokw_1_1gui_1_1frames_1_1hc_1_1hc_welcome.html" target="_top" xlink:title="Frame&#45;Klasse representiert die &#39;Welcome &#45; Human Connection&#39;&#45;Seite von Human Connection ...">
<polygon fill="white" stroke="black" points="124,-0.5 124,-19.5 276,-19.5 276,-0.5 124,-0.5"/>
<text text-anchor="middle" x="200" y="-7.5" font-family="Helvetica,sans-Serif" font-size="10.00">okw.gui.frames.hc.hcWelcome</text>
</a>
</g>
</g>
<!-- Node29&#45;&gt;Node32 -->
<g id="edge3" class="edge"><title>Node29&#45;&gt;Node32</title>
<path fill="none" stroke="midnightblue" d="M93.7937,-35.96C115.308,-30.6512 140.232,-24.5012 160.419,-19.5201"/>
<polygon fill="midnightblue" stroke="midnightblue" points="92.731,-32.6172 83.8607,-38.411 94.408,-39.4133 92.731,-32.6172"/>
</g>
</g>
</svg>
