<?xml version="1.0" encoding="UTF-8" standalone="no"?>
<!DOCTYPE svg PUBLIC "-//W3C//DTD SVG 1.1//EN"
 "http://www.w3.org/Graphics/SVG/1.1/DTD/svg11.dtd">
<!-- Generated by graphviz version 2.36.0 (20140111.2315)
 -->
<!-- Title: Grafische Darstellung der Klassenhierarchie Pages: 1 -->
<svg width="388pt" height="136pt"
 viewBox="0.00 0.00 388.00 136.00" xmlns="http://www.w3.org/2000/svg" xmlns:xlink="http://www.w3.org/1999/xlink">
<g id="graph0" class="graph" transform="scale(1 1) rotate(0) translate(4 132)">
<title>Grafische Darstellung der Klassenhierarchie</title>
<polygon fill="white" stroke="none" points="-4,4 -4,-132 384,-132 384,4 -4,4"/>
<!-- Node0 -->
<g id="node1" class="node"><title>Node0</title>
<g id="a_node1"><a xlink:href="classhc_1_1testcases_1_1hcguicomponent_1_1hc_emoji_1_1hc_emoji___test.html" target="_top" xlink:title="Test&#45;Klasse zur Prüfung der Implementierung der Klasse okw.gui.adapter.selenium.hc.hcEmoji. ">
<polygon fill="white" stroke="black" points="0.5,-49 0.5,-79 161.5,-79 161.5,-49 0.5,-49"/>
<text text-anchor="start" x="8.5" y="-67" font-family="Helvetica,sans-Serif" font-size="10.00">hc.testcases.hcguicomponent.hc</text>
<text text-anchor="middle" x="81" y="-56" font-family="Helvetica,sans-Serif" font-size="10.00">Emoji.hcEmoji_Test</text>
</a>
</g>
</g>
<!-- Node1 -->
<g id="node2" class="node"><title>Node1</title>
<g id="a_node2"><a xlink:href="classhc_1_1testcases_1_1hcguicomponent_1_1hc_emoji_1_1hc_emoji___chrome___test.html" target="_top" xlink:title="hc.testcases.hcguicomponent.hc\lEmoji.hcEmoji_Chrome_Test">
<polygon fill="white" stroke="black" points="208.5,-98 208.5,-128 369.5,-128 369.5,-98 208.5,-98"/>
<text text-anchor="start" x="216.5" y="-116" font-family="Helvetica,sans-Serif" font-size="10.00">hc.testcases.hcguicomponent.hc</text>
<text text-anchor="middle" x="289" y="-105" font-family="Helvetica,sans-Serif" font-size="10.00">Emoji.hcEmoji_Chrome_Test</text>
</a>
</g>
</g>
<!-- Node0&#45;&gt;Node1 -->
<g id="edge1" class="edge"><title>Node0&#45;&gt;Node1</title>
<path fill="none" stroke="midnightblue" d="M155.167,-81.4038C177.955,-86.8243 202.876,-92.752 224.913,-97.9938"/>
<polygon fill="midnightblue" stroke="midnightblue" points="155.745,-77.9438 145.207,-79.0346 154.125,-84.7538 155.745,-77.9438"/>
</g>
<!-- Node2 -->
<g id="node3" class="node"><title>Node2</title>
<g id="a_node3"><a xlink:href="classhc_1_1testcases_1_1hcguicomponent_1_1hc_emoji_1_1hc_emoji___firefox___test.html" target="_top" xlink:title="hc.testcases.hcguicomponent.hc\lEmoji.hcEmoji_Firefox_Test">
<polygon fill="white" stroke="black" points="208.5,-49 208.5,-79 369.5,-79 369.5,-49 208.5,-49"/>
<text text-anchor="start" x="216.5" y="-67" font-family="Helvetica,sans-Serif" font-size="10.00">hc.testcases.hcguicomponent.hc</text>
<text text-anchor="middle" x="289" y="-56" font-family="Helvetica,sans-Serif" font-size="10.00">Emoji.hcEmoji_Firefox_Test</text>
</a>
</g>
</g>
<!-- Node0&#45;&gt;Node2 -->
<g id="edge2" class="edge"><title>Node0&#45;&gt;Node2</title>
<path fill="none" stroke="midnightblue" d="M171.764,-64C183.899,-64 196.283,-64 208.227,-64"/>
<polygon fill="midnightblue" stroke="midnightblue" points="171.645,-60.5001 161.645,-64 171.645,-67.5001 171.645,-60.5001"/>
</g>
<!-- Node3 -->
<g id="node4" class="node"><title>Node3</title>
<g id="a_node4"><a xlink:href="classhc_1_1testcases_1_1hcguicomponent_1_1hc_emoji_1_1hc_emoji___h_t_m_l_unit_driver___test.html" target="_top" xlink:title="hc.testcases.hcguicomponent.hc\lEmoji.hcEmoji_HTMLUnitDriver_Test">
<polygon fill="white" stroke="black" points="198.5,-0 198.5,-30 379.5,-30 379.5,-0 198.5,-0"/>
<text text-anchor="start" x="206.5" y="-18" font-family="Helvetica,sans-Serif" font-size="10.00">hc.testcases.hcguicomponent.hc</text>
<text text-anchor="middle" x="289" y="-7" font-family="Helvetica,sans-Serif" font-size="10.00">Emoji.hcEmoji_HTMLUnitDriver_Test</text>
</a>
</g>
</g>
<!-- Node0&#45;&gt;Node3 -->
<g id="edge3" class="edge"><title>Node0&#45;&gt;Node3</title>
<path fill="none" stroke="midnightblue" d="M155.167,-46.5962C177.955,-41.1757 202.876,-35.248 224.913,-30.0062"/>
<polygon fill="midnightblue" stroke="midnightblue" points="154.125,-43.2462 145.207,-48.9654 155.745,-50.0562 154.125,-43.2462"/>
</g>
</g>
</svg>
