<?xml version="1.0" encoding="UTF-8" standalone="no"?>
<!DOCTYPE svg PUBLIC "-//W3C//DTD SVG 1.1//EN"
 "http://www.w3.org/Graphics/SVG/1.1/DTD/svg11.dtd">
<!-- Generated by graphviz version 2.36.0 (20140111.2315)
 -->
<!-- Title: Grafische Darstellung der Klassenhierarchie Pages: 1 -->
<svg width="468pt" height="77pt"
 viewBox="0.00 0.00 468.00 77.00" xmlns="http://www.w3.org/2000/svg" xmlns:xlink="http://www.w3.org/1999/xlink">
<g id="graph0" class="graph" transform="scale(1 1) rotate(0) translate(4 73)">
<title>Grafische Darstellung der Klassenhierarchie</title>
<polygon fill="white" stroke="none" points="-4,4 -4,-73 464,-73 464,4 -4,4"/>
<!-- Node25 -->
<g id="node1" class="node"><title>Node25</title>
<polygon fill="white" stroke="#bfbfbf" points="0.5,-22.5 0.5,-41.5 57.5,-41.5 57.5,-22.5 0.5,-22.5"/>
<text text-anchor="middle" x="29" y="-29.5" font-family="Helvetica,sans-Serif" font-size="10.00">SeButton</text>
</g>
<!-- Node0 -->
<g id="node2" class="node"><title>Node0</title>
<g id="a_node2"><a xlink:href="classokw_1_1gui_1_1adapter_1_1selenium_1_1hc_1_1hc_button.html" target="_top" xlink:title="okw.gui.adapter.selenium.hc.hc\lButton">
<polygon fill="white" stroke="black" points="103.5,-39 103.5,-69 258.5,-69 258.5,-39 103.5,-39"/>
<text text-anchor="start" x="111.5" y="-57" font-family="Helvetica,sans-Serif" font-size="10.00">okw.gui.adapter.selenium.hc.hc</text>
<text text-anchor="middle" x="181" y="-46" font-family="Helvetica,sans-Serif" font-size="10.00">Button</text>
</a>
</g>
</g>
<!-- Node25&#45;&gt;Node0 -->
<g id="edge1" class="edge"><title>Node25&#45;&gt;Node0</title>
<path fill="none" stroke="midnightblue" d="M67.5025,-37.5004C78.4253,-39.1024 90.7768,-40.9139 103.194,-42.7352"/>
<polygon fill="midnightblue" stroke="midnightblue" points="67.9144,-34.0234 57.5123,-36.0351 66.8985,-40.9493 67.9144,-34.0234"/>
</g>
<!-- Node28 -->
<g id="node4" class="node"><title>Node28</title>
<g id="a_node4"><a xlink:href="classokw_1_1gui_1_1adapter_1_1selenium_1_1hc_1_1hc_link.html" target="_top" xlink:title="okw.gui.adapter.selenium.hc.hcLink">
<polygon fill="white" stroke="black" points="94.5,-0.5 94.5,-19.5 267.5,-19.5 267.5,-0.5 94.5,-0.5"/>
<text text-anchor="middle" x="181" y="-7.5" font-family="Helvetica,sans-Serif" font-size="10.00">okw.gui.adapter.selenium.hc.hcLink</text>
</a>
</g>
</g>
<!-- Node25&#45;&gt;Node28 -->
<g id="edge3" class="edge"><title>Node25&#45;&gt;Node28</title>
<path fill="none" stroke="midnightblue" d="M67.5047,-26.4993C81.89,-24.3895 98.7531,-21.9162 114.981,-19.5361"/>
<polygon fill="midnightblue" stroke="midnightblue" points="66.8985,-23.0507 57.5123,-27.9649 67.9144,-29.9766 66.8985,-23.0507"/>
</g>
<!-- Node1 -->
<g id="node3" class="node"><title>Node1</title>
<g id="a_node3"><a xlink:href="classokw_1_1gui_1_1adapter_1_1selenium_1_1hc_1_1hc_button_with_count_label.html" target="_top" xlink:title="Klasse representiert einen Button mit hc&#45;count&#45;label. ">
<polygon fill="white" stroke="black" points="304.5,-39 304.5,-69 459.5,-69 459.5,-39 304.5,-39"/>
<text text-anchor="start" x="312.5" y="-57" font-family="Helvetica,sans-Serif" font-size="10.00">okw.gui.adapter.selenium.hc.hc</text>
<text text-anchor="middle" x="382" y="-46" font-family="Helvetica,sans-Serif" font-size="10.00">ButtonWithCountLabel</text>
</a>
</g>
</g>
<!-- Node0&#45;&gt;Node1 -->
<g id="edge2" class="edge"><title>Node0&#45;&gt;Node1</title>
<path fill="none" stroke="midnightblue" d="M268.945,-54C280.745,-54 292.785,-54 304.386,-54"/>
<polygon fill="midnightblue" stroke="midnightblue" points="268.654,-50.5001 258.654,-54 268.654,-57.5001 268.654,-50.5001"/>
</g>
</g>
</svg>
