<?xml version="1.0" encoding="UTF-8" standalone="no"?>
<!DOCTYPE svg PUBLIC "-//W3C//DTD SVG 1.1//EN"
 "http://www.w3.org/Graphics/SVG/1.1/DTD/svg11.dtd">
<!-- Generated by graphviz version 2.36.0 (20140111.2315)
 -->
<!-- Title: Grafische Darstellung der Klassenhierarchie Pages: 1 -->
<svg width="416pt" height="136pt"
 viewBox="0.00 0.00 416.00 136.00" xmlns="http://www.w3.org/2000/svg" xmlns:xlink="http://www.w3.org/1999/xlink">
<g id="graph0" class="graph" transform="scale(1 1) rotate(0) translate(4 132)">
<title>Grafische Darstellung der Klassenhierarchie</title>
<polygon fill="white" stroke="none" points="-4,4 -4,-132 412,-132 412,4 -4,4"/>
<!-- Node0 -->
<g id="node1" class="node"><title>Node0</title>
<g id="a_node1"><a xlink:href="classhc_1_1testcases_1_1hc_1_1hc_contibution_post_1_1hc_contibution_post___test.html" target="_top" xlink:title="Test&#45;Klasse zur Prüfung des HC&#45;Beitrages &quot;Post&quot;. ">
<polygon fill="white" stroke="black" points="0.5,-49 0.5,-79 149.5,-79 149.5,-49 0.5,-49"/>
<text text-anchor="start" x="8.5" y="-67" font-family="Helvetica,sans-Serif" font-size="10.00">hc.testcases.hc.hcContibution</text>
<text text-anchor="middle" x="75" y="-56" font-family="Helvetica,sans-Serif" font-size="10.00">Post.hcContibutionPost_Test</text>
</a>
</g>
</g>
<!-- Node1 -->
<g id="node2" class="node"><title>Node1</title>
<g id="a_node2"><a xlink:href="classhc_1_1testcases_1_1hc_1_1hc_contibution_post_1_1hc_contibution_post___chrome___test.html" target="_top" xlink:title="hc.testcases.hc.hcContibution\lPost.hcContibutionPost_Chrome_Test">
<polygon fill="white" stroke="black" points="204.5,-98 204.5,-128 389.5,-128 389.5,-98 204.5,-98"/>
<text text-anchor="start" x="212.5" y="-116" font-family="Helvetica,sans-Serif" font-size="10.00">hc.testcases.hc.hcContibution</text>
<text text-anchor="middle" x="297" y="-105" font-family="Helvetica,sans-Serif" font-size="10.00">Post.hcContibutionPost_Chrome_Test</text>
</a>
</g>
</g>
<!-- Node0&#45;&gt;Node1 -->
<g id="edge1" class="edge"><title>Node0&#45;&gt;Node1</title>
<path fill="none" stroke="midnightblue" d="M153.485,-81.2581C177.999,-86.718 204.88,-92.705 228.625,-97.9938"/>
<polygon fill="midnightblue" stroke="midnightblue" points="154.024,-77.7924 143.502,-79.0346 152.502,-84.625 154.024,-77.7924"/>
</g>
<!-- Node2 -->
<g id="node3" class="node"><title>Node2</title>
<g id="a_node3"><a xlink:href="classhc_1_1testcases_1_1hc_1_1hc_contibution_post_1_1hc_contibution_post___firefox___test.html" target="_top" xlink:title="hc.testcases.hc.hcContibution\lPost.hcContibutionPost_Firefox_Test">
<polygon fill="white" stroke="black" points="207,-49 207,-79 387,-79 387,-49 207,-49"/>
<text text-anchor="start" x="215" y="-67" font-family="Helvetica,sans-Serif" font-size="10.00">hc.testcases.hc.hcContibution</text>
<text text-anchor="middle" x="297" y="-56" font-family="Helvetica,sans-Serif" font-size="10.00">Post.hcContibutionPost_Firefox_Test</text>
</a>
</g>
</g>
<!-- Node0&#45;&gt;Node2 -->
<g id="edge2" class="edge"><title>Node0&#45;&gt;Node2</title>
<path fill="none" stroke="midnightblue" d="M159.595,-64C175.045,-64 191.233,-64 206.84,-64"/>
<polygon fill="midnightblue" stroke="midnightblue" points="159.563,-60.5001 149.563,-64 159.563,-67.5001 159.563,-60.5001"/>
</g>
<!-- Node3 -->
<g id="node4" class="node"><title>Node3</title>
<g id="a_node4"><a xlink:href="classhc_1_1testcases_1_1hc_1_1hc_contibution_post_1_1hc_contibution_post___h_t_m_l_unit_driver___test.html" target="_top" xlink:title="hc.testcases.hc.hcContibution\lPost.hcContibutionPost_HTMLUnitDriver_Test">
<polygon fill="white" stroke="black" points="186.5,-0 186.5,-30 407.5,-30 407.5,-0 186.5,-0"/>
<text text-anchor="start" x="194.5" y="-18" font-family="Helvetica,sans-Serif" font-size="10.00">hc.testcases.hc.hcContibution</text>
<text text-anchor="middle" x="297" y="-7" font-family="Helvetica,sans-Serif" font-size="10.00">Post.hcContibutionPost_HTMLUnitDriver_Test</text>
</a>
</g>
</g>
<!-- Node0&#45;&gt;Node3 -->
<g id="edge3" class="edge"><title>Node0&#45;&gt;Node3</title>
<path fill="none" stroke="midnightblue" d="M153.485,-46.7419C177.999,-41.282 204.88,-35.295 228.625,-30.0062"/>
<polygon fill="midnightblue" stroke="midnightblue" points="152.502,-43.375 143.502,-48.9654 154.024,-50.2076 152.502,-43.375"/>
</g>
</g>
</svg>
