<?xml version="1.0" encoding="UTF-8" standalone="no"?>
<!DOCTYPE svg PUBLIC "-//W3C//DTD SVG 1.1//EN"
 "http://www.w3.org/Graphics/SVG/1.1/DTD/svg11.dtd">
<!-- Generated by graphviz version 2.36.0 (20140111.2315)
 -->
<!-- Title: Grafische Darstellung der Klassenhierarchie Pages: 1 -->
<svg width="304pt" height="87pt"
 viewBox="0.00 0.00 304.00 87.00" xmlns="http://www.w3.org/2000/svg" xmlns:xlink="http://www.w3.org/1999/xlink">
<g id="graph0" class="graph" transform="scale(1 1) rotate(0) translate(4 83)">
<title>Grafische Darstellung der Klassenhierarchie</title>
<polygon fill="white" stroke="none" points="-4,4 -4,-83 300,-83 300,4 -4,4"/>
<!-- Node36 -->
<g id="node1" class="node"><title>Node36</title>
<polygon fill="white" stroke="#bfbfbf" points="0,-29.5 0,-48.5 104,-48.5 104,-29.5 0,-29.5"/>
<text text-anchor="middle" x="52" y="-36.5" font-family="Helvetica,sans-Serif" font-size="10.00">SeAnyChildWindow</text>
</g>
<!-- Node0 -->
<g id="node2" class="node"><title>Node0</title>
<g id="a_node2"><a xlink:href="classokw_1_1gui_1_1adapter_1_1selenium_1_1hc_1_1hc_notices_toast_danger.html" target="_top" xlink:title="okw.gui.adapter.selenium.hc.hc\lNoticesToastDanger">
<polygon fill="white" stroke="black" points="140.5,-49 140.5,-79 295.5,-79 295.5,-49 140.5,-49"/>
<text text-anchor="start" x="148.5" y="-67" font-family="Helvetica,sans-Serif" font-size="10.00">okw.gui.adapter.selenium.hc.hc</text>
<text text-anchor="middle" x="218" y="-56" font-family="Helvetica,sans-Serif" font-size="10.00">NoticesToastDanger</text>
</a>
</g>
</g>
<!-- Node36&#45;&gt;Node0 -->
<g id="edge1" class="edge"><title>Node36&#45;&gt;Node0</title>
<path fill="none" stroke="midnightblue" d="M114.501,-48.3751C122.894,-49.6546 131.593,-50.9807 140.215,-52.295"/>
<polygon fill="midnightblue" stroke="midnightblue" points="114.854,-44.8886 104.441,-46.8416 113.799,-51.8087 114.854,-44.8886"/>
</g>
<!-- Node38 -->
<g id="node3" class="node"><title>Node38</title>
<g id="a_node3"><a xlink:href="classokw_1_1gui_1_1container_1_1hc_1_1hc_main_navigation.html" target="_top" xlink:title="main navigation GUI&#45;Container Klasse enthält alle GUI&#45;Objekte der Kopfzeile (Header). ">
<polygon fill="white" stroke="black" points="147.5,-0 147.5,-30 288.5,-30 288.5,-0 147.5,-0"/>
<text text-anchor="start" x="155.5" y="-18" font-family="Helvetica,sans-Serif" font-size="10.00">okw.gui.container.hc.hcMain</text>
<text text-anchor="middle" x="218" y="-7" font-family="Helvetica,sans-Serif" font-size="10.00">Navigation</text>
</a>
</g>
</g>
<!-- Node36&#45;&gt;Node38 -->
<g id="edge2" class="edge"><title>Node36&#45;&gt;Node38</title>
<path fill="none" stroke="midnightblue" d="M114.542,-29.9939C125.264,-28.4247 136.485,-26.7827 147.406,-25.1845"/>
<polygon fill="midnightblue" stroke="midnightblue" points="113.828,-26.5609 104.441,-31.4721 114.842,-33.4871 113.828,-26.5609"/>
</g>
</g>
</svg>
