<?xml version="1.0" encoding="UTF-8" standalone="no"?>
<!DOCTYPE svg PUBLIC "-//W3C//DTD SVG 1.1//EN"
 "http://www.w3.org/Graphics/SVG/1.1/DTD/svg11.dtd">
<!-- Generated by graphviz version 2.36.0 (20140111.2315)
 -->
<!-- Title: Grafische Darstellung der Klassenhierarchie Pages: 1 -->
<svg width="368pt" height="136pt"
 viewBox="0.00 0.00 368.00 136.00" xmlns="http://www.w3.org/2000/svg" xmlns:xlink="http://www.w3.org/1999/xlink">
<g id="graph0" class="graph" transform="scale(1 1) rotate(0) translate(4 132)">
<title>Grafische Darstellung der Klassenhierarchie</title>
<polygon fill="white" stroke="none" points="-4,4 -4,-132 364,-132 364,4 -4,4"/>
<!-- Node0 -->
<g id="node1" class="node"><title>Node0</title>
<g id="a_node1"><a xlink:href="classhc_1_1testcases_1_1hc_emoji_1_1hc_emoji___test.html" target="_top" xlink:title="Test&#45;Klasse zur Prüfung der Implementierung der Klasse okw.gui.adapter.selenium.hc.hcEmoji. ">
<polygon fill="white" stroke="black" points="0,-54.5 0,-73.5 174,-73.5 174,-54.5 0,-54.5"/>
<text text-anchor="middle" x="87" y="-61.5" font-family="Helvetica,sans-Serif" font-size="10.00">hc.testcases.hcEmoji.hcEmoji_Test</text>
</a>
</g>
</g>
<!-- Node1 -->
<g id="node2" class="node"><title>Node1</title>
<g id="a_node2"><a xlink:href="classhc_1_1testcases_1_1hc_emoji_1_1hc_emoji___chrome___test.html" target="_top" xlink:title="hc.testcases.hcEmoji.hcEmoji\l_Chrome_Test">
<polygon fill="white" stroke="black" points="210.5,-98 210.5,-128 359.5,-128 359.5,-98 210.5,-98"/>
<text text-anchor="start" x="218.5" y="-116" font-family="Helvetica,sans-Serif" font-size="10.00">hc.testcases.hcEmoji.hcEmoji</text>
<text text-anchor="middle" x="285" y="-105" font-family="Helvetica,sans-Serif" font-size="10.00">_Chrome_Test</text>
</a>
</g>
</g>
<!-- Node0&#45;&gt;Node1 -->
<g id="edge1" class="edge"><title>Node0&#45;&gt;Node1</title>
<path fill="none" stroke="midnightblue" d="M136.057,-76.0142C162.54,-82.635 195.664,-90.9161 223.852,-97.963"/>
<polygon fill="midnightblue" stroke="midnightblue" points="136.806,-72.5939 126.256,-73.564 135.109,-79.3849 136.806,-72.5939"/>
</g>
<!-- Node2 -->
<g id="node3" class="node"><title>Node2</title>
<g id="a_node3"><a xlink:href="classhc_1_1testcases_1_1hc_emoji_1_1hc_emoji___firefox___test.html" target="_top" xlink:title="hc.testcases.hcEmoji.hcEmoji\l_Firefox_Test">
<polygon fill="white" stroke="black" points="210.5,-49 210.5,-79 359.5,-79 359.5,-49 210.5,-49"/>
<text text-anchor="start" x="218.5" y="-67" font-family="Helvetica,sans-Serif" font-size="10.00">hc.testcases.hcEmoji.hcEmoji</text>
<text text-anchor="middle" x="285" y="-56" font-family="Helvetica,sans-Serif" font-size="10.00">_Firefox_Test</text>
</a>
</g>
</g>
<!-- Node0&#45;&gt;Node2 -->
<g id="edge2" class="edge"><title>Node0&#45;&gt;Node2</title>
<path fill="none" stroke="midnightblue" d="M184.433,-64C193.124,-64 201.832,-64 210.283,-64"/>
<polygon fill="midnightblue" stroke="midnightblue" points="184.254,-60.5001 174.254,-64 184.254,-67.5001 184.254,-60.5001"/>
</g>
<!-- Node3 -->
<g id="node4" class="node"><title>Node3</title>
<g id="a_node4"><a xlink:href="classhc_1_1testcases_1_1hc_emoji_1_1hc_emoji___h_t_m_l_unit_driver___test.html" target="_top" xlink:title="hc.testcases.hcEmoji.hcEmoji\l_HTMLUnitDriver_Test">
<polygon fill="white" stroke="black" points="210.5,-0 210.5,-30 359.5,-30 359.5,-0 210.5,-0"/>
<text text-anchor="start" x="218.5" y="-18" font-family="Helvetica,sans-Serif" font-size="10.00">hc.testcases.hcEmoji.hcEmoji</text>
<text text-anchor="middle" x="285" y="-7" font-family="Helvetica,sans-Serif" font-size="10.00">_HTMLUnitDriver_Test</text>
</a>
</g>
</g>
<!-- Node0&#45;&gt;Node3 -->
<g id="edge3" class="edge"><title>Node0&#45;&gt;Node3</title>
<path fill="none" stroke="midnightblue" d="M136.057,-51.9858C162.54,-45.365 195.664,-37.0839 223.852,-30.037"/>
<polygon fill="midnightblue" stroke="midnightblue" points="135.109,-48.6151 126.256,-54.436 136.806,-55.4061 135.109,-48.6151"/>
</g>
</g>
</svg>
