<?xml version="1.0" encoding="UTF-8" standalone="no"?>
<!DOCTYPE svg PUBLIC "-//W3C//DTD SVG 1.1//EN"
 "http://www.w3.org/Graphics/SVG/1.1/DTD/svg11.dtd">
<!-- Generated by graphviz version 2.36.0 (20140111.2315)
 -->
<!-- Title: Grafische Darstellung der Klassenhierarchie Pages: 1 -->
<svg width="360pt" height="136pt"
 viewBox="0.00 0.00 360.00 136.00" xmlns="http://www.w3.org/2000/svg" xmlns:xlink="http://www.w3.org/1999/xlink">
<g id="graph0" class="graph" transform="scale(1 1) rotate(0) translate(4 132)">
<title>Grafische Darstellung der Klassenhierarchie</title>
<polygon fill="white" stroke="none" points="-4,4 -4,-132 356,-132 356,4 -4,4"/>
<!-- Node0 -->
<g id="node1" class="node"><title>Node0</title>
<g id="a_node1"><a xlink:href="classhc_1_1testcases_1_1hc_1_1hc_welcome_1_1hc_welcome___test.html" target="_top" xlink:title="Test&#45;Klasse zur Prüfung der Implementierung der Klasse okw.gui.adapter.selenium.hc.hcEmoji. ">
<polygon fill="white" stroke="black" points="0.5,-49 0.5,-79 155.5,-79 155.5,-49 0.5,-49"/>
<text text-anchor="start" x="8.5" y="-67" font-family="Helvetica,sans-Serif" font-size="10.00">hc.testcases.hc.hcWelcome.hc</text>
<text text-anchor="middle" x="78" y="-56" font-family="Helvetica,sans-Serif" font-size="10.00">Welcome_Test</text>
</a>
</g>
</g>
<!-- Node1 -->
<g id="node2" class="node"><title>Node1</title>
<g id="a_node2"><a xlink:href="classhc_1_1testcases_1_1hc_1_1hc_welcome_1_1hc_welcome___chrome___test.html" target="_top" xlink:title="hc.testcases.hc.hcWelcome.hc\lWelcome_Chrome_Test">
<polygon fill="white" stroke="black" points="194.5,-98 194.5,-128 349.5,-128 349.5,-98 194.5,-98"/>
<text text-anchor="start" x="202.5" y="-116" font-family="Helvetica,sans-Serif" font-size="10.00">hc.testcases.hc.hcWelcome.hc</text>
<text text-anchor="middle" x="272" y="-105" font-family="Helvetica,sans-Serif" font-size="10.00">Welcome_Chrome_Test</text>
</a>
</g>
</g>
<!-- Node0&#45;&gt;Node1 -->
<g id="edge1" class="edge"><title>Node0&#45;&gt;Node1</title>
<path fill="none" stroke="midnightblue" d="M147.767,-81.5498C168.851,-86.9306 191.845,-92.799 212.2,-97.9938"/>
<polygon fill="midnightblue" stroke="midnightblue" points="148.466,-78.1162 137.911,-79.0346 146.735,-84.8988 148.466,-78.1162"/>
</g>
<!-- Node2 -->
<g id="node3" class="node"><title>Node2</title>
<g id="a_node3"><a xlink:href="classhc_1_1testcases_1_1hc_1_1hc_welcome_1_1hc_welcome___firefox___test.html" target="_top" xlink:title="hc.testcases.hc.hcWelcome.hc\lWelcome_Firefox_Test">
<polygon fill="white" stroke="black" points="194.5,-49 194.5,-79 349.5,-79 349.5,-49 194.5,-49"/>
<text text-anchor="start" x="202.5" y="-67" font-family="Helvetica,sans-Serif" font-size="10.00">hc.testcases.hc.hcWelcome.hc</text>
<text text-anchor="middle" x="272" y="-56" font-family="Helvetica,sans-Serif" font-size="10.00">Welcome_Firefox_Test</text>
</a>
</g>
</g>
<!-- Node0&#45;&gt;Node2 -->
<g id="edge2" class="edge"><title>Node0&#45;&gt;Node2</title>
<path fill="none" stroke="midnightblue" d="M165.948,-64C175.442,-64 185.055,-64 194.411,-64"/>
<polygon fill="midnightblue" stroke="midnightblue" points="165.711,-60.5001 155.711,-64 165.711,-67.5001 165.711,-60.5001"/>
</g>
<!-- Node3 -->
<g id="node4" class="node"><title>Node3</title>
<g id="a_node4"><a xlink:href="classhc_1_1testcases_1_1hc_1_1hc_welcome_1_1hc_welcome___h_t_m_l_unit_driver___test.html" target="_top" xlink:title="hc.testcases.hc.hcWelcome.hc\lWelcome_HTMLUnitDriver_Test">
<polygon fill="white" stroke="black" points="192.5,-0 192.5,-30 351.5,-30 351.5,-0 192.5,-0"/>
<text text-anchor="start" x="200.5" y="-18" font-family="Helvetica,sans-Serif" font-size="10.00">hc.testcases.hc.hcWelcome.hc</text>
<text text-anchor="middle" x="272" y="-7" font-family="Helvetica,sans-Serif" font-size="10.00">Welcome_HTMLUnitDriver_Test</text>
</a>
</g>
</g>
<!-- Node0&#45;&gt;Node3 -->
<g id="edge3" class="edge"><title>Node0&#45;&gt;Node3</title>
<path fill="none" stroke="midnightblue" d="M147.767,-46.4502C168.851,-41.0694 191.845,-35.201 212.2,-30.0062"/>
<polygon fill="midnightblue" stroke="midnightblue" points="146.735,-43.1012 137.911,-48.9654 148.466,-49.8838 146.735,-43.1012"/>
</g>
</g>
</svg>
