<?xml version="1.0" encoding="UTF-8" standalone="no"?>
<!DOCTYPE svg PUBLIC "-//W3C//DTD SVG 1.1//EN"
 "http://www.w3.org/Graphics/SVG/1.1/DTD/svg11.dtd">
<!-- Generated by graphviz version 2.36.0 (20140111.2315)
 -->
<!-- Title: Grafische Darstellung der Klassenhierarchie Pages: 1 -->
<svg width="362pt" height="136pt"
 viewBox="0.00 0.00 362.00 136.00" xmlns="http://www.w3.org/2000/svg" xmlns:xlink="http://www.w3.org/1999/xlink">
<g id="graph0" class="graph" transform="scale(1 1) rotate(0) translate(4 132)">
<title>Grafische Darstellung der Klassenhierarchie</title>
<polygon fill="white" stroke="none" points="-4,4 -4,-132 358,-132 358,4 -4,4"/>
<!-- Node0 -->
<g id="node1" class="node"><title>Node0</title>
<g id="a_node1"><a xlink:href="classhc_1_1testcases_1_1hc_login_1_1hc_login___test.html" target="_top" xlink:title="Test&#45;Klasse zur Prüfung der Implementierung der Klasse okw.gui.adapter.selenium.hc.hcEmoji. ">
<polygon fill="white" stroke="black" points="0.5,-54.5 0.5,-73.5 171.5,-73.5 171.5,-54.5 0.5,-54.5"/>
<text text-anchor="middle" x="86" y="-61.5" font-family="Helvetica,sans-Serif" font-size="10.00">hc.testcases.hcLogin.hcLogin_Test</text>
</a>
</g>
</g>
<!-- Node1 -->
<g id="node2" class="node"><title>Node1</title>
<g id="a_node2"><a xlink:href="classhc_1_1testcases_1_1hc_login_1_1hc_login___chrome___test.html" target="_top" xlink:title="hc.testcases.hcLogin.hcLogin\l_Chrome_Test">
<polygon fill="white" stroke="black" points="208,-98 208,-128 354,-128 354,-98 208,-98"/>
<text text-anchor="start" x="216" y="-116" font-family="Helvetica,sans-Serif" font-size="10.00">hc.testcases.hcLogin.hcLogin</text>
<text text-anchor="middle" x="281" y="-105" font-family="Helvetica,sans-Serif" font-size="10.00">_Chrome_Test</text>
</a>
</g>
</g>
<!-- Node0&#45;&gt;Node1 -->
<g id="edge1" class="edge"><title>Node0&#45;&gt;Node1</title>
<path fill="none" stroke="midnightblue" d="M134.666,-76.1018C160.686,-82.708 193.139,-90.9471 220.773,-97.963"/>
<polygon fill="midnightblue" stroke="midnightblue" points="135.224,-72.6325 124.671,-73.564 133.502,-79.4173 135.224,-72.6325"/>
</g>
<!-- Node2 -->
<g id="node3" class="node"><title>Node2</title>
<g id="a_node3"><a xlink:href="classhc_1_1testcases_1_1hc_login_1_1hc_login___firefox___test.html" target="_top" xlink:title="hc.testcases.hcLogin.hcLogin\l_Firefox_Test">
<polygon fill="white" stroke="black" points="208,-49 208,-79 354,-79 354,-49 208,-49"/>
<text text-anchor="start" x="216" y="-67" font-family="Helvetica,sans-Serif" font-size="10.00">hc.testcases.hcLogin.hcLogin</text>
<text text-anchor="middle" x="281" y="-56" font-family="Helvetica,sans-Serif" font-size="10.00">_Firefox_Test</text>
</a>
</g>
</g>
<!-- Node0&#45;&gt;Node2 -->
<g id="edge2" class="edge"><title>Node0&#45;&gt;Node2</title>
<path fill="none" stroke="midnightblue" d="M181.864,-64C190.585,-64 199.323,-64 207.794,-64"/>
<polygon fill="midnightblue" stroke="midnightblue" points="181.653,-60.5001 171.653,-64 181.653,-67.5001 181.653,-60.5001"/>
</g>
<!-- Node3 -->
<g id="node4" class="node"><title>Node3</title>
<g id="a_node4"><a xlink:href="classhc_1_1testcases_1_1hc_login_1_1hc_login___h_t_m_l_unit_driver___test.html" target="_top" xlink:title="hc.testcases.hcLogin.hcLogin\l_HTMLUnitDriver_Test">
<polygon fill="white" stroke="black" points="208,-0 208,-30 354,-30 354,-0 208,-0"/>
<text text-anchor="start" x="216" y="-18" font-family="Helvetica,sans-Serif" font-size="10.00">hc.testcases.hcLogin.hcLogin</text>
<text text-anchor="middle" x="281" y="-7" font-family="Helvetica,sans-Serif" font-size="10.00">_HTMLUnitDriver_Test</text>
</a>
</g>
</g>
<!-- Node0&#45;&gt;Node3 -->
<g id="edge3" class="edge"><title>Node0&#45;&gt;Node3</title>
<path fill="none" stroke="midnightblue" d="M134.666,-51.8982C160.686,-45.292 193.139,-37.0529 220.773,-30.037"/>
<polygon fill="midnightblue" stroke="midnightblue" points="133.502,-48.5827 124.671,-54.436 135.224,-55.3675 133.502,-48.5827"/>
</g>
</g>
</svg>
