<?xml version="1.0" encoding="UTF-8" standalone="no"?>
<!DOCTYPE svg PUBLIC "-//W3C//DTD SVG 1.1//EN"
 "http://www.w3.org/Graphics/SVG/1.1/DTD/svg11.dtd">
<!-- Generated by graphviz version 2.36.0 (20140111.2315)
 -->
<!-- Title: Grafische Darstellung der Klassenhierarchie Pages: 1 -->
<svg width="300pt" height="164pt"
 viewBox="0.00 0.00 300.00 164.00" xmlns="http://www.w3.org/2000/svg" xmlns:xlink="http://www.w3.org/1999/xlink">
<g id="graph0" class="graph" transform="scale(1 1) rotate(0) translate(4 160)">
<title>Grafische Darstellung der Klassenhierarchie</title>
<polygon fill="white" stroke="none" points="-4,4 -4,-160 296,-160 296,4 -4,4"/>
<!-- Node31 -->
<g id="node1" class="node"><title>Node31</title>
<polygon fill="white" stroke="#bfbfbf" points="0.5,-60.5 0.5,-79.5 87.5,-79.5 87.5,-60.5 0.5,-60.5"/>
<text text-anchor="middle" x="44" y="-67.5" font-family="Helvetica,sans-Serif" font-size="10.00">SeBrowserChild</text>
</g>
<!-- Node0 -->
<g id="node2" class="node"><title>Node0</title>
<g id="a_node2"><a xlink:href="classokw_1_1gui_1_1frames_1_1hc_1_1_h_c___introduction.html" target="_top" xlink:title="okw.gui.frames.hc.HC\l_Introduction">
<polygon fill="white" stroke="black" points="150.5,-126 150.5,-156 265.5,-156 265.5,-126 150.5,-126"/>
<text text-anchor="start" x="158.5" y="-144" font-family="Helvetica,sans-Serif" font-size="10.00">okw.gui.frames.hc.HC</text>
<text text-anchor="middle" x="208" y="-133" font-family="Helvetica,sans-Serif" font-size="10.00">_Introduction</text>
</a>
</g>
</g>
<!-- Node31&#45;&gt;Node0 -->
<g id="edge1" class="edge"><title>Node31&#45;&gt;Node0</title>
<path fill="none" stroke="midnightblue" d="M67.8161,-85.2166C83.2032,-94.9872 104.231,-107.41 124,-116 132.419,-119.659 141.539,-122.993 150.547,-125.95"/>
<polygon fill="midnightblue" stroke="midnightblue" points="69.3242,-82.0238 59.0261,-79.5336 65.5236,-87.9022 69.3242,-82.0238"/>
</g>
<!-- Node33 -->
<g id="node3" class="node"><title>Node33</title>
<g id="a_node3"><a xlink:href="classokw_1_1gui_1_1frames_1_1hc_1_1hc_contributions_write.html" target="_top" xlink:title="Frame&#45;Klasse representiert die &#39;Neuen Beitrag Anlegen&#39;&#45;Seite von Human Connection ...">
<polygon fill="white" stroke="black" points="124,-77 124,-107 292,-107 292,-77 124,-77"/>
<text text-anchor="start" x="132" y="-95" font-family="Helvetica,sans-Serif" font-size="10.00">okw.gui.frames.hc.hcContributions</text>
<text text-anchor="middle" x="208" y="-84" font-family="Helvetica,sans-Serif" font-size="10.00">Write</text>
</a>
</g>
</g>
<!-- Node31&#45;&gt;Node33 -->
<g id="edge2" class="edge"><title>Node31&#45;&gt;Node33</title>
<path fill="none" stroke="midnightblue" d="M97.6123,-77.1449C106.067,-78.293 114.993,-79.5053 123.953,-80.7221"/>
<polygon fill="midnightblue" stroke="midnightblue" points="97.9437,-73.6578 87.5636,-75.7802 97.0016,-80.5942 97.9437,-73.6578"/>
</g>
<!-- Node34 -->
<g id="node4" class="node"><title>Node34</title>
<g id="a_node4"><a xlink:href="classokw_1_1gui_1_1frames_1_1hc_1_1hc_login.html" target="_top" xlink:title="Klasse representiert den Login&#45;Dialog von Human Connection ">
<polygon fill="white" stroke="black" points="141,-38.5 141,-57.5 275,-57.5 275,-38.5 141,-38.5"/>
<text text-anchor="middle" x="208" y="-45.5" font-family="Helvetica,sans-Serif" font-size="10.00">okw.gui.frames.hc.hcLogin</text>
</a>
</g>
</g>
<!-- Node31&#45;&gt;Node34 -->
<g id="edge3" class="edge"><title>Node31&#45;&gt;Node34</title>
<path fill="none" stroke="midnightblue" d="M97.8075,-62.8286C111.56,-60.961 126.551,-58.9252 140.897,-56.977"/>
<polygon fill="midnightblue" stroke="midnightblue" points="97.0016,-59.4058 87.5636,-64.2198 97.9437,-66.3422 97.0016,-59.4058"/>
</g>
<!-- Node35 -->
<g id="node5" class="node"><title>Node35</title>
<g id="a_node5"><a xlink:href="classokw_1_1gui_1_1frames_1_1hc_1_1hc_main_page.html" target="_top" xlink:title="Frame&#45;Klasse representiert die &#39;Welcome &#45; Human Connection&#39;&#45;Seite von Human Connection ...">
<polygon fill="white" stroke="black" points="131,-0.5 131,-19.5 285,-19.5 285,-0.5 131,-0.5"/>
<text text-anchor="middle" x="208" y="-7.5" font-family="Helvetica,sans-Serif" font-size="10.00">okw.gui.frames.hc.hcMainPage</text>
</a>
</g>
</g>
<!-- Node31&#45;&gt;Node35 -->
<g id="edge4" class="edge"><title>Node31&#45;&gt;Node35</title>
<path fill="none" stroke="midnightblue" d="M69.2861,-55.3439C84.5488,-46.658 104.9,-36.0127 124,-29 134.13,-25.2807 145.232,-22.1376 155.927,-19.5445"/>
<polygon fill="midnightblue" stroke="midnightblue" points="67.3863,-52.3998 60.4971,-60.449 70.9022,-58.4528 67.3863,-52.3998"/>
</g>
</g>
</svg>
