<?xml version="1.0" encoding="UTF-8" standalone="no"?>
<!DOCTYPE svg PUBLIC "-//W3C//DTD SVG 1.1//EN"
 "http://www.w3.org/Graphics/SVG/1.1/DTD/svg11.dtd">
<!-- Generated by graphviz version 2.36.0 (20140111.2315)
 -->
<!-- Title: Grafische Darstellung der Klassenhierarchie Pages: 1 -->
<svg width="324pt" height="136pt"
 viewBox="0.00 0.00 324.00 136.00" xmlns="http://www.w3.org/2000/svg" xmlns:xlink="http://www.w3.org/1999/xlink">
<g id="graph0" class="graph" transform="scale(1 1) rotate(0) translate(4 132)">
<title>Grafische Darstellung der Klassenhierarchie</title>
<polygon fill="white" stroke="none" points="-4,4 -4,-132 320,-132 320,4 -4,4"/>
<!-- Node0 -->
<g id="node1" class="node"><title>Node0</title>
<g id="a_node1"><a xlink:href="classhc_1_1testcases_1_1hc_1_1hc_login_1_1hc_login___test.html" target="_top" xlink:title="Test&#45;Klasse zur Prüfung der Implementierung der Klasse okw.gui.adapter.selenium.hc.hcEmoji. ">
<polygon fill="white" stroke="black" points="0.5,-49 0.5,-79 137.5,-79 137.5,-49 0.5,-49"/>
<text text-anchor="start" x="8.5" y="-67" font-family="Helvetica,sans-Serif" font-size="10.00">hc.testcases.hc.hcLogin.hc</text>
<text text-anchor="middle" x="69" y="-56" font-family="Helvetica,sans-Serif" font-size="10.00">Login_Test</text>
</a>
</g>
</g>
<!-- Node1 -->
<g id="node2" class="node"><title>Node1</title>
<g id="a_node2"><a xlink:href="classhc_1_1testcases_1_1hc_1_1hc_login_1_1hc_login___chrome___test.html" target="_top" xlink:title="hc.testcases.hc.hcLogin.hc\lLogin_Chrome_Test">
<polygon fill="white" stroke="black" points="176.5,-98 176.5,-128 313.5,-128 313.5,-98 176.5,-98"/>
<text text-anchor="start" x="184.5" y="-116" font-family="Helvetica,sans-Serif" font-size="10.00">hc.testcases.hc.hcLogin.hc</text>
<text text-anchor="middle" x="245" y="-105" font-family="Helvetica,sans-Serif" font-size="10.00">Login_Chrome_Test</text>
</a>
</g>
</g>
<!-- Node0&#45;&gt;Node1 -->
<g id="edge1" class="edge"><title>Node0&#45;&gt;Node1</title>
<path fill="none" stroke="midnightblue" d="M133.284,-81.8212C152.07,-87.1118 172.455,-92.8522 190.552,-97.9484"/>
<polygon fill="midnightblue" stroke="midnightblue" points="134.2,-78.4432 123.626,-79.1014 132.302,-85.1811 134.2,-78.4432"/>
</g>
<!-- Node2 -->
<g id="node3" class="node"><title>Node2</title>
<g id="a_node3"><a xlink:href="classhc_1_1testcases_1_1hc_1_1hc_login_1_1hc_login___firefox___test.html" target="_top" xlink:title="hc.testcases.hc.hcLogin.hc\lLogin_Firefox_Test">
<polygon fill="white" stroke="black" points="176.5,-49 176.5,-79 313.5,-79 313.5,-49 176.5,-49"/>
<text text-anchor="start" x="184.5" y="-67" font-family="Helvetica,sans-Serif" font-size="10.00">hc.testcases.hc.hcLogin.hc</text>
<text text-anchor="middle" x="245" y="-56" font-family="Helvetica,sans-Serif" font-size="10.00">Login_Firefox_Test</text>
</a>
</g>
</g>
<!-- Node0&#45;&gt;Node2 -->
<g id="edge2" class="edge"><title>Node0&#45;&gt;Node2</title>
<path fill="none" stroke="midnightblue" d="M147.984,-64C157.469,-64 167.098,-64 176.414,-64"/>
<polygon fill="midnightblue" stroke="midnightblue" points="147.771,-60.5001 137.771,-64 147.771,-67.5001 147.771,-60.5001"/>
</g>
<!-- Node3 -->
<g id="node4" class="node"><title>Node3</title>
<g id="a_node4"><a xlink:href="classhc_1_1testcases_1_1hc_1_1hc_login_1_1hc_login___h_t_m_l_unit_driver___test.html" target="_top" xlink:title="hc.testcases.hc.hcLogin.hc\lLogin_HTMLUnitDriver_Test">
<polygon fill="white" stroke="black" points="174.5,-0 174.5,-30 315.5,-30 315.5,-0 174.5,-0"/>
<text text-anchor="start" x="182.5" y="-18" font-family="Helvetica,sans-Serif" font-size="10.00">hc.testcases.hc.hcLogin.hc</text>
<text text-anchor="middle" x="245" y="-7" font-family="Helvetica,sans-Serif" font-size="10.00">Login_HTMLUnitDriver_Test</text>
</a>
</g>
</g>
<!-- Node0&#45;&gt;Node3 -->
<g id="edge3" class="edge"><title>Node0&#45;&gt;Node3</title>
<path fill="none" stroke="midnightblue" d="M133.284,-46.1788C152.07,-40.8882 172.455,-35.1478 190.552,-30.0516"/>
<polygon fill="midnightblue" stroke="midnightblue" points="132.302,-42.8189 123.626,-48.8986 134.2,-49.5568 132.302,-42.8189"/>
</g>
</g>
</svg>
