<?xml version="1.0" encoding="UTF-8" standalone="no"?>
<!DOCTYPE svg PUBLIC "-//W3C//DTD SVG 1.1//EN"
 "http://www.w3.org/Graphics/SVG/1.1/DTD/svg11.dtd">
<!-- Generated by graphviz version 2.36.0 (20140111.2315)
 -->
<!-- Title: Grafische Darstellung der Klassenhierarchie Pages: 1 -->
<svg width="400pt" height="169pt"
 viewBox="0.00 0.00 400.00 169.00" xmlns="http://www.w3.org/2000/svg" xmlns:xlink="http://www.w3.org/1999/xlink">
<g id="graph0" class="graph" transform="scale(1 1) rotate(0) translate(4 165)">
<title>Grafische Darstellung der Klassenhierarchie</title>
<polygon fill="white" stroke="none" points="-4,4 -4,-165 396,-165 396,4 -4,4"/>
<!-- Node0 -->
<g id="node1" class="node"><title>Node0</title>
<g id="a_node1"><a xlink:href="classhc_1_1testcases_1_1hcguicomponent_1_1hc_button_with_count_label_1_1hc_button_with_count_label___test.html" target="_top" xlink:title="hc.testcases.hcguicomponent.hc\lButtonWithCountLabel.hcButtonWith\lCountLabel_Test">
<polygon fill="white" stroke="black" points="0.5,-59.5 0.5,-100.5 177.5,-100.5 177.5,-59.5 0.5,-59.5"/>
<text text-anchor="start" x="8.5" y="-88.5" font-family="Helvetica,sans-Serif" font-size="10.00">hc.testcases.hcguicomponent.hc</text>
<text text-anchor="start" x="8.5" y="-77.5" font-family="Helvetica,sans-Serif" font-size="10.00">ButtonWithCountLabel.hcButtonWith</text>
<text text-anchor="middle" x="89" y="-66.5" font-family="Helvetica,sans-Serif" font-size="10.00">CountLabel_Test</text>
</a>
</g>
</g>
<!-- Node1 -->
<g id="node2" class="node"><title>Node1</title>
<g id="a_node2"><a xlink:href="classhc_1_1testcases_1_1hcguicomponent_1_1hc_button_with_count_label_1_1hc_button_with_count_label___chrome___test.html" target="_top" xlink:title="hc.testcases.hcguicomponent.hc\lButtonWithCountLabel.hcButtonWith\lCountLabel_Chrome_Test">
<polygon fill="white" stroke="black" points="214.5,-119.5 214.5,-160.5 391.5,-160.5 391.5,-119.5 214.5,-119.5"/>
<text text-anchor="start" x="222.5" y="-148.5" font-family="Helvetica,sans-Serif" font-size="10.00">hc.testcases.hcguicomponent.hc</text>
<text text-anchor="start" x="222.5" y="-137.5" font-family="Helvetica,sans-Serif" font-size="10.00">ButtonWithCountLabel.hcButtonWith</text>
<text text-anchor="middle" x="303" y="-126.5" font-family="Helvetica,sans-Serif" font-size="10.00">CountLabel_Chrome_Test</text>
</a>
</g>
</g>
<!-- Node0&#45;&gt;Node1 -->
<g id="edge1" class="edge"><title>Node0&#45;&gt;Node1</title>
<path fill="none" stroke="midnightblue" d="M172.392,-103.318C191.206,-108.643 211.066,-114.264 229.433,-119.462"/>
<polygon fill="midnightblue" stroke="midnightblue" points="173.237,-99.9202 162.662,-100.565 171.331,-106.656 173.237,-99.9202"/>
</g>
<!-- Node2 -->
<g id="node3" class="node"><title>Node2</title>
<g id="a_node3"><a xlink:href="classhc_1_1testcases_1_1hcguicomponent_1_1hc_button_with_count_label_1_1hc_button_with_count_label___firefox___test.html" target="_top" xlink:title="hc.testcases.hcguicomponent.hc\lButtonWithCountLabel.hcButtonWith\lCountLabel_Firefox_Test">
<polygon fill="white" stroke="black" points="214.5,-59.5 214.5,-100.5 391.5,-100.5 391.5,-59.5 214.5,-59.5"/>
<text text-anchor="start" x="222.5" y="-88.5" font-family="Helvetica,sans-Serif" font-size="10.00">hc.testcases.hcguicomponent.hc</text>
<text text-anchor="start" x="222.5" y="-77.5" font-family="Helvetica,sans-Serif" font-size="10.00">ButtonWithCountLabel.hcButtonWith</text>
<text text-anchor="middle" x="303" y="-66.5" font-family="Helvetica,sans-Serif" font-size="10.00">CountLabel_Firefox_Test</text>
</a>
</g>
</g>
<!-- Node0&#45;&gt;Node2 -->
<g id="edge2" class="edge"><title>Node0&#45;&gt;Node2</title>
<path fill="none" stroke="midnightblue" d="M188.01,-80C196.783,-80 205.629,-80 214.307,-80"/>
<polygon fill="midnightblue" stroke="midnightblue" points="187.759,-76.5001 177.759,-80 187.759,-83.5001 187.759,-76.5001"/>
</g>
<!-- Node3 -->
<g id="node4" class="node"><title>Node3</title>
<g id="a_node4"><a xlink:href="classhc_1_1testcases_1_1hcguicomponent_1_1hc_button_with_count_label_1_1hc_button_with_count_label___h_t_m_l_unit_driver___test.html" target="_top" xlink:title="hc.testcases.hcguicomponent.hc\lButtonWithCountLabel.hcButtonWith\lCountLabel_HTMLUnitDriver_Test">
<polygon fill="white" stroke="black" points="214.5,0.5 214.5,-40.5 391.5,-40.5 391.5,0.5 214.5,0.5"/>
<text text-anchor="start" x="222.5" y="-28.5" font-family="Helvetica,sans-Serif" font-size="10.00">hc.testcases.hcguicomponent.hc</text>
<text text-anchor="start" x="222.5" y="-17.5" font-family="Helvetica,sans-Serif" font-size="10.00">ButtonWithCountLabel.hcButtonWith</text>
<text text-anchor="middle" x="303" y="-6.5" font-family="Helvetica,sans-Serif" font-size="10.00">CountLabel_HTMLUnitDriver_Test</text>
</a>
</g>
</g>
<!-- Node0&#45;&gt;Node3 -->
<g id="edge3" class="edge"><title>Node0&#45;&gt;Node3</title>
<path fill="none" stroke="midnightblue" d="M172.392,-56.6816C191.206,-51.3568 211.066,-45.7362 229.433,-40.5378"/>
<polygon fill="midnightblue" stroke="midnightblue" points="171.331,-53.3443 162.662,-59.4353 173.237,-60.0798 171.331,-53.3443"/>
</g>
</g>
</svg>
