<?xml version="1.0" encoding="UTF-8" standalone="no"?>
<!DOCTYPE svg PUBLIC "-//W3C//DTD SVG 1.1//EN"
 "http://www.w3.org/Graphics/SVG/1.1/DTD/svg11.dtd">
<!-- Generated by graphviz version 2.36.0 (20140111.2315)
 -->
<!-- Title: Grafische Darstellung der Klassenhierarchie Pages: 1 -->
<svg width="266pt" height="77pt"
 viewBox="0.00 0.00 266.00 77.00" xmlns="http://www.w3.org/2000/svg" xmlns:xlink="http://www.w3.org/1999/xlink">
<g id="graph0" class="graph" transform="scale(1 1) rotate(0) translate(4 73)">
<title>Grafische Darstellung der Klassenhierarchie</title>
<polygon fill="white" stroke="none" points="-4,4 -4,-73 262,-73 262,4 -4,4"/>
<!-- Node14 -->
<g id="node1" class="node"><title>Node14</title>
<polygon fill="white" stroke="#bfbfbf" points="0.5,-22.5 0.5,-41.5 87.5,-41.5 87.5,-22.5 0.5,-22.5"/>
<text text-anchor="middle" x="44" y="-29.5" font-family="Helvetica,sans-Serif" font-size="10.00">SeBrowserChild</text>
</g>
<!-- Node0 -->
<g id="node2" class="node"><title>Node0</title>
<g id="a_node2"><a xlink:href="classokw_1_1gui_1_1frames_1_1hc_1_1_h_c___introduction.html" target="_top" xlink:title="okw.gui.frames.hc.HC\l_Introduction">
<polygon fill="white" stroke="black" points="133.5,-39 133.5,-69 248.5,-69 248.5,-39 133.5,-39"/>
<text text-anchor="start" x="141.5" y="-57" font-family="Helvetica,sans-Serif" font-size="10.00">okw.gui.frames.hc.HC</text>
<text text-anchor="middle" x="191" y="-46" font-family="Helvetica,sans-Serif" font-size="10.00">_Introduction</text>
</a>
</g>
</g>
<!-- Node14&#45;&gt;Node0 -->
<g id="edge1" class="edge"><title>Node14&#45;&gt;Node0</title>
<path fill="none" stroke="midnightblue" d="M97.6843,-39.9935C109.274,-41.752 121.596,-43.6215 133.336,-45.4027"/>
<polygon fill="midnightblue" stroke="midnightblue" points="98.1324,-36.5215 87.7205,-38.4817 97.0823,-43.4423 98.1324,-36.5215"/>
</g>
<!-- Node16 -->
<g id="node3" class="node"><title>Node16</title>
<g id="a_node3"><a xlink:href="classokw_1_1gui_1_1frames_1_1hc_1_1hc_login.html" target="_top" xlink:title="Klasse representiert den Login&#45;Dialog von Human Connection ">
<polygon fill="white" stroke="black" points="124,-0.5 124,-19.5 258,-19.5 258,-0.5 124,-0.5"/>
<text text-anchor="middle" x="191" y="-7.5" font-family="Helvetica,sans-Serif" font-size="10.00">okw.gui.frames.hc.hcLogin</text>
</a>
</g>
</g>
<!-- Node14&#45;&gt;Node16 -->
<g id="edge2" class="edge"><title>Node14&#45;&gt;Node16</title>
<path fill="none" stroke="midnightblue" d="M97.8343,-23.9838C107.364,-22.5379 117.384,-21.0176 127.165,-19.5336"/>
<polygon fill="midnightblue" stroke="midnightblue" points="97.0823,-20.5577 87.7205,-25.5183 98.1324,-27.4785 97.0823,-20.5577"/>
</g>
</g>
</svg>
