<?xml version="1.0" encoding="UTF-8" standalone="no"?>
<!DOCTYPE svg PUBLIC "-//W3C//DTD SVG 1.1//EN"
 "http://www.w3.org/Graphics/SVG/1.1/DTD/svg11.dtd">
<!-- Generated by graphviz version 2.36.0 (20140111.2315)
 -->
<!-- Title: Grafische Darstellung der Klassenhierarchie Pages: 1 -->
<svg width="426pt" height="169pt"
 viewBox="0.00 0.00 426.00 169.00" xmlns="http://www.w3.org/2000/svg" xmlns:xlink="http://www.w3.org/1999/xlink">
<g id="graph0" class="graph" transform="scale(1 1) rotate(0) translate(4 165)">
<title>Grafische Darstellung der Klassenhierarchie</title>
<polygon fill="white" stroke="none" points="-4,4 -4,-165 422,-165 422,4 -4,4"/>
<!-- Node0 -->
<g id="node1" class="node"><title>Node0</title>
<g id="a_node1"><a xlink:href="classhc_1_1testcases_1_1hc_button_with_count_label_1_1hc_button_with_count_label___test.html" target="_top" xlink:title="hc.testcases.hcButtonWith\lCountLabel.hcButtonWithCountLabel_Test">
<polygon fill="white" stroke="black" points="0.5,-65 0.5,-95 203.5,-95 203.5,-65 0.5,-65"/>
<text text-anchor="start" x="8.5" y="-83" font-family="Helvetica,sans-Serif" font-size="10.00">hc.testcases.hcButtonWith</text>
<text text-anchor="middle" x="102" y="-72" font-family="Helvetica,sans-Serif" font-size="10.00">CountLabel.hcButtonWithCountLabel_Test</text>
</a>
</g>
</g>
<!-- Node1 -->
<g id="node2" class="node"><title>Node1</title>
<g id="a_node2"><a xlink:href="classhc_1_1testcases_1_1hc_button_with_count_label_1_1hc_button_with_count_label___chrome___test.html" target="_top" xlink:title="hc.testcases.hcButtonWith\lCountLabel.hcButtonWithCountLabel\l_Chrome_Test">
<polygon fill="white" stroke="black" points="240,-119.5 240,-160.5 418,-160.5 418,-119.5 240,-119.5"/>
<text text-anchor="start" x="248" y="-148.5" font-family="Helvetica,sans-Serif" font-size="10.00">hc.testcases.hcButtonWith</text>
<text text-anchor="start" x="248" y="-137.5" font-family="Helvetica,sans-Serif" font-size="10.00">CountLabel.hcButtonWithCountLabel</text>
<text text-anchor="middle" x="329" y="-126.5" font-family="Helvetica,sans-Serif" font-size="10.00">_Chrome_Test</text>
</a>
</g>
</g>
<!-- Node0&#45;&gt;Node1 -->
<g id="edge1" class="edge"><title>Node0&#45;&gt;Node1</title>
<path fill="none" stroke="midnightblue" d="M169.47,-97.7252C195.089,-104.557 224.557,-112.415 251.082,-119.489"/>
<polygon fill="midnightblue" stroke="midnightblue" points="170.051,-94.258 159.487,-95.0631 168.247,-101.022 170.051,-94.258"/>
</g>
<!-- Node2 -->
<g id="node3" class="node"><title>Node2</title>
<g id="a_node3"><a xlink:href="classhc_1_1testcases_1_1hc_button_with_count_label_1_1hc_button_with_count_label___firefox___test.html" target="_top" xlink:title="hc.testcases.hcButtonWith\lCountLabel.hcButtonWithCountLabel\l_Firefox_Test">
<polygon fill="white" stroke="black" points="240,-59.5 240,-100.5 418,-100.5 418,-59.5 240,-59.5"/>
<text text-anchor="start" x="248" y="-88.5" font-family="Helvetica,sans-Serif" font-size="10.00">hc.testcases.hcButtonWith</text>
<text text-anchor="start" x="248" y="-77.5" font-family="Helvetica,sans-Serif" font-size="10.00">CountLabel.hcButtonWithCountLabel</text>
<text text-anchor="middle" x="329" y="-66.5" font-family="Helvetica,sans-Serif" font-size="10.00">_Firefox_Test</text>
</a>
</g>
</g>
<!-- Node0&#45;&gt;Node2 -->
<g id="edge2" class="edge"><title>Node0&#45;&gt;Node2</title>
<path fill="none" stroke="midnightblue" d="M213.854,-80C222.558,-80 231.276,-80 239.798,-80"/>
<polygon fill="midnightblue" stroke="midnightblue" points="213.654,-76.5001 203.654,-80 213.654,-83.5001 213.654,-76.5001"/>
</g>
<!-- Node3 -->
<g id="node4" class="node"><title>Node3</title>
<g id="a_node4"><a xlink:href="classhc_1_1testcases_1_1hc_button_with_count_label_1_1hc_button_with_count_label___h_t_m_l_unit_driver___test.html" target="_top" xlink:title="hc.testcases.hcButtonWith\lCountLabel.hcButtonWithCountLabel\l_HTMLUnitDriver_Test">
<polygon fill="white" stroke="black" points="240,0.5 240,-40.5 418,-40.5 418,0.5 240,0.5"/>
<text text-anchor="start" x="248" y="-28.5" font-family="Helvetica,sans-Serif" font-size="10.00">hc.testcases.hcButtonWith</text>
<text text-anchor="start" x="248" y="-17.5" font-family="Helvetica,sans-Serif" font-size="10.00">CountLabel.hcButtonWithCountLabel</text>
<text text-anchor="middle" x="329" y="-6.5" font-family="Helvetica,sans-Serif" font-size="10.00">_HTMLUnitDriver_Test</text>
</a>
</g>
</g>
<!-- Node0&#45;&gt;Node3 -->
<g id="edge3" class="edge"><title>Node0&#45;&gt;Node3</title>
<path fill="none" stroke="midnightblue" d="M169.47,-62.2748C195.089,-55.443 224.557,-47.5849 251.082,-40.5114"/>
<polygon fill="midnightblue" stroke="midnightblue" points="168.247,-58.9784 159.487,-64.9369 170.051,-65.742 168.247,-58.9784"/>
</g>
</g>
</svg>
