<?xml version="1.0" encoding="UTF-8" standalone="no"?>
<!DOCTYPE svg PUBLIC "-//W3C//DTD SVG 1.1//EN"
 "http://www.w3.org/Graphics/SVG/1.1/DTD/svg11.dtd">
<!-- Generated by graphviz version 2.36.0 (20140111.2315)
 -->
<!-- Title: Grafische Darstellung der Klassenhierarchie Pages: 1 -->
<svg width="364pt" height="136pt"
 viewBox="0.00 0.00 364.00 136.00" xmlns="http://www.w3.org/2000/svg" xmlns:xlink="http://www.w3.org/1999/xlink">
<g id="graph0" class="graph" transform="scale(1 1) rotate(0) translate(4 132)">
<title>Grafische Darstellung der Klassenhierarchie</title>
<polygon fill="white" stroke="none" points="-4,4 -4,-132 360,-132 360,4 -4,4"/>
<!-- Node0 -->
<g id="node1" class="node"><title>Node0</title>
<g id="a_node1"><a xlink:href="classhc_1_1testcases_1_1hc_1_1hc_main_page_1_1hc_main_page___test.html" target="_top" xlink:title="Test&#45;Klasse zur Prüfung der Implementierung der Klasse okw.gui.adapter.selenium.hc.hcEmoji. ">
<polygon fill="white" stroke="black" points="0.5,-49 0.5,-79 157.5,-79 157.5,-49 0.5,-49"/>
<text text-anchor="start" x="8.5" y="-67" font-family="Helvetica,sans-Serif" font-size="10.00">hc.testcases.hc.hcMainPage.hc</text>
<text text-anchor="middle" x="79" y="-56" font-family="Helvetica,sans-Serif" font-size="10.00">MainPage_Test</text>
</a>
</g>
</g>
<!-- Node1 -->
<g id="node2" class="node"><title>Node1</title>
<g id="a_node2"><a xlink:href="classhc_1_1testcases_1_1hc_1_1hc_main_page_1_1hc_main_page___chrome___test.html" target="_top" xlink:title="hc.testcases.hc.hcMainPage.hc\lMainPage_Chrome_Test">
<polygon fill="white" stroke="black" points="196.5,-98 196.5,-128 353.5,-128 353.5,-98 196.5,-98"/>
<text text-anchor="start" x="204.5" y="-116" font-family="Helvetica,sans-Serif" font-size="10.00">hc.testcases.hc.hcMainPage.hc</text>
<text text-anchor="middle" x="275" y="-105" font-family="Helvetica,sans-Serif" font-size="10.00">MainPage_Chrome_Test</text>
</a>
</g>
</g>
<!-- Node0&#45;&gt;Node1 -->
<g id="edge1" class="edge"><title>Node0&#45;&gt;Node1</title>
<path fill="none" stroke="midnightblue" d="M149.483,-81.5498C170.787,-86.9306 194.021,-92.799 214.588,-97.9938"/>
<polygon fill="midnightblue" stroke="midnightblue" points="150.077,-78.0901 139.525,-79.0346 148.363,-84.877 150.077,-78.0901"/>
</g>
<!-- Node2 -->
<g id="node3" class="node"><title>Node2</title>
<g id="a_node3"><a xlink:href="classhc_1_1testcases_1_1hc_1_1hc_main_page_1_1hc_main_page___firefox___test.html" target="_top" xlink:title="hc.testcases.hc.hcMainPage.hc\lMainPage_Firefox_Test">
<polygon fill="white" stroke="black" points="196.5,-49 196.5,-79 353.5,-79 353.5,-49 196.5,-49"/>
<text text-anchor="start" x="204.5" y="-67" font-family="Helvetica,sans-Serif" font-size="10.00">hc.testcases.hc.hcMainPage.hc</text>
<text text-anchor="middle" x="275" y="-56" font-family="Helvetica,sans-Serif" font-size="10.00">MainPage_Firefox_Test</text>
</a>
</g>
</g>
<!-- Node0&#45;&gt;Node2 -->
<g id="edge2" class="edge"><title>Node0&#45;&gt;Node2</title>
<path fill="none" stroke="midnightblue" d="M167.769,-64C177.282,-64 186.914,-64 196.296,-64"/>
<polygon fill="midnightblue" stroke="midnightblue" points="167.51,-60.5001 157.51,-64 167.51,-67.5001 167.51,-60.5001"/>
</g>
<!-- Node3 -->
<g id="node4" class="node"><title>Node3</title>
<g id="a_node4"><a xlink:href="classhc_1_1testcases_1_1hc_1_1hc_main_page_1_1hc_main_page___h_t_m_l_unit_driver___test.html" target="_top" xlink:title="hc.testcases.hc.hcMainPage.hc\lMainPage_HTMLUnitDriver_Test">
<polygon fill="white" stroke="black" points="194.5,-0 194.5,-30 355.5,-30 355.5,-0 194.5,-0"/>
<text text-anchor="start" x="202.5" y="-18" font-family="Helvetica,sans-Serif" font-size="10.00">hc.testcases.hc.hcMainPage.hc</text>
<text text-anchor="middle" x="275" y="-7" font-family="Helvetica,sans-Serif" font-size="10.00">MainPage_HTMLUnitDriver_Test</text>
</a>
</g>
</g>
<!-- Node0&#45;&gt;Node3 -->
<g id="edge3" class="edge"><title>Node0&#45;&gt;Node3</title>
<path fill="none" stroke="midnightblue" d="M149.483,-46.4502C170.787,-41.0694 194.021,-35.201 214.588,-30.0062"/>
<polygon fill="midnightblue" stroke="midnightblue" points="148.363,-43.123 139.525,-48.9654 150.077,-49.9099 148.363,-43.123"/>
</g>
</g>
</svg>
